{
classes = (
{
automatic = 1;
code = "A Aacute Abreve Acircumflex Adieresis Agrave Amacron Aogonek Aring Aringacute Atilde AE AEacute B C Cacute Ccaron Ccedilla Ccircumflex Cdotaccent D Eth Dcaron Dcroat E Eacute Ebreve Ecaron Ecircumflex Edieresis Edotaccent Egrave Emacron Eogonek F G Gbreve Gcircumflex Gcommaaccent Gdotaccent H Hbar Hcircumflex I IJ Iacute Ibreve Icircumflex Idieresis Idotaccent Igrave Imacron Iogonek Itilde J Jcircumflex K Kcommaaccent L Lacute Lcaron Lcommaaccent Ldot Lslash M N Nacute Ncaron Ncommaaccent Eng Ntilde O Oacute Obreve Ocircumflex Odieresis Ograve Ohungarumlaut Omacron Oslash Oslashacute Otilde OE P Thorn Q R Racute Rcaron Rcommaaccent S Sacute Scaron Scedilla Scircumflex Scommaaccent T Tbar Tcaron Tcedilla Tcommaaccent U Uacute Ubreve Ucircumflex Udieresis Ugrave Uhungarumlaut Umacron Uogonek Uring Utilde V W Wacute Wcircumflex Wdieresis Wgrave X Y Yacute Ycircumflex Ydieresis Ygrave Z Zacute Zcaron Zdotaccent Delta Omega";
name = Uppercase;
},
{

glyphs = (
{
glyphname = A;
layers = (
{
anchors = (
{
name = ogonek;
position = "{471, 9}";
},
{
name = top;
position = "{262, 606}";
}
);
layerId = "3E4994DA-6C35-486D-9CDD-3005170E1289";
name = Bold;
paths = (
{
closed = 1;
nodes = (
"327 606 LINE",
"195 606 LINE",
"0 0 LINE",
"110 0 LINE",
"146 119 LINE",
"370 119 LINE",
"407 0 LINE",
"522 0 LINE"
);
},
{
closed = 1;
nodes = (
"260 505 LINE",
"260 505 OFFCURVE",
"268 454 OFFCURVE",
"278 423 CURVE SMOOTH",
"339 220 LINE",
"177 220 LINE",
"239 423 LINE SMOOTH",
"248 451 OFFCURVE",
"256 505 OFFCURVE",
"256 505 CURVE"
);
}
);
width = 523;
}
);
unicode = 0041;
},
{
glyphname = Aacute;
layers = (
{
layerId = "3E4994DA-6C35-486D-9CDD-3005170E1289";
name = Bold;
paths = (
{
closed = 1;
nodes = (
"327 606 LINE",
"195 606 LINE",
"0 0 LINE",
"110 0 LINE",
"146 119 LINE",
"370 119 LINE",
"407 0 LINE",
"522 0 LINE"
);
},
{
closed = 1;
nodes = (
"260 505 LINE",
"260 505 OFFCURVE",
"268 454 OFFCURVE",
"278 423 CURVE SMOOTH",
"339 220 LINE",
"177 220 LINE",
"239 423 LINE SMOOTH",
"248 451 OFFCURVE",
"256 505 OFFCURVE",
"256 505 CURVE"
);
},
{
closed = 1;
nodes = (
"383 781 LINE",
"277 781 LINE",
"201 664 LINE",
"288 664 LINE",
"384 778 LINE"
);
}
);
width = 523;
}
);
unicode = 00C1;
},
{
glyphname = Abreve;
layers = (
{
layerId = "3E4994DA-6C35-486D-9CDD-3005170E1289";
name = Bold;
paths = (
{
closed = 1;
nodes = (
"327 606 LINE",
"195 606 LINE",
"0 0 LINE",
"110 0 LINE",
"146 119 LINE",
"370 119 LINE",
"407 0 LINE",
"522 0 LINE"
);
},
{
closed = 1;
nodes = (
"260 505 LINE",
"260 505 OFFCURVE",
"268 454 OFFCURVE",
"278 423 CURVE SMOOTH",
"339 220 LINE",
"177 220 LINE",
"239 423 LINE SMOOTH",
"248 451 OFFCURVE",
"256 505 OFFCURVE",
"256 505 CURVE"
);
},
{
closed = 1;
nodes = (
"314 781 LINE",
"313 768 OFFCURVE",
"292 751 OFFCURVE",
"261 751 CURVE SMOOTH",
"232 751 OFFCURVE",
"212 768 OFFCURVE",
"210 781 CURVE",
"144 781 LINE",
"144 736 OFFCURVE",
"188 686 OFFCURVE",
"261 686 CURVE SMOOTH",
"334 686 OFFCURVE",
"380 736 OFFCURVE",
"380 781 CURVE"
);
}
);
width = 523;
}
);
unicode = 0102;
},
{
glyphname = Acircumflex;
layers = (
{
layerId = "3E4994DA-6C35-486D-9CDD-3005170E1289";
name = Bold;
paths = (
{
closed = 1;
nodes = (
"327 606 LINE",
"195 606 LINE",
"0 0 LINE",
"110 0 LINE",
"146 119 LINE",
"370 119 LINE",
"407 0 LINE",
"522 0 LINE"
);
},
{
closed = 1;
nodes = (
"260 505 LINE",
"260 505 OFFCURVE",
"268 454 OFFCURVE",
"278 423 CURVE SMOOTH",
"339 220 LINE",
"177 220 LINE",
"239 423 LINE SMOOTH",
"248 451 OFFCURVE",
"256 505 OFFCURVE",
"256 505 CURVE"
);
},
{
closed = 1;
nodes = (
"306 781 LINE",
"219 781 LINE",
"143 661 LINE",
"222 661 LINE",
"262 722 LINE",
"301 661 LINE",
"381 661 LINE"
);
}
);
width = 523;
}
);
unicode = 00C2;
},
{
glyphname = Adieresis;
layers = (
{
layerId = "3E4994DA-6C35-486D-9CDD-3005170E1289";
name = Bold;
paths = (
{
closed = 1;
nodes = (
"327 606 LINE",
"195 606 LINE",
"0 0 LINE",
"110 0 LINE",
"146 119 LINE",
"370 119 LINE",
"407 0 LINE",
"522 0 LINE"
);
},
{
closed = 1;
nodes = (
"260 505 LINE",
"260 505 OFFCURVE",
"268 454 OFFCURVE",
"278 423 CURVE SMOOTH",
"339 220 LINE",
"177 220 LINE",
"239 423 LINE SMOOTH",
"248 451 OFFCURVE",
"256 505 OFFCURVE",
"256 505 CURVE"
);
},
{
closed = 1;
nodes = (
"229 781 LINE",
"141 781 LINE",
"141 684 LINE",
"229 684 LINE"
);
},
{
closed = 1;
nodes = (
"384 781 LINE",
"294 781 LINE",
"294 684 LINE",
"384 684 LINE"
);
}
);
width = 523;
}
);
unicode = 00C4;
},
{
glyphname = Agrave;
layers = (
{
layerId = "3E4994DA-6C35-486D-9CDD-3005170E1289";
name = Bold;
paths = (
{
closed = 1;
nodes = (
"327 606 LINE",
"195 606 LINE",
"0 0 LINE",
"110 0 LINE",
"146 119 LINE",
"370 119 LINE",
"407 0 LINE",
"522 0 LINE"
);
},
{
closed = 1;
nodes = (
"260 505 LINE",
"260 505 OFFCURVE",
"268 454 OFFCURVE",
"278 423 CURVE SMOOTH",
"339 220 LINE",
"177 220 LINE",
"239 423 LINE SMOOTH",
"248 451 OFFCURVE",
"256 505 OFFCURVE",
"256 505 CURVE"
);
},
{
closed = 1;
nodes = (
"247 781 LINE",
"141 781 LINE",
"140 778 LINE",
"235 664 LINE",
"323 664 LINE"
);
}
);
width = 523;
}
);
unicode = 00C0;
},
{
glyphname = Amacron;
layers = (
{
layerId = "3E4994DA-6C35-486D-9CDD-3005170E1289";
name = Bold;
paths = (
{
closed = 1;
nodes = (
"327 606 LINE",
"195 606 LINE",
"0 0 LINE",
"110 0 LINE",
"146 119 LINE",
"370 119 LINE",
"407 0 LINE",
"522 0 LINE"
);
},
{
closed = 1;
nodes = (
"260 505 LINE",
"260 505 OFFCURVE",
"268 454 OFFCURVE",
"278 423 CURVE SMOOTH",
"339 220 LINE",
"177 220 LINE",
"239 423 LINE SMOOTH",
"248 451 OFFCURVE",
"256 505 OFFCURVE",
"256 505 CURVE"
);
},
{
closed = 1;
nodes = (
"375 748 LINE",
"149 748 LINE",
"149 671 LINE",
"375 671 LINE"
);
}
);
width = 523;
}
);
unicode = 0100;
},
{
glyphname = Aogonek;
layers = (
{
layerId = "3E4994DA-6C35-486D-9CDD-3005170E1289";
name = Bold;
paths = (
{
closed = 1;
nodes = (
"407 0 LINE",
"522 0 LINE",
"327 606 LINE",
"195 606 LINE",
"0 0 LINE",
"110 0 LINE",
"146 119 LINE",
"370 119 LINE"
);
},
{
closed = 1;
nodes = (
"260 505 LINE",
"260 505 OFFCURVE",
"268 454 OFFCURVE",
"278 423 CURVE SMOOTH",
"339 220 LINE",
"177 220 LINE",
"239 423 LINE SMOOTH",
"248 451 OFFCURVE",
"256 505 OFFCURVE",
"256 505 CURVE"
);
},
{
closed = 1;
nodes = (
"449 0 LINE",
"430 -24 OFFCURVE",
"409 -44 OFFCURVE",
"409 -88 CURVE SMOOTH",
"409 -149 OFFCURVE",
"456 -168 OFFCURVE",
"497 -168 CURVE SMOOTH",
"516 -168 OFFCURVE",
"535 -164 OFFCURVE",
"555 -156 CURVE",
"555 -107 LINE",
"536 -107 LINE SMOOTH",
"507 -107 OFFCURVE",
"496 -85 OFFCURVE",
"496 -62 CURVE SMOOTH",
"496 -34 OFFCURVE",
"512 -10 OFFCURVE",
"522 0 CURVE"
);
}
);
width = 523;
}
);
unicode = 0104;
},
{
glyphname = Aring;
layers = (
{
layerId = "3E4994DA-6C35-486D-9CDD-3005170E1289";
name = Bold;
paths = (
{
closed = 1;
nodes = (
"327 606 LINE",
"195 606 LINE",
"0 0 LINE",
"110 0 LINE",
"146 119 LINE",
"370 119 LINE",
"407 0 LINE",
"522 0 LINE"
);
},
{
closed = 1;
nodes = (
"260 505 LINE",
"260 505 OFFCURVE",
"268 454 OFFCURVE",
"278 423 CURVE SMOOTH",
"339 220 LINE",
"177 220 LINE",
"239 423 LINE SMOOTH",
"248 451 OFFCURVE",
"256 505 OFFCURVE",
"256 505 CURVE"
);
},
{
closed = 1;
nodes = (
"215 807 OFFCURVE",
"177 769 OFFCURVE",
"177 722 CURVE SMOOTH",
"177 674 OFFCURVE",
"216 637 OFFCURVE",
"262 637 CURVE SMOOTH",
"309 637 OFFCURVE",
"347 675 OFFCURVE",
"347 722 CURVE SMOOTH",
"347 768 OFFCURVE",
"309 807 OFFCURVE",
"262 807 CURVE SMOOTH"
);
},
{
closed = 1;
nodes = (
"284 763 OFFCURVE",
"302 745 OFFCURVE",
"302 722 CURVE SMOOTH",
"302 699 OFFCURVE",
"284 682 OFFCURVE",
"262 682 CURVE SMOOTH",
"239 682 OFFCURVE",
"221 699 OFFCURVE",
"221 722 CURVE SMOOTH",
"221 745 OFFCURVE",
"239 763 OFFCURVE",
"262 763 CURVE SMOOTH"
);
}
);
width = 523;
}
);
unicode = 00C5;
},
{
glyphname = Aringacute;
layers = (
{
layerId = "3E4994DA-6C35-486D-9CDD-3005170E1289";
name = Bold;
paths = (
{
closed = 1;
nodes = (
"215 726 OFFCURVE",
"177 689 OFFCURVE",
"177 644 CURVE SMOOTH",
"177 626 OFFCURVE",
"182 609 OFFCURVE",
"192 596 CURVE",
"0 0 LINE",
"110 0 LINE",
"146 119 LINE",
"370 119 LINE",
"407 0 LINE",
"522 0 LINE",
"331 595 LINE",
"340 609 OFFCURVE",
"347 626 OFFCURVE",
"347 644 CURVE SMOOTH",
"347 688 OFFCURVE",
"309 726 OFFCURVE",
"262 726 CURVE SMOOTH"
);
},
{
closed = 1;
nodes = (
"260 505 LINE",
"260 505 OFFCURVE",
"268 454 OFFCURVE",
"278 423 CURVE SMOOTH",
"339 220 LINE",
"177 220 LINE",
"239 423 LINE SMOOTH",
"248 451 OFFCURVE",
"256 505 OFFCURVE",
"256 505 CURVE"
);
},
{
closed = 1;
nodes = (
"392 843 LINE",
"392 846 LINE",
"286 846 LINE",
"224 750 LINE",
"311 750 LINE"
);
},
{
closed = 1;
nodes = (
"284 682 OFFCURVE",
"302 666 OFFCURVE",
"302 644 CURVE SMOOTH",
"302 621 OFFCURVE",
"284 604 OFFCURVE",
"262 604 CURVE SMOOTH",
"239 604 OFFCURVE",
"221 621 OFFCURVE",
"221 644 CURVE SMOOTH",
"221 666 OFFCURVE",
"239 682 OFFCURVE",
"262 682 CURVE SMOOTH"
);
}
);
width = 523;
}
);
unicode = 01FA;
},
{
glyphname = Atilde;
layers = (
{
layerId = "3E4994DA-6C35-486D-9CDD-3005170E1289";
name = Bold;
paths = (
{
closed = 1;
nodes = (
"327 606 LINE",
"195 606 LINE",
"0 0 LINE",
"110 0 LINE",
"146 119 LINE",
"370 119 LINE",
"407 0 LINE",
"522 0 LINE"
);
},
{
closed = 1;
nodes = (
"260 505 LINE",
"260 505 OFFCURVE",
"268 454 OFFCURVE",
"278 423 CURVE SMOOTH",
"339 220 LINE",
"177 220 LINE",
"239 423 LINE SMOOTH",
"248 451 OFFCURVE",
"256 505 OFFCURVE",
"256 505 CURVE"
);
},
{
closed = 1;
nodes = (
"352 781 LINE",
"348 756 OFFCURVE",
"336 748 OFFCURVE",
"317 748 CURVE SMOOTH",
"278 748 OFFCURVE",
"243 781 OFFCURVE",
"200 781 CURVE SMOOTH",
"138 781 OFFCURVE",
"113 721 OFFCURVE",
"113 673 CURVE",
"171 673 LINE",
"175 697 OFFCURVE",
"187 705 OFFCURVE",
"206 705 CURVE SMOOTH",
"246 705 OFFCURVE",
"280 673 OFFCURVE",
"323 673 CURVE SMOOTH",
"385 673 OFFCURVE",
"410 732 OFFCURVE",
"410 781 CURVE"
);
}
);
width = 523;
}
);
unicode = 00C3;
},
{
glyphname = AE;
layers = (
{
anchors = (
{
name = top;
position = "{362, 606}";
}
);
layerId = "3E4994DA-6C35-486D-9CDD-3005170E1289";
name = Bold;
paths = (
{
closed = 1;
nodes = (
"682 606 LINE",
"225 606 LINE",
"-7 0 LINE",
"98 0 LINE",
"142 119 LINE",
"366 119 LINE",
"395 0 LINE",
"687 0 LINE",
"687 101 LINE",
"486 101 LINE",
"447 260 LINE",
"643 260 LINE",
"643 361 LINE",
"423 361 LINE",
"387 506 LINE",
"682 506 LINE"
);
},
{
closed = 1;
nodes = (
"280 483 LINE",
"283 472 OFFCURVE",
"286 461 OFFCURVE",
"288 450 CURVE SMOOTH",
"342 220 LINE",
"179 220 LINE",
"264 450 LINE SMOOTH",
"269 461 OFFCURVE",
"272 472 OFFCURVE",
"277 483 CURVE"
);
}
);
width = 725;
}
);
unicode = 00C6;
},
{
glyphname = AEacute;
layers = (
{
layerId = "3E4994DA-6C35-486D-9CDD-3005170E1289";
name = Bold;
paths = (
{
closed = 1;
nodes = (
"682 606 LINE",
"225 606 LINE",
"-7 0 LINE",
"98 0 LINE",
"142 119 LINE",
"366 119 LINE",
"395 0 LINE",
"687 0 LINE",
"687 101 LINE",
"486 101 LINE",
"447 260 LINE",
"643 260 LINE",
"643 361 LINE",
"423 361 LINE",
"387 506 LINE",
"682 506 LINE"
);
},
{
closed = 1;
nodes = (
"280 483 LINE",
"284 469 OFFCURVE",
"286 455 OFFCURVE",
"290 442 CURVE SMOOTH",
"342 220 LINE",
"179 220 LINE",
"261 439 LINE SMOOTH",
"266 453 OFFCURVE",
"271 469 OFFCURVE",
"277 483 CURVE"
);
},
{
closed = 1;
nodes = (
"484 781 LINE",
"377 781 LINE",
"301 664 LINE",
"389 664 LINE",
"484 778 LINE"
);
}
);
width = 725;
}
);
unicode = 01FC;
},
{
glyphname = B;
layers = (
{
layerId = "3E4994DA-6C35-486D-9CDD-3005170E1289";
name = Bold;
paths = (
{
closed = 1;
nodes = (
"53 606 LINE",
"53 0 LINE",
"314 0 LINE SMOOTH",
"411 0 OFFCURVE",
"493 61 OFFCURVE",
"493 163 CURVE SMOOTH",
"493 240 OFFCURVE",
"446 296 OFFCURVE",
"386 315 CURVE",
"386 318 LINE",
"438 337 OFFCURVE",
"479 386 OFFCURVE",
"479 456 CURVE SMOOTH",
"479 545 OFFCURVE",
"409 606 OFFCURVE",
"314 606 CURVE SMOOTH"
);
},
{
closed = 1;
nodes = (
"166 261 LINE",
"290 261 LINE SMOOTH",
"349 261 OFFCURVE",
"377 224 OFFCURVE",
"377 177 CURVE SMOOTH",
"377 127 OFFCURVE",
"342 101 OFFCURVE",
"295 101 CURVE SMOOTH",
"166 101 LINE"
);
},
{
closed = 1;
nodes = (
"166 506 LINE",
"288 506 LINE SMOOTH",
"333 506 OFFCURVE",
"363 482 OFFCURVE",
"363 436 CURVE SMOOTH",
"363 395 OFFCURVE",
"337 361 OFFCURVE",
"283 361 CURVE SMOOTH",
"166 361 LINE"
);
}
);
width = 523;
}
);
unicode = 0042;
},
{
glyphname = C;
layers = (
{
anchors = (
{
name = bottom;
position = "{262, 0}";
},
{
name = top;
position = "{262, 606}";
}
);
layerId = "3E4994DA-6C35-486D-9CDD-3005170E1289";
name = Bold;
paths = (
{
closed = 1;
nodes = (
"119 617 OFFCURVE",
"30 517 OFFCURVE",
"30 303 CURVE SMOOTH",
"30 89 OFFCURVE",
"119 -11 OFFCURVE",
"271 -11 CURVE SMOOTH",
"400 -11 OFFCURVE",
"494 65 OFFCURVE",
"494 225 CURVE",
"384 225 LINE",
"384 131 OFFCURVE",
"340 87 OFFCURVE",
"275 87 CURVE SMOOTH",
"188 87 OFFCURVE",
"147 160 OFFCURVE",
"147 281 CURVE SMOOTH",
"147 325 LINE SMOOTH",
"147 446 OFFCURVE",
"187 520 OFFCURVE",
"271 520 CURVE SMOOTH",
"335 520 OFFCURVE",
"378 475 OFFCURVE",
"378 381 CURVE",
"494 381 LINE",
"494 545 OFFCURVE",
"398 617 OFFCURVE",
"271 617 CURVE SMOOTH"
);
}
);
width = 523;
}
);
unicode = 0043;
},
{
glyphname = Cacute;
layers = (
{
layerId = "3E4994DA-6C35-486D-9CDD-3005170E1289";
name = Bold;
paths = (
{
closed = 1;
nodes = (
"119 617 OFFCURVE",
"30 517 OFFCURVE",
"30 303 CURVE SMOOTH",
"30 89 OFFCURVE",
"119 -11 OFFCURVE",
"271 -11 CURVE SMOOTH",
"400 -11 OFFCURVE",
"494 65 OFFCURVE",
"494 225 CURVE",
"384 225 LINE",
"384 131 OFFCURVE",
"340 87 OFFCURVE",
"275 87 CURVE SMOOTH",
"188 87 OFFCURVE",
"147 160 OFFCURVE",
"147 281 CURVE SMOOTH",
"147 325 LINE SMOOTH",
"147 446 OFFCURVE",
"187 520 OFFCURVE",
"271 520 CURVE SMOOTH",
"335 520 OFFCURVE",
"378 475 OFFCURVE",
"378 381 CURVE",
"494 381 LINE",
"494 545 OFFCURVE",
"398 617 OFFCURVE",
"271 617 CURVE SMOOTH"
);
},
{
closed = 1;
nodes = (
"392 781 LINE",
"286 781 LINE",
"210 664 LINE",
"298 664 LINE",
"393 778 LINE"
);
}
);
width = 523;
}
);
unicode = 0106;
},
{
glyphname = Ccaron;
layers = (
{
layerId = "3E4994DA-6C35-486D-9CDD-3005170E1289";
name = Bold;
paths = (
{
closed = 1;
nodes = (
"119 617 OFFCURVE",
"30 517 OFFCURVE",
"30 303 CURVE SMOOTH",
"30 89 OFFCURVE",
"119 -11 OFFCURVE",
"271 -11 CURVE SMOOTH",
"400 -11 OFFCURVE",
"494 65 OFFCURVE",
"494 225 CURVE",
"384 225 LINE",
"384 131 OFFCURVE",
"340 87 OFFCURVE",
"275 87 CURVE SMOOTH",
"188 87 OFFCURVE",
"147 160 OFFCURVE",
"147 281 CURVE SMOOTH",
"147 325 LINE SMOOTH",
"147 446 OFFCURVE",
"187 520 OFFCURVE",
"271 520 CURVE SMOOTH",
"335 520 OFFCURVE",
"378 475 OFFCURVE",
"378 381 CURVE",
"494 381 LINE",
"494 545 OFFCURVE",
"398 617 OFFCURVE",
"271 617 CURVE SMOOTH"
);
},
{
closed = 1;
nodes = (
"315 661 LINE",
"390 781 LINE",
"311 781 LINE",
"271 720 LINE",
"232 781 LINE",
"152 781 LINE",
"228 661 LINE"
);
}
);
width = 523;
}
);
unicode = 010C;
},
{
glyphname = Ccedilla;
layers = (
{
layerId = "3E4994DA-6C35-486D-9CDD-3005170E1289";
name = Bold;
paths = (
{
closed = 1;
nodes = (
"119 617 OFFCURVE",
"30 517 OFFCURVE",
"30 303 CURVE SMOOTH",
"30 108 OFFCURVE",
"103 8 OFFCURVE",
"232 -8 CURVE",
"225 -68 LINE",
"254 -68 LINE SMOOTH",
"277 -68 OFFCURVE",
"284 -75 OFFCURVE",
"284 -89 CURVE SMOOTH",
"284 -106 OFFCURVE",
"271 -111 OFFCURVE",
"252 -111 CURVE SMOOTH",
"189 -111 LINE",
"189 -154 LINE",
"210 -158 OFFCURVE",
"239 -161 OFFCURVE",
"263 -161 CURVE SMOOTH",
"301 -161 OFFCURVE",
"360 -149 OFFCURVE",
"360 -89 CURVE SMOOTH",
"360 -49 OFFCURVE",
"328 -32 OFFCURVE",
"290 -29 CURVE",
"292 -10 LINE",
"409 -2 OFFCURVE",
"494 74 OFFCURVE",
"494 225 CURVE",
"384 225 LINE",
"384 131 OFFCURVE",
"340 87 OFFCURVE",
"275 87 CURVE SMOOTH",
"188 87 OFFCURVE",
"147 160 OFFCURVE",
"147 281 CURVE SMOOTH",
"147 325 LINE SMOOTH",
"147 446 OFFCURVE",
"187 520 OFFCURVE",
"271 520 CURVE SMOOTH",
"335 520 OFFCURVE",
"378 475 OFFCURVE",
"378 381 CURVE",
"494 381 LINE",
"494 545 OFFCURVE",
"398 617 OFFCURVE",
"271 617 CURVE SMOOTH"
);
}
);
width = 523;
}
);
unicode = 00C7;
},
{
glyphname = Ccircumflex;
layers = (
{
layerId = "3E4994DA-6C35-486D-9CDD-3005170E1289";
name = Bold;
paths = (
{
closed = 1;
nodes = (
"119 617 OFFCURVE",
"30 517 OFFCURVE",
"30 303 CURVE SMOOTH",
"30 89 OFFCURVE",
"119 -11 OFFCURVE",
"271 -11 CURVE SMOOTH",
"400 -11 OFFCURVE",
"494 65 OFFCURVE",
"494 225 CURVE",
"384 225 LINE",
"384 131 OFFCURVE",
"340 87 OFFCURVE",
"275 87 CURVE SMOOTH",
"188 87 OFFCURVE",
"147 160 OFFCURVE",
"147 281 CURVE SMOOTH",
"147 325 LINE SMOOTH",
"147 446 OFFCURVE",
"187 520 OFFCURVE",
"271 520 CURVE SMOOTH",
"335 520 OFFCURVE",
"378 475 OFFCURVE",
"378 381 CURVE",
"494 381 LINE",
"494 545 OFFCURVE",
"398 617 OFFCURVE",
"271 617 CURVE SMOOTH"
);
},
{
closed = 1;
nodes = (
"390 661 LINE",
"315 781 LINE",
"228 781 LINE",
"152 661 LINE",
"232 661 LINE",
"271 722 LINE",
"311 661 LINE"
);
}
);
width = 523;
}
);
unicode = 0108;
},
{
glyphname = Cdotaccent;
layers = (
{
layerId = "3E4994DA-6C35-486D-9CDD-3005170E1289";
name = Bold;
paths = (
{
closed = 1;
nodes = (
"119 617 OFFCURVE",
"30 517 OFFCURVE",
"30 303 CURVE SMOOTH",
"30 89 OFFCURVE",
"119 -11 OFFCURVE",
"271 -11 CURVE SMOOTH",
"400 -11 OFFCURVE",
"494 65 OFFCURVE",
"494 225 CURVE",
"384 225 LINE",
"384 131 OFFCURVE",
"340 87 OFFCURVE",
"275 87 CURVE SMOOTH",
"188 87 OFFCURVE",
"147 160 OFFCURVE",
"147 281 CURVE SMOOTH",
"147 325 LINE SMOOTH",
"147 446 OFFCURVE",
"187 520 OFFCURVE",
"271 520 CURVE SMOOTH",
"335 520 OFFCURVE",
"378 475 OFFCURVE",
"378 381 CURVE",
"494 381 LINE",
"494 545 OFFCURVE",
"398 617 OFFCURVE",
"271 617 CURVE SMOOTH"
);
},
{
closed = 1;
nodes = (
"318 679 LINE",
"318 781 LINE",
"224 781 LINE",
"224 679 LINE"
);
}
);
width = 523;
}
);
unicode = 010A;
},
{
glyphname = D;
layers = (
{
anchors = (
{
name = center;
position = "{262, 303}";
},
{
name = top;
position = "{262, 606}";
}
);
layerId = "3E4994DA-6C35-486D-9CDD-3005170E1289";
name = Bold;
paths = (
{
closed = 1;
nodes = (
"53 0 LINE",
"250 0 LINE SMOOTH",
"401 0 OFFCURVE",
"493 104 OFFCURVE",
"493 312 CURVE SMOOTH",
"493 507 OFFCURVE",
"401 606 OFFCURVE",
"250 606 CURVE SMOOTH",
"53 606 LINE"
);
},
{
closed = 1;
nodes = (
"166 506 LINE",
"240 506 LINE SMOOTH",
"324 506 OFFCURVE",
"377 448 OFFCURVE",
"377 334 CURVE SMOOTH",
"377 290 LINE SMOOTH",
"377 164 OFFCURVE",
"324 101 OFFCURVE",
"240 101 CURVE SMOOTH",
"166 101 LINE"
);
}
);
width = 523;
}
);
unicode = 0044;
},
{
glyphname = Eth;
layers = (
{
layerId = "3E4994DA-6C35-486D-9CDD-3005170E1289";
name = Bold;
paths = (
{
closed = 1;
nodes = (
"9 351 LINE",
"9 276 LINE",
"53 276 LINE",
"53 0 LINE",
"250 0 LINE SMOOTH",
"401 0 OFFCURVE",
"493 104 OFFCURVE",
"493 312 CURVE SMOOTH",
"493 507 OFFCURVE",
"401 606 OFFCURVE",
"250 606 CURVE SMOOTH",
"53 606 LINE",
"53 351 LINE"
);
},
{
closed = 1;
nodes = (
"166 506 LINE",
"240 506 LINE SMOOTH",
"324 506 OFFCURVE",
"377 448 OFFCURVE",
"377 334 CURVE SMOOTH",
"377 290 LINE SMOOTH",
"377 164 OFFCURVE",
"324 101 OFFCURVE",
"240 101 CURVE SMOOTH",
"166 101 LINE",
"166 276 LINE",
"277 276 LINE",
"277 351 LINE",
"166 351 LINE"
);
}
);
width = 523;
}
);
unicode = 00D0;
},
{
glyphname = Dcaron;
layers = (
{
layerId = "3E4994DA-6C35-486D-9CDD-3005170E1289";
name = Bold;
paths = (
{
closed = 1;
nodes = (
"268 661 LINE",
"343 781 LINE",
"263 781 LINE",
"225 720 LINE",
"185 781 LINE",
"105 781 LINE",
"181 661 LINE"
);
},
{
closed = 1;
nodes = (
"53 0 LINE",
"250 0 LINE SMOOTH",
"401 0 OFFCURVE",
"493 104 OFFCURVE",
"493 312 CURVE SMOOTH",
"493 507 OFFCURVE",
"401 606 OFFCURVE",
"250 606 CURVE SMOOTH",
"53 606 LINE"
);
},
{
closed = 1;
nodes = (
"166 506 LINE",
"240 506 LINE SMOOTH",
"324 506 OFFCURVE",
"377 448 OFFCURVE",
"377 334 CURVE SMOOTH",
"377 290 LINE SMOOTH",
"377 164 OFFCURVE",
"324 101 OFFCURVE",
"240 101 CURVE SMOOTH",
"166 101 LINE"
);
}
);
width = 523;
}
);
unicode = 010E;
},
{
glyphname = Dcroat;
layers = (
{
layerId = "3E4994DA-6C35-486D-9CDD-3005170E1289";
name = Bold;
paths = (
{
closed = 1;
nodes = (
"9 351 LINE",
"9 276 LINE",
"53 276 LINE",
"53 0 LINE",
"250 0 LINE SMOOTH",
"401 0 OFFCURVE",
"493 104 OFFCURVE",
"493 312 CURVE SMOOTH",
"493 507 OFFCURVE",
"401 606 OFFCURVE",
"250 606 CURVE SMOOTH",
"53 606 LINE",
"53 351 LINE"
);
},
{
closed = 1;
nodes = (
"166 506 LINE",
"240 506 LINE SMOOTH",
"324 506 OFFCURVE",
"377 448 OFFCURVE",
"377 334 CURVE SMOOTH",
"377 290 LINE SMOOTH",
"377 164 OFFCURVE",
"324 101 OFFCURVE",
"240 101 CURVE SMOOTH",
"166 101 LINE",
"166 276 LINE",
"277 276 LINE",
"277 351 LINE",
"166 351 LINE"
);
}
);
width = 523;
}
);
unicode = 0110;
},
{
glyphname = E;
layers = (
{
anchors = (
{
name = bottom;
position = "{242, 0}";
},
{
name = ogonek;
position = "{435, 9}";
},
{
name = top;
position = "{242, 606}";
}
);
layerId = "3E4994DA-6C35-486D-9CDD-3005170E1289";
name = Bold;
paths = (
{
closed = 1;
nodes = (
"53 0 LINE",
"445 0 LINE",
"445 101 LINE",
"166 101 LINE",
"166 260 LINE",
"400 260 LINE",
"400 361 LINE",
"166 361 LINE",
"166 506 LINE",
"439 506 LINE",
"439 606 LINE",
"53 606 LINE"
);
}
);
width = 484;
}
);
unicode = 0045;
},
{
glyphname = Eacute;
layers = (
{
layerId = "3E4994DA-6C35-486D-9CDD-3005170E1289";
name = Bold;
paths = (
{
closed = 1;
nodes = (
"439 606 LINE",
"53 606 LINE",
"53 0 LINE",
"445 0 LINE",
"445 101 LINE",
"166 101 LINE",
"166 260 LINE",
"400 260 LINE",
"400 361 LINE",
"166 361 LINE",
"166 506 LINE",
"439 506 LINE"
);
},
{
closed = 1;
nodes = (
"363 781 LINE",
"257 781 LINE",
"181 664 LINE",
"269 664 LINE",
"364 778 LINE"
);
}
);
width = 484;
}
);
unicode = 00C9;
},
{
glyphname = Ebreve;
layers = (
{
layerId = "3E4994DA-6C35-486D-9CDD-3005170E1289";
name = Bold;
paths = (
{
closed = 1;
nodes = (
"294 781 LINE",
"293 768 OFFCURVE",
"271 751 OFFCURVE",
"241 751 CURVE SMOOTH",
"212 751 OFFCURVE",
"192 768 OFFCURVE",
"189 781 CURVE",
"124 781 LINE",
"124 736 OFFCURVE",
"169 686 OFFCURVE",
"241 686 CURVE SMOOTH",
"315 686 OFFCURVE",
"360 736 OFFCURVE",
"360 781 CURVE"
);
},
{
closed = 1;
nodes = (
"53 0 LINE",
"445 0 LINE",
"445 101 LINE",
"166 101 LINE",
"166 260 LINE",
"400 260 LINE",
"400 361 LINE",
"166 361 LINE",
"166 506 LINE",
"439 506 LINE",
"439 606 LINE",
"53 606 LINE"
);
}
);
width = 484;
}
);
unicode = 0114;
},
{
glyphname = Ecaron;
layers = (
{
layerId = "3E4994DA-6C35-486D-9CDD-3005170E1289";
name = Bold;
paths = (
{
closed = 1;
nodes = (
"286 661 LINE",
"361 781 LINE",
"281 781 LINE",
"242 720 LINE",
"202 781 LINE",
"123 781 LINE",
"199 661 LINE"
);
},
{
closed = 1;
nodes = (
"53 0 LINE",
"445 0 LINE",
"445 101 LINE",
"166 101 LINE",
"166 260 LINE",
"400 260 LINE",
"400 361 LINE",
"166 361 LINE",
"166 506 LINE",
"439 506 LINE",
"439 606 LINE",
"53 606 LINE"
);
}
);
width = 484;
}
);
unicode = 011A;
},
{
glyphname = Ecircumflex;
layers = (
{
layerId = "3E4994DA-6C35-486D-9CDD-3005170E1289";
name = Bold;
paths = (
{
closed = 1;
nodes = (
"361 661 LINE",
"286 781 LINE",
"199 781 LINE",
"123 661 LINE",
"202 661 LINE",
"242 722 LINE",
"281 661 LINE"
);
},
{
closed = 1;
nodes = (
"53 0 LINE",
"445 0 LINE",
"445 101 LINE",
"166 101 LINE",
"166 260 LINE",
"400 260 LINE",
"400 361 LINE",
"166 361 LINE",
"166 506 LINE",
"439 506 LINE",
"439 606 LINE",
"53 606 LINE"
);
}
);
width = 484;
}
);
unicode = 00CA;
},
{
glyphname = Edieresis;
layers = (
{
layerId = "3E4994DA-6C35-486D-9CDD-3005170E1289";
name = Bold;
paths = (
{
closed = 1;
nodes = (
"439 606 LINE",
"53 606 LINE",
"53 0 LINE",
"445 0 LINE",
"445 101 LINE",
"166 101 LINE",
"166 260 LINE",
"400 260 LINE",
"400 361 LINE",
"166 361 LINE",
"166 506 LINE",
"439 506 LINE"
);
},
{
closed = 1;
nodes = (
"209 781 LINE",
"120 781 LINE",
"120 684 LINE",
"209 684 LINE"
);
},
{
closed = 1;
nodes = (
"363 781 LINE",
"275 781 LINE",
"275 684 LINE",
"363 684 LINE"
);
}
);
width = 484;
}
);
unicode = 00CB;
},
{
glyphname = Edotaccent;
layers = (
{
layerId = "3E4994DA-6C35-486D-9CDD-3005170E1289";
name = Bold;
paths = (
{
closed = 1;
nodes = (
"289 679 LINE",
"289 781 LINE",
"194 781 LINE",
"194 679 LINE"
);
},
{
closed = 1;
nodes = (
"53 0 LINE",
"445 0 LINE",
"445 101 LINE",
"166 101 LINE",
"166 260 LINE",
"400 260 LINE",
"400 361 LINE",
"166 361 LINE",
"166 506 LINE",
"439 506 LINE",
"439 606 LINE",
"53 606 LINE"
);
}
);
width = 484;
}
);
unicode = 0116;
},
{
glyphname = Egrave;
layers = (
{
layerId = "3E4994DA-6C35-486D-9CDD-3005170E1289";
name = Bold;
paths = (
{
closed = 1;
nodes = (
"439 606 LINE",
"53 606 LINE",
"53 0 LINE",
"445 0 LINE",
"445 101 LINE",
"166 101 LINE",
"166 260 LINE",
"400 260 LINE",
"400 361 LINE",
"166 361 LINE",
"166 506 LINE",
"439 506 LINE"
);
},
{
closed = 1;
nodes = (
"226 781 LINE",
"120 781 LINE",
"119 778 LINE",
"215 664 LINE",
"302 664 LINE"
);
}
);
width = 484;
}
);
unicode = 00C8;
},
{
glyphname = Emacron;
layers = (
{
layerId = "3E4994DA-6C35-486D-9CDD-3005170E1289";
name = Bold;
paths = (
{
closed = 1;
nodes = (
"354 671 LINE",
"354 748 LINE",
"129 748 LINE",
"129 671 LINE"
);
},
{
closed = 1;
nodes = (
"53 0 LINE",
"445 0 LINE",
"445 101 LINE",
"166 101 LINE",
"166 260 LINE",
"400 260 LINE",
"400 361 LINE",
"166 361 LINE",
"166 506 LINE",
"439 506 LINE",
"439 606 LINE",
"53 606 LINE"
);
}
);
width = 484;
}
);
unicode = 0112;
},
{
glyphname = Eogonek;
layers = (
{
layerId = "3E4994DA-6C35-486D-9CDD-3005170E1289";
name = Bold;
paths = (
{
closed = 1;
nodes = (
"439 506 LINE",
"439 606 LINE",
"53 606 LINE",
"53 0 LINE",
"370 0 LINE",
"349 -22 OFFCURVE",
"331 -47 OFFCURVE",
"331 -88 CURVE SMOOTH",
"331 -149 OFFCURVE",
"378 -168 OFFCURVE",
"419 -168 CURVE SMOOTH",
"438 -168 OFFCURVE",
"457 -164 OFFCURVE",
"477 -156 CURVE",
"477 -107 LINE",
"458 -107 LINE SMOOTH",
"429 -107 OFFCURVE",
"418 -85 OFFCURVE",
"418 -62 CURVE SMOOTH",
"418 -37 OFFCURVE",
"434 -12 OFFCURVE",
"445 0 CURVE",
"445 101 LINE",
"166 101 LINE",
"166 260 LINE",
"400 260 LINE",
"400 361 LINE",
"166 361 LINE",
"166 506 LINE"
);
}
);
width = 484;
}
);
unicode = 0118;
},
{
glyphname = F;
layers = (
{
layerId = "3E4994DA-6C35-486D-9CDD-3005170E1289";
name = Bold;
paths = (
{
closed = 1;
nodes = (
"53 0 LINE",
"166 0 LINE",
"166 252 LINE",
"374 252 LINE",
"374 353 LINE",
"166 353 LINE",
"166 506 LINE",
"409 506 LINE",
"409 606 LINE",
"53 606 LINE"
);
}
);
width = 443;
}
);
unicode = 0046;
},
{
glyphname = G;
layers = (
{
anchors = (
{
name = bottom;
position = "{282, 0}";
},
{
name = top;
position = "{282, 606}";
}
);
layerId = "3E4994DA-6C35-486D-9CDD-3005170E1289";
name = Bold;
paths = (
{
closed = 1;
nodes = (
"124 617 OFFCURVE",
"30 517 OFFCURVE",
"30 303 CURVE SMOOTH",
"30 88 OFFCURVE",
"116 -11 OFFCURVE",
"264 -11 CURVE SMOOTH",
"328 -11 OFFCURVE",
"387 16 OFFCURVE",
"426 67 CURVE",
"446 0 LINE",
"519 0 LINE",
"519 330 LINE",
"267 330 LINE",
"267 232 LINE",
"451 232 LINE",
"403 275 LINE",
"403 232 LINE SMOOTH",
"403 143 OFFCURVE",
"354 87 OFFCURVE",
"285 87 CURVE SMOOTH",
"190 87 OFFCURVE",
"147 157 OFFCURVE",
"147 281 CURVE SMOOTH",
"147 325 LINE SMOOTH",
"147 446 OFFCURVE",
"189 520 OFFCURVE",
"284 520 CURVE SMOOTH",
"349 520 OFFCURVE",
"403 476 OFFCURVE",
"403 394 CURVE",
"519 394 LINE",
"519 539 OFFCURVE",
"409 617 OFFCURVE",
"287 617 CURVE SMOOTH"
);
}
);
width = 564;
}
);
unicode = 0047;
},
{
glyphname = Gbreve;
layers = (
{
layerId = "3E4994DA-6C35-486D-9CDD-3005170E1289";
name = Bold;
paths = (
{
closed = 1;
nodes = (
"335 781 LINE",
"333 768 OFFCURVE",
"312 751 OFFCURVE",
"282 751 CURVE SMOOTH",
"253 751 OFFCURVE",
"232 768 OFFCURVE",
"230 781 CURVE",
"164 781 LINE",
"164 736 OFFCURVE",
"210 686 OFFCURVE",
"282 686 CURVE SMOOTH",
"355 686 OFFCURVE",
"400 736 OFFCURVE",
"400 781 CURVE"
);
},
{
closed = 1;
nodes = (
"124 617 OFFCURVE",
"30 517 OFFCURVE",
"30 303 CURVE SMOOTH",
"30 88 OFFCURVE",
"116 -11 OFFCURVE",
"264 -11 CURVE SMOOTH",
"328 -11 OFFCURVE",
"387 16 OFFCURVE",
"426 67 CURVE",
"446 0 LINE",
"519 0 LINE",
"519 330 LINE",
"267 330 LINE",
"267 232 LINE",
"451 232 LINE",
"403 275 LINE",
"403 232 LINE SMOOTH",
"403 143 OFFCURVE",
"354 87 OFFCURVE",
"285 87 CURVE SMOOTH",
"190 87 OFFCURVE",
"147 157 OFFCURVE",
"147 281 CURVE SMOOTH",
"147 325 LINE SMOOTH",
"147 446 OFFCURVE",
"189 520 OFFCURVE",
"284 520 CURVE SMOOTH",
"349 520 OFFCURVE",
"403 476 OFFCURVE",
"403 394 CURVE",
"519 394 LINE",
"519 539 OFFCURVE",
"409 617 OFFCURVE",
"287 617 CURVE SMOOTH"
);
}
);
width = 564;
}
);
unicode = 011E;
},
{
glyphname = Gcircumflex;
layers = (
{
layerId = "3E4994DA-6C35-486D-9CDD-3005170E1289";
name = Bold;
paths = (
{
closed = 1;
nodes = (
"401 661 LINE",
"326 781 LINE",
"240 781 LINE",
"164 661 LINE",
"243 661 LINE",
"283 722 LINE",
"322 661 LINE"
);
},
{
closed = 1;
nodes = (
"124 617 OFFCURVE",
"30 517 OFFCURVE",
"30 303 CURVE SMOOTH",
"30 88 OFFCURVE",
"116 -11 OFFCURVE",
"264 -11 CURVE SMOOTH",
"328 -11 OFFCURVE",
"387 16 OFFCURVE",
"426 67 CURVE",
"446 0 LINE",
"519 0 LINE",
"519 330 LINE",
"267 330 LINE",
"267 232 LINE",
"451 232 LINE",
"403 275 LINE",
"403 232 LINE SMOOTH",
"403 143 OFFCURVE",
"354 87 OFFCURVE",
"285 87 CURVE SMOOTH",
"190 87 OFFCURVE",
"147 157 OFFCURVE",
"147 281 CURVE SMOOTH",
"147 325 LINE SMOOTH",
"147 446 OFFCURVE",
"189 520 OFFCURVE",
"284 520 CURVE SMOOTH",
"349 520 OFFCURVE",
"403 476 OFFCURVE",
"403 394 CURVE",
"519 394 LINE",
"519 539 OFFCURVE",
"409 617 OFFCURVE",
"287 617 CURVE SMOOTH"
);
}
);
width = 564;
}
);
unicode = 011C;
},
{
glyphname = Gcommaaccent;
layers = (
{
layerId = "3E4994DA-6C35-486D-9CDD-3005170E1289";
name = Bold;
paths = (
{
closed = 1;
nodes = (
"323 -148 LINE",
"323 -49 LINE",
"214 -49 LINE",
"214 -157 LINE",
"257 -157 LINE",
"225 -232 LINE",
"283 -232 LINE"
);
},
{
closed = 1;
nodes = (
"124 617 OFFCURVE",
"30 517 OFFCURVE",
"30 303 CURVE SMOOTH",
"30 88 OFFCURVE",
"116 -11 OFFCURVE",
"264 -11 CURVE SMOOTH",
"328 -11 OFFCURVE",
"387 16 OFFCURVE",
"426 67 CURVE",
"446 0 LINE",
"519 0 LINE",
"519 330 LINE",
"267 330 LINE",
"267 232 LINE",
"451 232 LINE",
"403 275 LINE",
"403 232 LINE SMOOTH",
"403 143 OFFCURVE",
"354 87 OFFCURVE",
"285 87 CURVE SMOOTH",
"190 87 OFFCURVE",
"147 157 OFFCURVE",
"147 281 CURVE SMOOTH",
"147 325 LINE SMOOTH",
"147 446 OFFCURVE",
"189 520 OFFCURVE",
"284 520 CURVE SMOOTH",
"349 520 OFFCURVE",
"403 476 OFFCURVE",
"403 394 CURVE",
"519 394 LINE",
"519 539 OFFCURVE",
"409 617 OFFCURVE",
"287 617 CURVE SMOOTH"
);
}
);
width = 564;
}
);
unicode = 0122;
},
{
glyphname = Gdotaccent;
layers = (
{
layerId = "3E4994DA-6C35-486D-9CDD-3005170E1289";
name = Bold;
paths = (
{
closed = 1;
nodes = (
"330 679 LINE",
"330 781 LINE",
"235 781 LINE",
"235 679 LINE"
);
},
{
closed = 1;
nodes = (
"124 617 OFFCURVE",
"30 517 OFFCURVE",
"30 303 CURVE SMOOTH",
"30 88 OFFCURVE",
"116 -11 OFFCURVE",
"264 -11 CURVE SMOOTH",
"328 -11 OFFCURVE",
"387 16 OFFCURVE",
"426 67 CURVE",
"446 0 LINE",
"519 0 LINE",
"519 330 LINE",
"267 330 LINE",
"267 232 LINE",
"451 232 LINE",
"403 275 LINE",
"403 232 LINE SMOOTH",
"403 143 OFFCURVE",
"354 87 OFFCURVE",
"285 87 CURVE SMOOTH",
"190 87 OFFCURVE",
"147 157 OFFCURVE",
"147 281 CURVE SMOOTH",
"147 325 LINE SMOOTH",
"147 446 OFFCURVE",
"189 520 OFFCURVE",
"284 520 CURVE SMOOTH",
"349 520 OFFCURVE",
"403 476 OFFCURVE",
"403 394 CURVE",
"519 394 LINE",
"519 539 OFFCURVE",
"409 617 OFFCURVE",
"287 617 CURVE SMOOTH"
);
}
);
width = 564;
}
);
unicode = 0120;
},
{
glyphname = H;
layers = (
{
anchors = (
{
name = center;
position = "{262, 303}";
},
{
name = top;
position = "{262, 606}";
}
);
layerId = "3E4994DA-6C35-486D-9CDD-3005170E1289";
name = Bold;
paths = (
{
closed = 1;
nodes = (
"470 606 LINE",
"357 606 LINE",
"357 361 LINE",
"166 361 LINE",
"166 606 LINE",
"53 606 LINE",
"53 0 LINE",
"166 0 LINE",
"166 260 LINE",
"357 260 LINE",
"357 0 LINE",
"470 0 LINE"
);
}
);
width = 523;
}
);
unicode = 0048;
},
{
glyphname = Hbar;
layers = (
{
layerId = "3E4994DA-6C35-486D-9CDD-3005170E1289";
name = Bold;
paths = (
{
closed = 1;
nodes = (
"514 433 LINE",
"514 510 LINE",
"470 510 LINE",
"470 606 LINE",
"357 606 LINE",
"357 510 LINE",
"166 510 LINE",
"166 606 LINE",
"53 606 LINE",
"53 510 LINE",
"9 510 LINE",
"9 433 LINE",
"53 433 LINE",
"53 0 LINE",
"166 0 LINE",
"166 254 LINE",
"357 254 LINE",
"357 0 LINE",
"470 0 LINE",
"470 433 LINE"
);
},
{
closed = 1;
nodes = (
"357 354 LINE",
"166 354 LINE",
"166 433 LINE",
"357 433 LINE"
);
}
);
width = 523;
}
);
unicode = 0126;
},
{
glyphname = Hcircumflex;
layers = (
{
layerId = "3E4994DA-6C35-486D-9CDD-3005170E1289";
name = Bold;
paths = (
{
closed = 1;
nodes = (
"470 606 LINE",
"357 606 LINE",
"357 361 LINE",
"166 361 LINE",
"166 606 LINE",
"53 606 LINE",
"53 0 LINE",
"166 0 LINE",
"166 260 LINE",
"357 260 LINE",
"357 0 LINE",
"470 0 LINE"
);
},
{
closed = 1;
nodes = (
"306 781 LINE",
"219 781 LINE",
"143 661 LINE",
"222 661 LINE",
"262 722 LINE",
"301 661 LINE",
"381 661 LINE"
);
}
);
width = 523;
}
);
unicode = 0124;
},
{
glyphname = I;
layers = (
{
anchors = (
{
name = ogonek;
position = "{181, 9}";
},
{
name = top;
position = "{101, 606}";
}
);
layerId = "3E4994DA-6C35-486D-9CDD-3005170E1289";
name = Bold;
paths = (
{
closed = 1;
nodes = (
"157 0 LINE",
"157 606 LINE",
"44 606 LINE",
"44 0 LINE"
);
}
);
width = 202;
}
);
unicode = 0049;
},
{
glyphname = IJ;
layers = (
{
layerId = "3E4994DA-6C35-486D-9CDD-3005170E1289";
name = Bold;
paths = (
{
closed = 1;
nodes = (
"552 606 LINE",
"438 606 LINE",
"438 153 LINE SMOOTH",
"438 110 OFFCURVE",
"419 87 OFFCURVE",
"381 87 CURVE SMOOTH",
"342 87 OFFCURVE",
"322 110 OFFCURVE",
"322 153 CURVE SMOOTH",
"322 191 LINE",
"210 191 LINE",
"210 144 LINE SMOOTH",
"210 43 OFFCURVE",
"271 -11 OFFCURVE",
"381 -11 CURVE SMOOTH",
"491 -11 OFFCURVE",
"552 43 OFFCURVE",
"552 144 CURVE SMOOTH"
);
},
{
closed = 1;
nodes = (
"157 606 LINE",
"44 606 LINE",
"44 0 LINE",
"157 0 LINE"
);
}
);
width = 605;
}
);
unicode = 0132;
},
{
glyphname = Iacute;
layers = (
{
layerId = "3E4994DA-6C35-486D-9CDD-3005170E1289";
name = Bold;
paths = (
{
closed = 1;
nodes = (
"157 606 LINE",
"44 606 LINE",
"44 0 LINE",
"157 0 LINE"
);
},
{
closed = 1;
nodes = (
"222 781 LINE",
"116 781 LINE",
"40 664 LINE",
"128 664 LINE",
"223 778 LINE"
);
}
);
width = 202;
}
);
unicode = 00CD;
},
{
glyphname = Ibreve;
layers = (
{
layerId = "3E4994DA-6C35-486D-9CDD-3005170E1289";
name = Bold;
paths = (
{
closed = 1;
nodes = (
"157 0 LINE",
"157 606 LINE",
"44 606 LINE",
"44 0 LINE"
);
},
{
closed = 1;
nodes = (
"154 781 LINE",
"152 768 OFFCURVE",
"131 751 OFFCURVE",
"101 751 CURVE SMOOTH",
"72 751 OFFCURVE",
"51 768 OFFCURVE",
"49 781 CURVE",
"-18 781 LINE",
"-18 736 OFFCURVE",
"28 686 OFFCURVE",
"101 686 CURVE SMOOTH",
"174 686 OFFCURVE",
"219 736 OFFCURVE",
"219 781 CURVE"
);
}
);
width = 202;
}
);
unicode = 012C;
},
{
glyphname = Icircumflex;
layers = (
{
layerId = "3E4994DA-6C35-486D-9CDD-3005170E1289";
name = Bold;
paths = (
{
closed = 1;
nodes = (
"157 0 LINE",
"157 606 LINE",
"44 606 LINE",
"44 0 LINE"
);
},
{
closed = 1;
nodes = (
"220 661 LINE",
"145 781 LINE",
"58 781 LINE",
"-19 661 LINE",
"62 661 LINE",
"102 722 LINE",
"141 661 LINE"
);
}
);
width = 202;
}
);
unicode = 00CE;
},
{
glyphname = Idieresis;
layers = (
{
layerId = "3E4994DA-6C35-486D-9CDD-3005170E1289";
name = Bold;
paths = (
{
closed = 1;
nodes = (
"157 606 LINE",
"44 606 LINE",
"44 0 LINE",
"157 0 LINE"
);
},
{
closed = 1;
nodes = (
"68 781 LINE",
"-20 781 LINE",
"-20 684 LINE",
"68 684 LINE"
);
},
{
closed = 1;
nodes = (
"223 781 LINE",
"134 781 LINE",
"134 684 LINE",
"223 684 LINE"
);
}
);
width = 202;
}
);
unicode = 00CF;
},
{
glyphname = Idotaccent;
layers = (
{
layerId = "3E4994DA-6C35-486D-9CDD-3005170E1289";
name = Bold;
paths = (
{
closed = 1;
nodes = (
"157 0 LINE",
"157 606 LINE",
"44 606 LINE",
"44 0 LINE"
);
},
{
closed = 1;
nodes = (
"149 679 LINE",
"149 781 LINE",
"54 781 LINE",
"54 679 LINE"
);
}
);
width = 202;
}
);
unicode = 0130;
},
{
glyphname = Igrave;
layers = (
{
layerId = "3E4994DA-6C35-486D-9CDD-3005170E1289";
name = Bold;
paths = (
{
closed = 1;
nodes = (
"157 606 LINE",
"44 606 LINE",
"44 0 LINE",
"157 0 LINE"
);
},
{
closed = 1;
nodes = (
"86 781 LINE",
"-20 781 LINE",
"-21 778 LINE",
"74 664 LINE",
"162 664 LINE"
);
}
);
width = 202;
}
);
unicode = 00CC;
},
{
glyphname = Imacron;
layers = (
{
layerId = "3E4994DA-6C35-486D-9CDD-3005170E1289";
name = Bold;
paths = (
{
closed = 1;
nodes = (
"157 0 LINE",
"157 606 LINE",
"44 606 LINE",
"44 0 LINE"
);
},
{
closed = 1;
nodes = (
"214 671 LINE",
"214 748 LINE",
"-12 748 LINE",
"-12 671 LINE"
);
}
);
width = 202;
}
);
unicode = 012A;
},
{
glyphname = Iogonek;
layers = (
{
layerId = "3E4994DA-6C35-486D-9CDD-3005170E1289";
name = Bold;
paths = (
{
closed = 1;
nodes = (
"157 606 LINE",
"44 606 LINE",
"44 0 LINE",
"83 0 LINE",
"62 -22 OFFCURVE",
"44 -47 OFFCURVE",
"44 -88 CURVE SMOOTH",
"44 -149 OFFCURVE",
"92 -168 OFFCURVE",
"132 -168 CURVE SMOOTH",
"151 -168 OFFCURVE",
"170 -164 OFFCURVE",
"190 -156 CURVE",
"190 -107 LINE",
"171 -107 LINE SMOOTH",
"141 -107 OFFCURVE",
"131 -85 OFFCURVE",
"131 -62 CURVE SMOOTH",
"131 -37 OFFCURVE",
"148 -12 OFFCURVE",
"157 0 CURVE"
);
}
);
width = 202;
}
);
unicode = 012E;
},
{
glyphname = Itilde;
layers = (
{
layerId = "3E4994DA-6C35-486D-9CDD-3005170E1289";
name = Bold;
paths = (
{
closed = 1;
nodes = (
"157 0 LINE",
"157 606 LINE",
"44 606 LINE",
"44 0 LINE"
);
},
{
closed = 1;
nodes = (
"191 781 LINE",
"187 756 OFFCURVE",
"176 748 OFFCURVE",
"157 748 CURVE SMOOTH",
"117 748 OFFCURVE",
"83 781 OFFCURVE",
"39 781 CURVE SMOOTH",
"-23 781 OFFCURVE",
"-48 721 OFFCURVE",
"-48 673 CURVE",
"11 673 LINE",
"15 697 OFFCURVE",
"27 705 OFFCURVE",
"46 705 CURVE SMOOTH",
"86 705 OFFCURVE",
"120 673 OFFCURVE",
"163 673 CURVE SMOOTH",
"225 673 OFFCURVE",
"250 732 OFFCURVE",
"250 781 CURVE"
);
}
);
width = 202;
}
);
unicode = 0128;
},
{
glyphname = J;
layers = (
{
anchors = (
{
name = top;
position = "{202, 606}";
}
);
layerId = "3E4994DA-6C35-486D-9CDD-3005170E1289";
name = Bold;
paths = (
{
closed = 1;
nodes = (
"350 606 LINE",
"237 606 LINE",
"237 153 LINE SMOOTH",
"237 110 OFFCURVE",
"217 87 OFFCURVE",
"179 87 CURVE SMOOTH",
"141 87 OFFCURVE",
"120 110 OFFCURVE",
"120 153 CURVE SMOOTH",
"120 191 LINE",
"8 191 LINE",
"8 144 LINE SMOOTH",
"8 43 OFFCURVE",
"70 -11 OFFCURVE",
"179 -11 CURVE SMOOTH",
"289 -11 OFFCURVE",
"350 43 OFFCURVE",
"350 144 CURVE SMOOTH"
);
}
);
width = 403;
}
);
unicode = 004A;
},
{
glyphname = Jcircumflex;
layers = (
{
layerId = "3E4994DA-6C35-486D-9CDD-3005170E1289";
name = Bold;
paths = (
{
closed = 1;
nodes = (
"350 606 LINE",
"237 606 LINE",
"237 153 LINE SMOOTH",
"237 110 OFFCURVE",
"217 87 OFFCURVE",
"179 87 CURVE SMOOTH",
"141 87 OFFCURVE",
"120 110 OFFCURVE",
"120 153 CURVE SMOOTH",
"120 191 LINE",
"8 191 LINE",
"8 144 LINE SMOOTH",
"8 43 OFFCURVE",
"70 -11 OFFCURVE",
"179 -11 CURVE SMOOTH",
"289 -11 OFFCURVE",
"350 43 OFFCURVE",
"350 144 CURVE SMOOTH"
);
},
{
closed = 1;
nodes = (
"349 781 LINE",
"262 781 LINE",
"186 661 LINE",
"265 661 LINE",
"305 722 LINE",
"345 661 LINE",
"423 661 LINE"
);
}
);
width = 403;
}
);
unicode = 0134;
},
{
glyphname = K;
layers = (
{
anchors = (
{
name = bottom;
position = "{262, 0}";
},
{
name = top;
position = "{262, 606}";
}
);
layerId = "3E4994DA-6C35-486D-9CDD-3005170E1289";
name = Bold;
paths = (
{
closed = 1;
nodes = (
"167 296 LINE",
"167 606 LINE",
"53 606 LINE",
"53 0 LINE",
"167 0 LINE",
"167 155 LINE",
"262 271 LINE",
"393 0 LINE",
"521 0 LINE",
"336 360 LINE",
"515 606 LINE",
"389 606 LINE"
);
}
);
width = 523;
}
);
unicode = 004B;
},
{
glyphname = Kcommaaccent;
layers = (
{
layerId = "3E4994DA-6C35-486D-9CDD-3005170E1289";
name = Bold;
paths = (
{
closed = 1;
nodes = (
"316 -148 LINE",
"316 -49 LINE",
"207 -49 LINE",
"207 -157 LINE",
"250 -157 LINE",
"219 -232 LINE",
"276 -232 LINE"
);
},
{
closed = 1;
nodes = (
"167 296 LINE",
"167 606 LINE",
"53 606 LINE",
"53 0 LINE",
"167 0 LINE",
"167 155 LINE",
"262 271 LINE",
"393 0 LINE",
"521 0 LINE",
"336 360 LINE",
"515 606 LINE",
"389 606 LINE"
);
}
);
width = 523;
}
);
unicode = 0136;
},
{
glyphname = L;
layers = (
{
anchors = (
{
name = bottom;
position = "{222, 0}";
},
{
name = top;
position = "{222, 606}";
}
);
layerId = "3E4994DA-6C35-486D-9CDD-3005170E1289";
name = Bold;
paths = (
{
closed = 1;
nodes = (
"166 606 LINE",
"53 606 LINE",
"53 0 LINE",
"423 0 LINE",
"423 106 LINE",
"166 106 LINE"
);
}
);
width = 443;
}
);
unicode = 004C;
},
{
glyphname = Lacute;
layers = (
{
layerId = "3E4994DA-6C35-486D-9CDD-3005170E1289";
name = Bold;
paths = (
{
closed = 1;
nodes = (
"166 606 LINE",
"53 606 LINE",
"53 0 LINE",
"423 0 LINE",
"423 106 LINE",
"166 106 LINE"
);
},
{
closed = 1;
nodes = (
"233 781 LINE",
"127 781 LINE",
"51 664 LINE",
"139 664 LINE",
"234 778 LINE"
);
}
);
width = 443;
}
);
unicode = 0139;
},
{
glyphname = Lcaron;
layers = (
{
layerId = "3E4994DA-6C35-486D-9CDD-3005170E1289";
name = Bold;
paths = (
{
closed = 1;
nodes = (
"166 606 LINE",
"53 606 LINE",
"53 0 LINE",
"423 0 LINE",
"423 106 LINE",
"166 106 LINE"
);
},
{
closed = 1;
nodes = (
"423 606 LINE",
"301 606 LINE",
"301 485 LINE",
"349 485 LINE",
"301 347 LINE",
"364 347 LINE",
"423 496 LINE"
);
}
);
width = 443;
}
);
unicode = 013D;
},
{
glyphname = Lcommaaccent;
layers = (
{
layerId = "3E4994DA-6C35-486D-9CDD-3005170E1289";
name = Bold;
paths = (
{
closed = 1;
nodes = (
"166 606 LINE",
"53 606 LINE",
"53 0 LINE",
"423 0 LINE",
"423 106 LINE",
"166 106 LINE"
);
},
{
closed = 1;
nodes = (
"276 -49 LINE",
"167 -49 LINE",
"167 -157 LINE",
"210 -157 LINE",
"179 -232 LINE",
"236 -232 LINE",
"276 -148 LINE"
);
}
);
width = 443;
}
);
unicode = 013B;
},
{
glyphname = Ldot;
layers = (
{
layerId = "3E4994DA-6C35-486D-9CDD-3005170E1289";
name = Bold;
paths = (
{
closed = 1;
nodes = (
"166 606 LINE",
"53 606 LINE",
"53 0 LINE",
"423 0 LINE",
"423 106 LINE",
"166 106 LINE"
);
},
{
closed = 1;
nodes = (
"371 463 LINE",
"277 463 LINE",
"277 362 LINE",
"371 362 LINE"
);
}
);
width = 443;
}
);
unicode = 013F;
},
{
glyphname = Lslash;
layers = (
{
layerId = "3E4994DA-6C35-486D-9CDD-3005170E1289";
name = Bold;
paths = (
{
closed = 1;
nodes = (
"166 606 LINE",
"53 606 LINE",
"53 293 LINE",
"0 247 LINE",
"0 163 LINE",
"53 210 LINE",
"53 0 LINE",
"423 0 LINE",
"423 106 LINE",
"166 106 LINE",
"166 309 LINE",
"269 400 LINE",
"269 486 LINE",
"166 394 LINE"
);
}
);
width = 443;
}
);
unicode = 0141;
},
{
glyphname = M;
layers = (
{
layerId = "3E4994DA-6C35-486D-9CDD-3005170E1289";
name = Bold;
paths = (
{
closed = 1;
nodes = (
"557 606 LINE",
"403 606 LINE",
"329 272 LINE SMOOTH",
"321 237 OFFCURVE",
"309 135 OFFCURVE",
"309 135 CURVE SMOOTH",
"305 135 LINE SMOOTH",
"305 135 OFFCURVE",
"290 232 OFFCURVE",
"281 272 CURVE SMOOTH",
"206 606 LINE",
"47 606 LINE",
"47 0 LINE",
"143 0 LINE",
"143 386 LINE SMOOTH",
"143 410 OFFCURVE",
"139 484 OFFCURVE",
"139 484 CURVE",
"142 484 LINE",
"149 452 OFFCURVE",
"156 421 OFFCURVE",
"164 389 CURVE SMOOTH",
"249 0 LINE",
"347 0 LINE",
"438 415 LINE SMOOTH",
"444 438 OFFCURVE",
"448 461 OFFCURVE",
"453 484 CURVE",
"457 484 LINE",
"457 484 OFFCURVE",
"453 414 OFFCURVE",
"453 386 CURVE SMOOTH",
"453 0 LINE",
"557 0 LINE"
);
}
);
width = 604;
}
);
unicode = 004D;
},
{
glyphname = N;
layers = (
{
anchors = (
{
name = bottom;
position = "{262, 0}";
},
{
name = top;
position = "{262, 606}";
}
);
layerId = "3E4994DA-6C35-486D-9CDD-3005170E1289";
name = Bold;
paths = (
{
closed = 1;
nodes = (
"470 606 LINE",
"370 606 LINE",
"370 269 LINE SMOOTH",
"370 259 OFFCURVE",
"370 218 OFFCURVE",
"370 218 CURVE",
"368 216 LINE",
"368 216 OFFCURVE",
"350 257 OFFCURVE",
"340 272 CURVE SMOOTH",
"153 606 LINE",
"53 606 LINE",
"53 0 LINE",
"153 0 LINE",
"153 338 LINE SMOOTH",
"153 354 OFFCURVE",
"151 388 OFFCURVE",
"151 388 CURVE",
"155 391 LINE",
"155 391 OFFCURVE",
"175 347 OFFCURVE",
"182 334 CURVE SMOOTH",
"370 0 LINE",
"470 0 LINE"
);
}
);
width = 523;
}
);
unicode = 004E;
},
{
glyphname = Nacute;
layers = (
{
layerId = "3E4994DA-6C35-486D-9CDD-3005170E1289";
name = Bold;
paths = (
{
closed = 1;
nodes = (
"470 606 LINE",
"370 606 LINE",
"370 269 LINE SMOOTH",
"370 259 OFFCURVE",
"370 218 OFFCURVE",
"370 218 CURVE",
"368 216 LINE",
"368 216 OFFCURVE",
"350 257 OFFCURVE",
"340 272 CURVE SMOOTH",
"153 606 LINE",
"53 606 LINE",
"53 0 LINE",
"153 0 LINE",
"153 338 LINE SMOOTH",
"153 354 OFFCURVE",
"151 388 OFFCURVE",
"151 388 CURVE",
"155 391 LINE",
"155 391 OFFCURVE",
"175 347 OFFCURVE",
"182 334 CURVE SMOOTH",
"370 0 LINE",
"470 0 LINE"
);
},
{
closed = 1;
nodes = (
"383 781 LINE",
"277 781 LINE",
"201 664 LINE",
"288 664 LINE",
"384 778 LINE"
);
}
);
width = 523;
}
);
unicode = 0143;
},
{
glyphname = Ncaron;
layers = (
{
layerId = "3E4994DA-6C35-486D-9CDD-3005170E1289";
name = Bold;
paths = (
{
closed = 1;
nodes = (
"470 606 LINE",
"370 606 LINE",
"370 269 LINE SMOOTH",
"370 259 OFFCURVE",
"370 218 OFFCURVE",
"370 218 CURVE",
"368 216 LINE",
"368 216 OFFCURVE",
"350 257 OFFCURVE",
"340 272 CURVE SMOOTH",
"153 606 LINE",
"53 606 LINE",
"53 0 LINE",
"153 0 LINE",
"153 338 LINE SMOOTH",
"153 354 OFFCURVE",
"151 388 OFFCURVE",
"151 388 CURVE",
"155 391 LINE",
"155 391 OFFCURVE",
"175 347 OFFCURVE",
"182 334 CURVE SMOOTH",
"370 0 LINE",
"470 0 LINE"
);
},
{
closed = 1;
nodes = (
"381 781 LINE",
"301 781 LINE",
"262 720 LINE",
"222 781 LINE",
"143 781 LINE",
"219 661 LINE",
"306 661 LINE"
);
}
);
width = 523;
}
);
unicode = 0147;
},
{
glyphname = Ncommaaccent;
layers = (
{
layerId = "3E4994DA-6C35-486D-9CDD-3005170E1289";
name = Bold;
paths = (
{
closed = 1;
nodes = (
"470 606 LINE",
"370 606 LINE",
"370 269 LINE SMOOTH",
"370 259 OFFCURVE",
"370 218 OFFCURVE",
"370 218 CURVE",
"368 216 LINE",
"368 216 OFFCURVE",
"350 257 OFFCURVE",
"340 272 CURVE SMOOTH",
"153 606 LINE",
"53 606 LINE",
"53 0 LINE",
"153 0 LINE",
"153 338 LINE SMOOTH",
"153 354 OFFCURVE",
"151 388 OFFCURVE",
"151 388 CURVE",
"155 391 LINE",
"155 391 OFFCURVE",
"175 347 OFFCURVE",
"182 334 CURVE SMOOTH",
"370 0 LINE",
"470 0 LINE"
);
},
{
closed = 1;
nodes = (
"316 -49 LINE",
"207 -49 LINE",
"207 -157 LINE",
"250 -157 LINE",
"219 -232 LINE",
"276 -232 LINE",
"316 -148 LINE"
);
}
);
width = 523;
}
);
unicode = 0145;
},
{
glyphname = Eng;
layers = (
{
layerId = "3E4994DA-6C35-486D-9CDD-3005170E1289";
name = Bold;
paths = (
{
closed = 1;
nodes = (
"470 606 LINE",
"370 606 LINE",
"370 269 LINE SMOOTH",
"370 259 OFFCURVE",
"370 218 OFFCURVE",
"370 218 CURVE",
"368 216 LINE",
"368 216 OFFCURVE",
"350 257 OFFCURVE",
"340 272 CURVE SMOOTH",
"153 606 LINE",
"53 606 LINE",
"53 0 LINE",
"153 0 LINE",
"153 338 LINE SMOOTH",
"153 354 OFFCURVE",
"151 388 OFFCURVE",
"151 388 CURVE",
"155 391 LINE",
"155 391 OFFCURVE",
"175 347 OFFCURVE",
"182 334 CURVE SMOOTH",
"367 0 LINE",
"367 -29 LINE SMOOTH",
"367 -57 OFFCURVE",
"353 -72 OFFCURVE",
"325 -72 CURVE SMOOTH",
"286 -72 LINE",
"286 -150 LINE",
"304 -156 OFFCURVE",
"336 -161 OFFCURVE",
"362 -161 CURVE SMOOTH",
"447 -161 OFFCURVE",
"470 -98 OFFCURVE",
"470 -36 CURVE SMOOTH"
);
}
);
width = 524;
}
);
unicode = 014A;
},
{
glyphname = Ntilde;
layers = (
{
layerId = "3E4994DA-6C35-486D-9CDD-3005170E1289";
name = Bold;
paths = (
{
closed = 1;
nodes = (
"470 606 LINE",
"370 606 LINE",
"370 269 LINE SMOOTH",
"370 259 OFFCURVE",
"370 218 OFFCURVE",
"370 218 CURVE",
"368 216 LINE",
"368 216 OFFCURVE",
"350 257 OFFCURVE",
"340 272 CURVE SMOOTH",
"153 606 LINE",
"53 606 LINE",
"53 0 LINE",
"153 0 LINE",
"153 338 LINE SMOOTH",
"153 354 OFFCURVE",
"151 388 OFFCURVE",
"151 388 CURVE",
"155 391 LINE",
"155 391 OFFCURVE",
"175 347 OFFCURVE",
"182 334 CURVE SMOOTH",
"370 0 LINE",
"470 0 LINE"
);
},
{
closed = 1;
nodes = (
"352 781 LINE",
"348 756 OFFCURVE",
"336 748 OFFCURVE",
"317 748 CURVE SMOOTH",
"278 748 OFFCURVE",
"243 781 OFFCURVE",
"200 781 CURVE SMOOTH",
"138 781 OFFCURVE",
"113 721 OFFCURVE",
"113 673 CURVE",
"171 673 LINE",
"175 697 OFFCURVE",
"187 705 OFFCURVE",
"206 705 CURVE SMOOTH",
"246 705 OFFCURVE",
"280 673 OFFCURVE",
"323 673 CURVE SMOOTH",
"385 673 OFFCURVE",
"410 732 OFFCURVE",
"410 781 CURVE"
);
}
);
width = 523;
}
);
unicode = 00D1;
},
{
glyphname = O;
layers = (
{
anchors = (
{
name = top;
position = "{282, 606}";
}
);
layerId = "3E4994DA-6C35-486D-9CDD-3005170E1289";
name = Bold;
paths = (
{
closed = 1;
nodes = (
"126 617 OFFCURVE",
"30 517 OFFCURVE",
"30 303 CURVE SMOOTH",
"30 89 OFFCURVE",
"126 -11 OFFCURVE",
"282 -11 CURVE SMOOTH",
"438 -11 OFFCURVE",
"534 89 OFFCURVE",
"534 303 CURVE SMOOTH",
"534 517 OFFCURVE",
"438 617 OFFCURVE",
"282 617 CURVE SMOOTH"
);
},
{
closed = 1;
nodes = (
"372 520 OFFCURVE",
"417 446 OFFCURVE",
"417 325 CURVE SMOOTH",
"417 281 LINE SMOOTH",
"417 160 OFFCURVE",
"372 87 OFFCURVE",
"282 87 CURVE SMOOTH",
"192 87 OFFCURVE",
"147 160 OFFCURVE",
"147 281 CURVE SMOOTH",
"147 325 LINE SMOOTH",
"147 446 OFFCURVE",
"192 520 OFFCURVE",
"282 520 CURVE SMOOTH"
);
}
);
width = 564;
}
);
unicode = 004F;
},
{
glyphname = Oacute;
layers = (
{
layerId = "3E4994DA-6C35-486D-9CDD-3005170E1289";
name = Bold;
paths = (
{
closed = 1;
nodes = (
"126 617 OFFCURVE",
"30 517 OFFCURVE",
"30 303 CURVE SMOOTH",
"30 89 OFFCURVE",
"126 -11 OFFCURVE",
"282 -11 CURVE SMOOTH",
"438 -11 OFFCURVE",
"534 89 OFFCURVE",
"534 303 CURVE SMOOTH",
"534 517 OFFCURVE",
"438 617 OFFCURVE",
"282 617 CURVE SMOOTH"
);
},
{
closed = 1;
nodes = (
"372 520 OFFCURVE",
"417 446 OFFCURVE",
"417 325 CURVE SMOOTH",
"417 281 LINE SMOOTH",
"417 160 OFFCURVE",
"372 87 OFFCURVE",
"282 87 CURVE SMOOTH",
"192 87 OFFCURVE",
"147 160 OFFCURVE",
"147 281 CURVE SMOOTH",
"147 325 LINE SMOOTH",
"147 446 OFFCURVE",
"192 520 OFFCURVE",
"282 520 CURVE SMOOTH"
);
},
{
closed = 1;
nodes = (
"404 781 LINE",
"297 781 LINE",
"221 664 LINE",
"309 664 LINE",
"405 778 LINE"
);
}
);
width = 564;
}
);
unicode = 00D3;
},
{
glyphname = Obreve;
layers = (
{
layerId = "3E4994DA-6C35-486D-9CDD-3005170E1289";
name = Bold;
paths = (
{
closed = 1;
nodes = (
"126 617 OFFCURVE",
"30 517 OFFCURVE",
"30 303 CURVE SMOOTH",
"30 89 OFFCURVE",
"126 -11 OFFCURVE",
"282 -11 CURVE SMOOTH",
"438 -11 OFFCURVE",
"534 89 OFFCURVE",
"534 303 CURVE SMOOTH",
"534 517 OFFCURVE",
"438 617 OFFCURVE",
"282 617 CURVE SMOOTH"
);
},
{
closed = 1;
nodes = (
"372 520 OFFCURVE",
"417 446 OFFCURVE",
"417 325 CURVE SMOOTH",
"417 281 LINE SMOOTH",
"417 160 OFFCURVE",
"372 87 OFFCURVE",
"282 87 CURVE SMOOTH",
"192 87 OFFCURVE",
"147 160 OFFCURVE",
"147 281 CURVE SMOOTH",
"147 325 LINE SMOOTH",
"147 446 OFFCURVE",
"192 520 OFFCURVE",
"282 520 CURVE SMOOTH"
);
},
{
closed = 1;
nodes = (
"335 781 LINE",
"333 768 OFFCURVE",
"312 751 OFFCURVE",
"282 751 CURVE SMOOTH",
"253 751 OFFCURVE",
"232 768 OFFCURVE",
"230 781 CURVE",
"164 781 LINE",
"164 736 OFFCURVE",
"210 686 OFFCURVE",
"282 686 CURVE SMOOTH",
"355 686 OFFCURVE",
"400 736 OFFCURVE",
"400 781 CURVE"
);
}
);
width = 564;
}
);
unicode = 014E;
},
{
glyphname = Ocircumflex;
layers = (
{
layerId = "3E4994DA-6C35-486D-9CDD-3005170E1289";
name = Bold;
paths = (
{
closed = 1;
nodes = (
"126 617 OFFCURVE",
"30 517 OFFCURVE",
"30 303 CURVE SMOOTH",
"30 89 OFFCURVE",
"126 -11 OFFCURVE",
"282 -11 CURVE SMOOTH",
"438 -11 OFFCURVE",
"534 89 OFFCURVE",
"534 303 CURVE SMOOTH",
"534 517 OFFCURVE",
"438 617 OFFCURVE",
"282 617 CURVE SMOOTH"
);
},
{
closed = 1;
nodes = (
"372 520 OFFCURVE",
"417 446 OFFCURVE",
"417 325 CURVE SMOOTH",
"417 281 LINE SMOOTH",
"417 160 OFFCURVE",
"372 87 OFFCURVE",
"282 87 CURVE SMOOTH",
"192 87 OFFCURVE",
"147 160 OFFCURVE",
"147 281 CURVE SMOOTH",
"147 325 LINE SMOOTH",
"147 446 OFFCURVE",
"192 520 OFFCURVE",
"282 520 CURVE SMOOTH"
);
},
{
closed = 1;
nodes = (
"401 661 LINE",
"326 781 LINE",
"240 781 LINE",
"164 661 LINE",
"243 661 LINE",
"283 722 LINE",
"322 661 LINE"
);
}
);
width = 564;
}
);
unicode = 00D4;
},
{
glyphname = Odieresis;
layers = (
{
layerId = "3E4994DA-6C35-486D-9CDD-3005170E1289";
name = Bold;
paths = (
{
closed = 1;
nodes = (
"126 617 OFFCURVE",
"30 517 OFFCURVE",
"30 303 CURVE SMOOTH",
"30 89 OFFCURVE",
"126 -11 OFFCURVE",
"282 -11 CURVE SMOOTH",
"438 -11 OFFCURVE",
"534 89 OFFCURVE",
"534 303 CURVE SMOOTH",
"534 517 OFFCURVE",
"438 617 OFFCURVE",
"282 617 CURVE SMOOTH"
);
},
{
closed = 1;
nodes = (
"372 520 OFFCURVE",
"417 446 OFFCURVE",
"417 325 CURVE SMOOTH",
"417 281 LINE SMOOTH",
"417 160 OFFCURVE",
"372 87 OFFCURVE",
"282 87 CURVE SMOOTH",
"192 87 OFFCURVE",
"147 160 OFFCURVE",
"147 281 CURVE SMOOTH",
"147 325 LINE SMOOTH",
"147 446 OFFCURVE",
"192 520 OFFCURVE",
"282 520 CURVE SMOOTH"
);
},
{
closed = 1;
nodes = (
"249 781 LINE",
"161 781 LINE",
"161 684 LINE",
"249 684 LINE"
);
},
{
closed = 1;
nodes = (
"404 781 LINE",
"316 781 LINE",
"316 684 LINE",
"404 684 LINE"
);
}
);
width = 564;
}
);
unicode = 00D6;
},
{
glyphname = Ograve;
layers = (
{
layerId = "3E4994DA-6C35-486D-9CDD-3005170E1289";
name = Bold;
paths = (
{
closed = 1;
nodes = (
"126 617 OFFCURVE",
"30 517 OFFCURVE",
"30 303 CURVE SMOOTH",
"30 89 OFFCURVE",
"126 -11 OFFCURVE",
"282 -11 CURVE SMOOTH",
"438 -11 OFFCURVE",
"534 89 OFFCURVE",
"534 303 CURVE SMOOTH",
"534 517 OFFCURVE",
"438 617 OFFCURVE",
"282 617 CURVE SMOOTH"
);
},
{
closed = 1;
nodes = (
"372 520 OFFCURVE",
"417 446 OFFCURVE",
"417 325 CURVE SMOOTH",
"417 281 LINE SMOOTH",
"417 160 OFFCURVE",
"372 87 OFFCURVE",
"282 87 CURVE SMOOTH",
"192 87 OFFCURVE",
"147 160 OFFCURVE",
"147 281 CURVE SMOOTH",
"147 325 LINE SMOOTH",
"147 446 OFFCURVE",
"192 520 OFFCURVE",
"282 520 CURVE SMOOTH"
);
},
{
closed = 1;
nodes = (
"267 781 LINE",
"161 781 LINE",
"160 778 LINE",
"255 664 LINE",
"343 664 LINE"
);
}
);
width = 564;
}
);
unicode = 00D2;
},
{
glyphname = Ohungarumlaut;
layers = (
{
layerId = "3E4994DA-6C35-486D-9CDD-3005170E1289";
name = Bold;
paths = (
{
closed = 1;
nodes = (
"126 617 OFFCURVE",
"30 517 OFFCURVE",
"30 303 CURVE SMOOTH",
"30 89 OFFCURVE",
"126 -11 OFFCURVE",
"282 -11 CURVE SMOOTH",
"438 -11 OFFCURVE",
"534 89 OFFCURVE",
"534 303 CURVE SMOOTH",
"534 517 OFFCURVE",
"438 617 OFFCURVE",
"282 617 CURVE SMOOTH"
);
},
{
closed = 1;
nodes = (
"372 520 OFFCURVE",
"417 446 OFFCURVE",
"417 325 CURVE SMOOTH",
"417 281 LINE SMOOTH",
"417 160 OFFCURVE",
"372 87 OFFCURVE",
"282 87 CURVE SMOOTH",
"192 87 OFFCURVE",
"147 160 OFFCURVE",
"147 281 CURVE SMOOTH",
"147 325 LINE SMOOTH",
"147 446 OFFCURVE",
"192 520 OFFCURVE",
"282 520 CURVE SMOOTH"
);
},
{
closed = 1;
nodes = (
"326 781 LINE",
"238 781 LINE",
"183 664 LINE",
"253 664 LINE",
"327 778 LINE"
);
},
{
closed = 1;
nodes = (
"450 781 LINE",
"362 781 LINE",
"307 664 LINE",
"377 664 LINE",
"451 778 LINE"
);
}
);
width = 564;
}
);
unicode = 0150;
},
{
glyphname = Omacron;
layers = (
{
layerId = "3E4994DA-6C35-486D-9CDD-3005170E1289";
name = Bold;
paths = (
{
closed = 1;
nodes = (
"126 617 OFFCURVE",
"30 517 OFFCURVE",
"30 303 CURVE SMOOTH",
"30 89 OFFCURVE",
"126 -11 OFFCURVE",
"282 -11 CURVE SMOOTH",
"438 -11 OFFCURVE",
"534 89 OFFCURVE",
"534 303 CURVE SMOOTH",
"534 517 OFFCURVE",
"438 617 OFFCURVE",
"282 617 CURVE SMOOTH"
);
},
{
closed = 1;
nodes = (
"372 520 OFFCURVE",
"417 446 OFFCURVE",
"417 325 CURVE SMOOTH",
"417 281 LINE SMOOTH",
"417 160 OFFCURVE",
"372 87 OFFCURVE",
"282 87 CURVE SMOOTH",
"192 87 OFFCURVE",
"147 160 OFFCURVE",
"147 281 CURVE SMOOTH",
"147 325 LINE SMOOTH",
"147 446 OFFCURVE",
"192 520 OFFCURVE",
"282 520 CURVE SMOOTH"
);
},
{
closed = 1;
nodes = (
"395 671 LINE",
"395 748 LINE",
"170 748 LINE",
"170 671 LINE"
);
}
);
width = 564;
}
);
unicode = 014C;
},
{
glyphname = Oslash;
layers = (
{
anchors = (
{
name = top;
position = "{282, 606}";
}
);
layerId = "3E4994DA-6C35-486D-9CDD-3005170E1289";
name = Bold;
paths = (
{
closed = 1;
nodes = (
"530 639 LINE",
"455 639 LINE",
"419 582 LINE",
"381 606 OFFCURVE",
"335 617 OFFCURVE",
"282 617 CURVE SMOOTH",
"126 617 OFFCURVE",
"30 517 OFFCURVE",
"30 303 CURVE SMOOTH",
"30 196 OFFCURVE",
"54 118 OFFCURVE",
"97 66 CURVE",
"35 -33 LINE",
"110 -33 LINE",
"145 24 LINE",
"183 1 OFFCURVE",
"229 -11 OFFCURVE",
"282 -11 CURVE SMOOTH",
"438 -11 OFFCURVE",
"534 89 OFFCURVE",
"534 303 CURVE SMOOTH",
"534 409 OFFCURVE",
"510 488 OFFCURVE",
"467 539 CURVE"
);
},
{
closed = 1;
nodes = (
"400 433 LINE",
"412 404 OFFCURVE",
"417 367 OFFCURVE",
"417 325 CURVE SMOOTH",
"417 281 LINE SMOOTH",
"417 160 OFFCURVE",
"372 87 OFFCURVE",
"282 87 CURVE SMOOTH",
"249 87 OFFCURVE",
"222 96 OFFCURVE",
"202 114 CURVE"
);
},
{
closed = 1;
nodes = (
"315 520 OFFCURVE",
"342 510 OFFCURVE",
"362 492 CURVE",
"163 171 LINE",
"152 202 OFFCURVE",
"147 239 OFFCURVE",
"147 281 CURVE SMOOTH",
"147 325 LINE SMOOTH",
"147 446 OFFCURVE",
"192 520 OFFCURVE",
"282 520 CURVE SMOOTH"
);
}
);
width = 564;
}
);
unicode = 00D8;
},
{
glyphname = Oslashacute;
layers = (
{
layerId = "3E4994DA-6C35-486D-9CDD-3005170E1289";
name = Bold;
paths = (
{
closed = 1;
nodes = (
"530 639 LINE",
"455 639 LINE",
"419 582 LINE",
"381 606 OFFCURVE",
"335 617 OFFCURVE",
"282 617 CURVE SMOOTH",
"126 617 OFFCURVE",
"30 517 OFFCURVE",
"30 303 CURVE SMOOTH",
"30 196 OFFCURVE",
"54 118 OFFCURVE",
"97 66 CURVE",
"35 -33 LINE",
"110 -33 LINE",
"145 24 LINE",
"183 1 OFFCURVE",
"229 -11 OFFCURVE",
"282 -11 CURVE SMOOTH",
"438 -11 OFFCURVE",
"534 89 OFFCURVE",
"534 303 CURVE SMOOTH",
"534 409 OFFCURVE",
"510 488 OFFCURVE",
"467 539 CURVE"
);
},
{
closed = 1;
nodes = (
"400 433 LINE",
"412 404 OFFCURVE",
"417 367 OFFCURVE",
"417 325 CURVE SMOOTH",
"417 281 LINE SMOOTH",
"417 160 OFFCURVE",
"372 87 OFFCURVE",
"282 87 CURVE SMOOTH",
"249 87 OFFCURVE",
"222 96 OFFCURVE",
"202 114 CURVE"
);
},
{
closed = 1;
nodes = (
"315 520 OFFCURVE",
"342 510 OFFCURVE",
"362 492 CURVE",
"163 171 LINE",
"152 202 OFFCURVE",
"147 239 OFFCURVE",
"147 281 CURVE SMOOTH",
"147 325 LINE SMOOTH",
"147 446 OFFCURVE",
"192 520 OFFCURVE",
"282 520 CURVE SMOOTH"
);
},
{
closed = 1;
nodes = (
"404 781 LINE",
"297 781 LINE",
"221 664 LINE",
"309 664 LINE",
"405 778 LINE"
);
}
);
width = 564;
}
);
unicode = 01FE;
},
{
glyphname = Otilde;
layers = (
{
layerId = "3E4994DA-6C35-486D-9CDD-3005170E1289";
name = Bold;
paths = (
{
closed = 1;
nodes = (
"126 617 OFFCURVE",
"30 517 OFFCURVE",
"30 303 CURVE SMOOTH",
"30 89 OFFCURVE",
"126 -11 OFFCURVE",
"282 -11 CURVE SMOOTH",
"438 -11 OFFCURVE",
"534 89 OFFCURVE",
"534 303 CURVE SMOOTH",
"534 517 OFFCURVE",
"438 617 OFFCURVE",
"282 617 CURVE SMOOTH"
);
},
{
closed = 1;
nodes = (
"372 520 OFFCURVE",
"417 446 OFFCURVE",
"417 325 CURVE SMOOTH",
"417 281 LINE SMOOTH",
"417 160 OFFCURVE",
"372 87 OFFCURVE",
"282 87 CURVE SMOOTH",
"192 87 OFFCURVE",
"147 160 OFFCURVE",
"147 281 CURVE SMOOTH",
"147 325 LINE SMOOTH",
"147 446 OFFCURVE",
"192 520 OFFCURVE",
"282 520 CURVE SMOOTH"
);
},
{
closed = 1;
nodes = (
"372 781 LINE",
"369 756 OFFCURVE",
"357 748 OFFCURVE",
"339 748 CURVE SMOOTH",
"298 748 OFFCURVE",
"264 781 OFFCURVE",
"221 781 CURVE SMOOTH",
"159 781 OFFCURVE",
"133 721 OFFCURVE",
"133 673 CURVE",
"193 673 LINE",
"196 697 OFFCURVE",
"208 705 OFFCURVE",
"227 705 CURVE SMOOTH",
"267 705 OFFCURVE",
"301 673 OFFCURVE",
"344 673 CURVE SMOOTH",
"406 673 OFFCURVE",
"431 732 OFFCURVE",
"431 781 CURVE"
);
}
);
width = 564;
}
);
unicode = 00D5;
},
{
glyphname = OE;
layers = (
{
anchors = (
{
name = top;
position = "{362, 606}";
}
);
layerId = "3E4994DA-6C35-486D-9CDD-3005170E1289";
name = Bold;
paths = (
{
closed = 1;
nodes = (
"103 617 OFFCURVE",
"27 517 OFFCURVE",
"27 303 CURVE SMOOTH",
"27 89 OFFCURVE",
"103 -11 OFFCURVE",
"228 -11 CURVE SMOOTH",
"282 -11 OFFCURVE",
"327 10 OFFCURVE",
"361 54 CURVE",
"361 0 LINE",
"700 0 LINE",
"700 101 LINE",
"474 101 LINE",
"474 260 LINE",
"656 260 LINE",
"656 361 LINE",
"474 361 LINE",
"474 506 LINE",
"694 506 LINE",
"694 606 LINE",
"361 606 LINE",
"361 552 LINE",
"327 596 OFFCURVE",
"282 617 OFFCURVE",
"228 617 CURVE SMOOTH"
);
},
{
closed = 1;
nodes = (
"324 520 OFFCURVE",
"360 464 OFFCURVE",
"360 325 CURVE SMOOTH",
"360 281 LINE SMOOTH",
"360 142 OFFCURVE",
"324 87 OFFCURVE",
"251 87 CURVE SMOOTH",
"179 87 OFFCURVE",
"143 142 OFFCURVE",
"143 281 CURVE SMOOTH",
"143 325 LINE SMOOTH",
"143 464 OFFCURVE",
"179 520 OFFCURVE",
"251 520 CURVE SMOOTH"
);
}
);
width = 725;
}
);
unicode = 0152;
},
{
glyphname = P;
layers = (
{
layerId = "3E4994DA-6C35-486D-9CDD-3005170E1289";
name = Bold;
paths = (
{
closed = 1;
nodes = (
"166 235 LINE",
"270 235 LINE SMOOTH",
"384 235 OFFCURVE",
"460 310 OFFCURVE",
"460 424 CURVE SMOOTH",
"460 530 OFFCURVE",
"395 606 OFFCURVE",
"270 606 CURVE SMOOTH",
"53 606 LINE",
"53 0 LINE",
"166 0 LINE"
);
},
{
closed = 1;
nodes = (
"166 506 LINE",
"258 506 LINE SMOOTH",
"312 506 OFFCURVE",
"343 474 OFFCURVE",
"343 424 CURVE SMOOTH",
"343 369 OFFCURVE",
"313 335 OFFCURVE",
"258 335 CURVE SMOOTH",
"166 335 LINE"
);
}
);
width = 484;
}
);
unicode = 0050;
},
{
glyphname = Thorn;
layers = (
{
layerId = "3E4994DA-6C35-486D-9CDD-3005170E1289";
name = Bold;
paths = (
{
closed = 1;
nodes = (
"166 606 LINE",
"53 606 LINE",
"53 0 LINE",
"166 0 LINE",
"166 127 LINE",
"270 127 LINE SMOOTH",
"384 127 OFFCURVE",
"460 202 OFFCURVE",
"460 316 CURVE SMOOTH",
"460 422 OFFCURVE",
"395 499 OFFCURVE",
"270 499 CURVE SMOOTH",
"166 499 LINE"
);
},
{
closed = 1;
nodes = (
"258 398 LINE",
"312 398 OFFCURVE",
"343 366 OFFCURVE",
"343 316 CURVE SMOOTH",
"343 261 OFFCURVE",
"313 227 OFFCURVE",
"258 227 CURVE SMOOTH",
"166 227 LINE",
"166 398 LINE"
);
}
);
width = 484;
}
);
unicode = 00DE;
},
{
glyphname = Q;
layers = (
{
layerId = "3E4994DA-6C35-486D-9CDD-3005170E1289";
name = Bold;
paths = (
{
closed = 1;
nodes = (
"30 89 OFFCURVE",
"126 -11 OFFCURVE",
"282 -11 CURVE SMOOTH",
"293 -11 LINE",
"380 -110 LINE",
"519 -110 LINE",
"402 15 LINE",
"485 57 OFFCURVE",
"534 151 OFFCURVE",
"534 303 CURVE SMOOTH",
"534 517 OFFCURVE",
"438 617 OFFCURVE",
"282 617 CURVE SMOOTH",
"126 617 OFFCURVE",
"30 517 OFFCURVE",
"30 303 CURVE SMOOTH"
);
},
{
closed = 1;
nodes = (
"147 325 LINE",
"147 446 OFFCURVE",
"192 520 OFFCURVE",
"282 520 CURVE SMOOTH",
"372 520 OFFCURVE",
"417 446 OFFCURVE",
"417 325 CURVE SMOOTH",
"417 281 LINE SMOOTH",
"417 160 OFFCURVE",
"372 87 OFFCURVE",
"282 87 CURVE SMOOTH",
"192 87 OFFCURVE",
"147 160 OFFCURVE",
"147 281 CURVE SMOOTH"
);
}
);
width = 564;
}
);
unicode = 0051;
},
{
glyphname = R;
layers = (
{
anchors = (
{
name = bottom;
position = "{262, 0}";
},
{
name = top;
position = "{262, 606}";
}
);
layerId = "3E4994DA-6C35-486D-9CDD-3005170E1289";
name = Bold;
paths = (
{
closed = 1;
nodes = (
"53 606 LINE",
"53 0 LINE",
"166 0 LINE",
"166 253 LINE",
"284 253 LINE",
"385 0 LINE",
"507 0 LINE",
"391 278 LINE",
"453 303 OFFCURVE",
"492 360 OFFCURVE",
"492 433 CURVE SMOOTH",
"492 533 OFFCURVE",
"430 606 OFFCURVE",
"307 606 CURVE SMOOTH"
);
},
{
closed = 1;
nodes = (
"295 506 LINE",
"347 506 OFFCURVE",
"370 477 OFFCURVE",
"370 433 CURVE SMOOTH",
"370 383 OFFCURVE",
"346 353 OFFCURVE",
"291 353 CURVE SMOOTH",
"166 353 LINE",
"166 506 LINE"
);
}
);
width = 523;
}
);
unicode = 0052;
},
{
glyphname = Racute;
layers = (
{
layerId = "3E4994DA-6C35-486D-9CDD-3005170E1289";
name = Bold;
paths = (
{
closed = 1;
nodes = (
"53 606 LINE",
"53 0 LINE",
"166 0 LINE",
"166 253 LINE",
"284 253 LINE",
"385 0 LINE",
"507 0 LINE",
"391 278 LINE",
"453 303 OFFCURVE",
"492 360 OFFCURVE",
"492 433 CURVE SMOOTH",
"492 533 OFFCURVE",
"430 606 OFFCURVE",
"307 606 CURVE SMOOTH"
);
},
{
closed = 1;
nodes = (
"295 506 LINE",
"347 506 OFFCURVE",
"370 477 OFFCURVE",
"370 433 CURVE SMOOTH",
"370 383 OFFCURVE",
"346 353 OFFCURVE",
"291 353 CURVE SMOOTH",
"166 353 LINE",
"166 506 LINE"
);
},
{
closed = 1;
nodes = (
"383 781 LINE",
"277 781 LINE",
"201 664 LINE",
"288 664 LINE",
"384 778 LINE"
);
}
);
width = 523;
}
);
unicode = 0154;
},
{
glyphname = Rcaron;
layers = (
{
layerId = "3E4994DA-6C35-486D-9CDD-3005170E1289";
name = Bold;
paths = (
{
closed = 1;
nodes = (
"53 606 LINE",
"53 0 LINE",
"166 0 LINE",
"166 253 LINE",
"284 253 LINE",
"385 0 LINE",
"507 0 LINE",
"391 278 LINE",
"453 303 OFFCURVE",
"492 360 OFFCURVE",
"492 433 CURVE SMOOTH",
"492 533 OFFCURVE",
"430 606 OFFCURVE",
"307 606 CURVE SMOOTH"
);
},
{
closed = 1;
nodes = (
"295 506 LINE",
"347 506 OFFCURVE",
"370 477 OFFCURVE",
"370 433 CURVE SMOOTH",
"370 383 OFFCURVE",
"346 353 OFFCURVE",
"291 353 CURVE SMOOTH",
"166 353 LINE",
"166 506 LINE"
);
},
{
closed = 1;
nodes = (
"381 781 LINE",
"301 781 LINE",
"262 720 LINE",
"222 781 LINE",
"143 781 LINE",
"219 661 LINE",
"306 661 LINE"
);
}
);
width = 523;
}
);
unicode = 0158;
},
{
glyphname = Rcommaaccent;
layers = (
{
layerId = "3E4994DA-6C35-486D-9CDD-3005170E1289";
name = Bold;
paths = (
{
closed = 1;
nodes = (
"53 606 LINE",
"53 0 LINE",
"166 0 LINE",
"166 253 LINE",
"284 253 LINE",
"385 0 LINE",
"507 0 LINE",
"391 278 LINE",
"453 303 OFFCURVE",
"492 360 OFFCURVE",
"492 433 CURVE SMOOTH",
"492 533 OFFCURVE",
"430 606 OFFCURVE",
"307 606 CURVE SMOOTH"
);
},
{
closed = 1;
nodes = (
"316 -49 LINE",
"207 -49 LINE",
"207 -157 LINE",
"250 -157 LINE",
"219 -232 LINE",
"276 -232 LINE",
"316 -148 LINE"
);
},
{
closed = 1;
nodes = (
"295 506 LINE",
"347 506 OFFCURVE",
"370 477 OFFCURVE",
"370 433 CURVE SMOOTH",
"370 383 OFFCURVE",
"346 353 OFFCURVE",
"291 353 CURVE SMOOTH",
"166 353 LINE",
"166 506 LINE"
);
}
);
width = 523;
}
);
unicode = 0156;
},
{
glyphname = S;
layers = (
{
anchors = (
{
name = bottom;
position = "{242, 0}";
},
{
name = top;
position = "{242, 606}";
}
);
layerId = "3E4994DA-6C35-486D-9CDD-3005170E1289";
name = Bold;
paths = (
{
closed = 1;
nodes = (
"134 617 OFFCURVE",
"39 562 OFFCURVE",
"39 447 CURVE SMOOTH",
"39 217 OFFCURVE",
"333 302 OFFCURVE",
"333 158 CURVE SMOOTH",
"333 123 OFFCURVE",
"309 87 OFFCURVE",
"241 87 CURVE SMOOTH",
"179 87 OFFCURVE",
"144 126 OFFCURVE",
"144 183 CURVE SMOOTH",
"144 187 OFFCURVE",
"145 195 OFFCURVE",
"145 197 CURVE",
"27 197 LINE",
"27 193 OFFCURVE",
"27 185 OFFCURVE",
"27 178 CURVE SMOOTH",
"27 53 OFFCURVE",
"125 -11 OFFCURVE",
"236 -11 CURVE SMOOTH",
"362 -11 OFFCURVE",
"450 43 OFFCURVE",
"450 182 CURVE SMOOTH",
"450 405 OFFCURVE",
"156 332 OFFCURVE",
"156 455 CURVE SMOOTH",
"156 492 OFFCURVE",
"186 520 OFFCURVE",
"240 520 CURVE SMOOTH",
"292 520 OFFCURVE",
"323 487 OFFCURVE",
"323 436 CURVE SMOOTH",
"323 428 LINE",
"438 428 LINE",
"438 438 LINE SMOOTH",
"438 563 OFFCURVE",
"349 617 OFFCURVE",
"241 617 CURVE SMOOTH"
);
}
);
width = 484;
}
);
unicode = 0053;
},
{
glyphname = Sacute;
layers = (
{
layerId = "3E4994DA-6C35-486D-9CDD-3005170E1289";
name = Bold;
paths = (
{
closed = 1;
nodes = (
"134 617 OFFCURVE",
"39 562 OFFCURVE",
"39 447 CURVE SMOOTH",
"39 217 OFFCURVE",
"333 302 OFFCURVE",
"333 158 CURVE SMOOTH",
"333 123 OFFCURVE",
"309 87 OFFCURVE",
"241 87 CURVE SMOOTH",
"179 87 OFFCURVE",
"144 126 OFFCURVE",
"144 183 CURVE SMOOTH",
"144 187 OFFCURVE",
"145 195 OFFCURVE",
"145 197 CURVE",
"27 197 LINE",
"27 193 OFFCURVE",
"27 185 OFFCURVE",
"27 178 CURVE SMOOTH",
"27 53 OFFCURVE",
"125 -11 OFFCURVE",
"236 -11 CURVE SMOOTH",
"362 -11 OFFCURVE",
"450 43 OFFCURVE",
"450 182 CURVE SMOOTH",
"450 405 OFFCURVE",
"156 332 OFFCURVE",
"156 455 CURVE SMOOTH",
"156 492 OFFCURVE",
"186 520 OFFCURVE",
"240 520 CURVE SMOOTH",
"292 520 OFFCURVE",
"323 487 OFFCURVE",
"323 436 CURVE SMOOTH",
"323 428 LINE",
"438 428 LINE",
"438 438 LINE SMOOTH",
"438 563 OFFCURVE",
"349 617 OFFCURVE",
"241 617 CURVE SMOOTH"
);
},
{
closed = 1;
nodes = (
"363 781 LINE",
"257 781 LINE",
"181 664 LINE",
"269 664 LINE",
"364 778 LINE"
);
}
);
width = 484;
}
);
unicode = 015A;
},
{
glyphname = Scaron;
layers = (
{
layerId = "3E4994DA-6C35-486D-9CDD-3005170E1289";
name = Bold;
paths = (
{
closed = 1;
nodes = (
"134 617 OFFCURVE",
"39 562 OFFCURVE",
"39 447 CURVE SMOOTH",
"39 217 OFFCURVE",
"333 302 OFFCURVE",
"333 158 CURVE SMOOTH",
"333 123 OFFCURVE",
"309 87 OFFCURVE",
"241 87 CURVE SMOOTH",
"179 87 OFFCURVE",
"144 126 OFFCURVE",
"144 183 CURVE SMOOTH",
"144 187 OFFCURVE",
"145 195 OFFCURVE",
"145 197 CURVE",
"27 197 LINE",
"27 193 OFFCURVE",
"27 185 OFFCURVE",
"27 178 CURVE SMOOTH",
"27 53 OFFCURVE",
"125 -11 OFFCURVE",
"236 -11 CURVE SMOOTH",
"362 -11 OFFCURVE",
"450 43 OFFCURVE",
"450 182 CURVE SMOOTH",
"450 405 OFFCURVE",
"156 332 OFFCURVE",
"156 455 CURVE SMOOTH",
"156 492 OFFCURVE",
"186 520 OFFCURVE",
"240 520 CURVE SMOOTH",
"292 520 OFFCURVE",
"323 487 OFFCURVE",
"323 436 CURVE SMOOTH",
"323 428 LINE",
"438 428 LINE",
"438 438 LINE SMOOTH",
"438 563 OFFCURVE",
"349 617 OFFCURVE",
"241 617 CURVE SMOOTH"
);
},
{
closed = 1;
nodes = (
"286 661 LINE",
"361 781 LINE",
"281 781 LINE",
"242 720 LINE",
"202 781 LINE",
"123 781 LINE",
"199 661 LINE"
);
}
);
width = 484;
}
);
unicode = 0160;
},
{
glyphname = Scedilla;
layers = (
{
layerId = "3E4994DA-6C35-486D-9CDD-3005170E1289";
name = Bold;
paths = (
{
closed = 1;
nodes = (
"134 617 OFFCURVE",
"39 562 OFFCURVE",
"39 447 CURVE SMOOTH",
"39 217 OFFCURVE",
"333 302 OFFCURVE",
"333 158 CURVE SMOOTH",
"333 123 OFFCURVE",
"309 87 OFFCURVE",
"241 87 CURVE SMOOTH",
"179 87 OFFCURVE",
"144 126 OFFCURVE",
"144 183 CURVE SMOOTH",
"144 187 OFFCURVE",
"145 195 OFFCURVE",
"145 197 CURVE",
"27 197 LINE",
"27 193 OFFCURVE",
"27 185 OFFCURVE",
"27 178 CURVE SMOOTH",
"27 66 OFFCURVE",
"103 4 OFFCURVE",
"199 -8 CURVE",
"192 -68 LINE",
"221 -68 LINE SMOOTH",
"244 -68 OFFCURVE",
"251 -75 OFFCURVE",
"251 -89 CURVE SMOOTH",
"251 -106 OFFCURVE",
"239 -111 OFFCURVE",
"219 -111 CURVE SMOOTH",
"156 -111 LINE",
"156 -154 LINE",
"178 -158 OFFCURVE",
"206 -161 OFFCURVE",
"231 -161 CURVE SMOOTH",
"269 -161 OFFCURVE",
"327 -149 OFFCURVE",
"327 -89 CURVE SMOOTH",
"327 -49 OFFCURVE",
"295 -32 OFFCURVE",
"257 -29 CURVE",
"259 -10 LINE",
"372 -3 OFFCURVE",
"450 52 OFFCURVE",
"450 182 CURVE SMOOTH",
"450 405 OFFCURVE",
"156 332 OFFCURVE",
"156 455 CURVE SMOOTH",
"156 492 OFFCURVE",
"186 520 OFFCURVE",
"240 520 CURVE SMOOTH",
"292 520 OFFCURVE",
"323 487 OFFCURVE",
"323 436 CURVE SMOOTH",
"323 428 LINE",
"438 428 LINE",
"438 438 LINE SMOOTH",
"438 563 OFFCURVE",
"349 617 OFFCURVE",
"241 617 CURVE SMOOTH"
);
}
);
width = 484;
}
);
unicode = 015E;
},
{
glyphname = Scircumflex;
layers = (
{
layerId = "3E4994DA-6C35-486D-9CDD-3005170E1289";
name = Bold;
paths = (
{
closed = 1;
nodes = (
"134 617 OFFCURVE",
"39 562 OFFCURVE",
"39 447 CURVE SMOOTH",
"39 217 OFFCURVE",
"333 302 OFFCURVE",
"333 158 CURVE SMOOTH",
"333 123 OFFCURVE",
"309 87 OFFCURVE",
"241 87 CURVE SMOOTH",
"179 87 OFFCURVE",
"144 126 OFFCURVE",
"144 183 CURVE SMOOTH",
"144 187 OFFCURVE",
"145 195 OFFCURVE",
"145 197 CURVE",
"27 197 LINE",
"27 193 OFFCURVE",
"27 185 OFFCURVE",
"27 178 CURVE SMOOTH",
"27 53 OFFCURVE",
"125 -11 OFFCURVE",
"236 -11 CURVE SMOOTH",
"362 -11 OFFCURVE",
"450 43 OFFCURVE",
"450 182 CURVE SMOOTH",
"450 405 OFFCURVE",
"156 332 OFFCURVE",
"156 455 CURVE SMOOTH",
"156 492 OFFCURVE",
"186 520 OFFCURVE",
"240 520 CURVE SMOOTH",
"292 520 OFFCURVE",
"323 487 OFFCURVE",
"323 436 CURVE SMOOTH",
"323 428 LINE",
"438 428 LINE",
"438 438 LINE SMOOTH",
"438 563 OFFCURVE",
"349 617 OFFCURVE",
"241 617 CURVE SMOOTH"
);
},
{
closed = 1;
nodes = (
"361 661 LINE",
"286 781 LINE",
"199 781 LINE",
"123 661 LINE",
"202 661 LINE",
"242 722 LINE",
"281 661 LINE"
);
}
);
width = 484;
}
);
unicode = 015C;
},
{
glyphname = T;
layers = (
{
anchors = (
{
name = bottom;
position = "{222, 0}";
},
{
name = center;
position = "{222, 303}";
},
{
name = top;
position = "{222, 606}";
}
);
layerId = "3E4994DA-6C35-486D-9CDD-3005170E1289";
name = Bold;
paths = (
{
closed = 1;
nodes = (
"429 606 LINE",
"15 606 LINE",
"15 506 LINE",
"165 506 LINE",
"165 0 LINE",
"278 0 LINE",
"278 506 LINE",
"429 506 LINE"
);
}
);
width = 443;
}
);
unicode = 0054;
},
{
glyphname = Tbar;
layers = (
{
layerId = "3E4994DA-6C35-486D-9CDD-3005170E1289";
name = Bold;
paths = (
{
closed = 1;
nodes = (
"429 606 LINE",
"15 606 LINE",
"15 506 LINE",
"165 506 LINE",
"165 347 LINE",
"65 347 LINE",
"65 271 LINE",
"165 271 LINE",
"165 0 LINE",
"278 0 LINE",
"278 271 LINE",
"377 271 LINE",
"377 347 LINE",
"278 347 LINE",
"278 506 LINE",
"429 506 LINE"
);
}
);
width = 443;
}
);
unicode = 0166;
},
{
glyphname = Tcaron;
layers = (
{
layerId = "3E4994DA-6C35-486D-9CDD-3005170E1289";
name = Bold;
paths = (
{
closed = 1;
nodes = (
"429 606 LINE",
"15 606 LINE",
"15 506 LINE",
"165 506 LINE",
"165 0 LINE",
"278 0 LINE",
"278 506 LINE",
"429 506 LINE"
);
},
{
closed = 1;
nodes = (
"340 781 LINE",
"261 781 LINE",
"222 720 LINE",
"182 781 LINE",
"103 781 LINE",
"179 661 LINE",
"265 661 LINE"
);
}
);
width = 443;
}
);
unicode = 0164;
},
{
glyphname = Tcommaaccent;
layers = (
{
layerId = "3E4994DA-6C35-486D-9CDD-3005170E1289";
name = Bold;
paths = (
{
closed = 1;
nodes = (
"429 606 LINE",
"15 606 LINE",
"15 506 LINE",
"165 506 LINE",
"165 0 LINE",
"278 0 LINE",
"278 506 LINE",
"429 506 LINE"
);
},
{
closed = 1;
nodes = (
"276 -49 LINE",
"167 -49 LINE",
"167 -157 LINE",
"210 -157 LINE",
"179 -232 LINE",
"236 -232 LINE",
"276 -148 LINE"
);
}
);
width = 443;
}
);
unicode = 021A;
},
{
glyphname = U;
layers = (
{
anchors = (
{
name = ogonek;
position = "{471, 9}";
},
{
name = top;
position = "{262, 606}";
}
);
layerId = "3E4994DA-6C35-486D-9CDD-3005170E1289";
name = Bold;
paths = (
{
closed = 1;
nodes = (
"470 606 LINE",
"357 606 LINE",
"357 194 LINE SMOOTH",
"357 124 OFFCURVE",
"322 87 OFFCURVE",
"262 87 CURVE SMOOTH",
"202 87 OFFCURVE",
"167 124 OFFCURVE",
"167 194 CURVE SMOOTH",
"167 606 LINE",
"54 606 LINE",
"54 190 LINE SMOOTH",
"54 58 OFFCURVE",
"132 -11 OFFCURVE",
"262 -11 CURVE SMOOTH",
"392 -11 OFFCURVE",
"470 58 OFFCURVE",
"470 190 CURVE SMOOTH"
);
}
);
width = 523;
}
);
unicode = 0055;
},
{
glyphname = Uacute;
layers = (
{
layerId = "3E4994DA-6C35-486D-9CDD-3005170E1289";
name = Bold;
paths = (
{
closed = 1;
nodes = (
"470 606 LINE",
"357 606 LINE",
"357 194 LINE SMOOTH",
"357 124 OFFCURVE",
"322 87 OFFCURVE",
"262 87 CURVE SMOOTH",
"202 87 OFFCURVE",
"167 124 OFFCURVE",
"167 194 CURVE SMOOTH",
"167 606 LINE",
"54 606 LINE",
"54 190 LINE SMOOTH",
"54 58 OFFCURVE",
"132 -11 OFFCURVE",
"262 -11 CURVE SMOOTH",
"392 -11 OFFCURVE",
"470 58 OFFCURVE",
"470 190 CURVE SMOOTH"
);
},
{
closed = 1;
nodes = (
"383 781 LINE",
"277 781 LINE",
"201 664 LINE",
"288 664 LINE",
"384 778 LINE"
);
}
);
width = 523;
}
);
unicode = 00DA;
},
{
glyphname = Ubreve;
layers = (
{
layerId = "3E4994DA-6C35-486D-9CDD-3005170E1289";
name = Bold;
paths = (
{
closed = 1;
nodes = (
"470 606 LINE",
"357 606 LINE",
"357 194 LINE SMOOTH",
"357 124 OFFCURVE",
"322 87 OFFCURVE",
"262 87 CURVE SMOOTH",
"202 87 OFFCURVE",
"167 124 OFFCURVE",
"167 194 CURVE SMOOTH",
"167 606 LINE",
"54 606 LINE",
"54 190 LINE SMOOTH",
"54 58 OFFCURVE",
"132 -11 OFFCURVE",
"262 -11 CURVE SMOOTH",
"392 -11 OFFCURVE",
"470 58 OFFCURVE",
"470 190 CURVE SMOOTH"
);
},
{
closed = 1;
nodes = (
"314 781 LINE",
"313 768 OFFCURVE",
"292 751 OFFCURVE",
"261 751 CURVE SMOOTH",
"232 751 OFFCURVE",
"212 768 OFFCURVE",
"210 781 CURVE",
"144 781 LINE",
"144 736 OFFCURVE",
"188 686 OFFCURVE",
"261 686 CURVE SMOOTH",
"334 686 OFFCURVE",
"380 736 OFFCURVE",
"380 781 CURVE"
);
}
);
width = 523;
}
);
unicode = 016C;
},
{
glyphname = Ucircumflex;
layers = (
{
layerId = "3E4994DA-6C35-486D-9CDD-3005170E1289";
name = Bold;
paths = (
{
closed = 1;
nodes = (
"470 606 LINE",
"357 606 LINE",
"357 194 LINE SMOOTH",
"357 124 OFFCURVE",
"322 87 OFFCURVE",
"262 87 CURVE SMOOTH",
"202 87 OFFCURVE",
"167 124 OFFCURVE",
"167 194 CURVE SMOOTH",
"167 606 LINE",
"54 606 LINE",
"54 190 LINE SMOOTH",
"54 58 OFFCURVE",
"132 -11 OFFCURVE",
"262 -11 CURVE SMOOTH",
"392 -11 OFFCURVE",
"470 58 OFFCURVE",
"470 190 CURVE SMOOTH"
);
},
{
closed = 1;
nodes = (
"306 781 LINE",
"219 781 LINE",
"143 661 LINE",
"222 661 LINE",
"262 722 LINE",
"301 661 LINE",
"381 661 LINE"
);
}
);
width = 523;
}
);
unicode = 00DB;
},
{
glyphname = Udieresis;
layers = (
{
layerId = "3E4994DA-6C35-486D-9CDD-3005170E1289";
name = Bold;
paths = (
{
closed = 1;
nodes = (
"470 606 LINE",
"357 606 LINE",
"357 194 LINE SMOOTH",
"357 124 OFFCURVE",
"322 87 OFFCURVE",
"262 87 CURVE SMOOTH",
"202 87 OFFCURVE",
"167 124 OFFCURVE",
"167 194 CURVE SMOOTH",
"167 606 LINE",
"54 606 LINE",
"54 190 LINE SMOOTH",
"54 58 OFFCURVE",
"132 -11 OFFCURVE",
"262 -11 CURVE SMOOTH",
"392 -11 OFFCURVE",
"470 58 OFFCURVE",
"470 190 CURVE SMOOTH"
);
},
{
closed = 1;
nodes = (
"229 781 LINE",
"141 781 LINE",
"141 684 LINE",
"229 684 LINE"
);
},
{
closed = 1;
nodes = (
"384 781 LINE",
"294 781 LINE",
"294 684 LINE",
"384 684 LINE"
);
}
);
width = 523;
}
);
unicode = 00DC;
},
{
glyphname = Ugrave;
layers = (
{
layerId = "3E4994DA-6C35-486D-9CDD-3005170E1289";
name = Bold;
paths = (
{
closed = 1;
nodes = (
"470 606 LINE",
"357 606 LINE",
"357 194 LINE SMOOTH",
"357 124 OFFCURVE",
"322 87 OFFCURVE",
"262 87 CURVE SMOOTH",
"202 87 OFFCURVE",
"167 124 OFFCURVE",
"167 194 CURVE SMOOTH",
"167 606 LINE",
"54 606 LINE",
"54 190 LINE SMOOTH",
"54 58 OFFCURVE",
"132 -11 OFFCURVE",
"262 -11 CURVE SMOOTH",
"392 -11 OFFCURVE",
"470 58 OFFCURVE",
"470 190 CURVE SMOOTH"
);
},
{
closed = 1;
nodes = (
"247 781 LINE",
"141 781 LINE",
"140 778 LINE",
"235 664 LINE",
"323 664 LINE"
);
}
);
width = 523;
}
);
unicode = 00D9;
},
{
glyphname = Uhungarumlaut;
layers = (
{
layerId = "3E4994DA-6C35-486D-9CDD-3005170E1289";
name = Bold;
paths = (
{
closed = 1;
nodes = (
"470 606 LINE",
"357 606 LINE",
"357 194 LINE SMOOTH",
"357 124 OFFCURVE",
"322 87 OFFCURVE",
"262 87 CURVE SMOOTH",
"202 87 OFFCURVE",
"167 124 OFFCURVE",
"167 194 CURVE SMOOTH",
"167 606 LINE",
"54 606 LINE",
"54 190 LINE SMOOTH",
"54 58 OFFCURVE",
"132 -11 OFFCURVE",
"262 -11 CURVE SMOOTH",
"392 -11 OFFCURVE",
"470 58 OFFCURVE",
"470 190 CURVE SMOOTH"
);
},
{
closed = 1;
nodes = (
"305 781 LINE",
"217 781 LINE",
"162 664 LINE",
"232 664 LINE",
"306 778 LINE"
);
},
{
closed = 1;
nodes = (
"429 781 LINE",
"340 781 LINE",
"286 664 LINE",
"355 664 LINE",
"430 778 LINE"
);
}
);
width = 523;
}
);
unicode = 0170;
},
{
glyphname = Umacron;
layers = (
{
layerId = "3E4994DA-6C35-486D-9CDD-3005170E1289";
name = Bold;
paths = (
{
closed = 1;
nodes = (
"470 606 LINE",
"357 606 LINE",
"357 194 LINE SMOOTH",
"357 124 OFFCURVE",
"322 87 OFFCURVE",
"262 87 CURVE SMOOTH",
"202 87 OFFCURVE",
"167 124 OFFCURVE",
"167 194 CURVE SMOOTH",
"167 606 LINE",
"54 606 LINE",
"54 190 LINE SMOOTH",
"54 58 OFFCURVE",
"132 -11 OFFCURVE",
"262 -11 CURVE SMOOTH",
"392 -11 OFFCURVE",
"470 58 OFFCURVE",
"470 190 CURVE SMOOTH"
);
},
{
closed = 1;
nodes = (
"375 748 LINE",
"149 748 LINE",
"149 671 LINE",
"375 671 LINE"
);
}
);
width = 523;
}
);
unicode = 016A;
},
{
glyphname = Uogonek;
layers = (
{
layerId = "3E4994DA-6C35-486D-9CDD-3005170E1289";
name = Bold;
paths = (
{
closed = 1;
nodes = (
"470 606 LINE",
"357 606 LINE",
"357 201 LINE SMOOTH",
"357 126 OFFCURVE",
"322 87 OFFCURVE",
"262 87 CURVE SMOOTH",
"202 87 OFFCURVE",
"167 126 OFFCURVE",
"167 201 CURVE SMOOTH",
"167 606 LINE",
"54 606 LINE",
"54 197 LINE SMOOTH",
"54 61 OFFCURVE",
"132 -11 OFFCURVE",
"262 -11 CURVE SMOOTH",
"280 -11 OFFCURVE",
"297 -11 OFFCURVE",
"316 -7 CURVE",
"290 10 LINE",
"266 -12 OFFCURVE",
"245 -40 OFFCURVE",
"245 -84 CURVE SMOOTH",
"245 -145 OFFCURVE",
"292 -164 OFFCURVE",
"332 -164 CURVE SMOOTH",
"352 -164 OFFCURVE",
"370 -159 OFFCURVE",
"391 -151 CURVE",
"391 -103 LINE",
"371 -103 LINE SMOOTH",
"342 -103 OFFCURVE",
"331 -80 OFFCURVE",
"331 -57 CURVE SMOOTH",
"331 -33 OFFCURVE",
"347 -8 OFFCURVE",
"358 4 CURVE",
"430 32 OFFCURVE",
"470 97 OFFCURVE",
"470 197 CURVE SMOOTH"
);
}
);
width = 523;
}
);
unicode = 0172;
},
{
glyphname = Uring;
layers = (
{
layerId = "3E4994DA-6C35-486D-9CDD-3005170E1289";
name = Bold;
paths = (
{
closed = 1;
nodes = (
"470 606 LINE",
"357 606 LINE",
"357 194 LINE SMOOTH",
"357 124 OFFCURVE",
"322 87 OFFCURVE",
"262 87 CURVE SMOOTH",
"202 87 OFFCURVE",
"167 124 OFFCURVE",
"167 194 CURVE SMOOTH",
"167 606 LINE",
"54 606 LINE",
"54 190 LINE SMOOTH",
"54 58 OFFCURVE",
"132 -11 OFFCURVE",
"262 -11 CURVE SMOOTH",
"392 -11 OFFCURVE",
"470 58 OFFCURVE",
"470 190 CURVE SMOOTH"
);
},
{
closed = 1;
nodes = (
"215 807 OFFCURVE",
"177 769 OFFCURVE",
"177 722 CURVE SMOOTH",
"177 674 OFFCURVE",
"216 637 OFFCURVE",
"262 637 CURVE SMOOTH",
"309 637 OFFCURVE",
"347 675 OFFCURVE",
"347 722 CURVE SMOOTH",
"347 768 OFFCURVE",
"309 807 OFFCURVE",
"262 807 CURVE SMOOTH"
);
},
{
closed = 1;
nodes = (
"284 763 OFFCURVE",
"302 745 OFFCURVE",
"302 722 CURVE SMOOTH",
"302 699 OFFCURVE",
"284 682 OFFCURVE",
"262 682 CURVE SMOOTH",
"239 682 OFFCURVE",
"221 699 OFFCURVE",
"221 722 CURVE SMOOTH",
"221 745 OFFCURVE",
"239 763 OFFCURVE",
"262 763 CURVE SMOOTH"
);
}
);
width = 523;
}
);
unicode = 016E;
},
{
glyphname = Utilde;
layers = (
{
layerId = "3E4994DA-6C35-486D-9CDD-3005170E1289";
name = Bold;
paths = (
{
closed = 1;
nodes = (
"470 606 LINE",
"357 606 LINE",
"357 194 LINE SMOOTH",
"357 124 OFFCURVE",
"322 87 OFFCURVE",
"262 87 CURVE SMOOTH",
"202 87 OFFCURVE",
"167 124 OFFCURVE",
"167 194 CURVE SMOOTH",
"167 606 LINE",
"54 606 LINE",
"54 190 LINE SMOOTH",
"54 58 OFFCURVE",
"132 -11 OFFCURVE",
"262 -11 CURVE SMOOTH",
"392 -11 OFFCURVE",
"470 58 OFFCURVE",
"470 190 CURVE SMOOTH"
);
},
{
closed = 1;
nodes = (
"352 781 LINE",
"348 756 OFFCURVE",
"336 748 OFFCURVE",
"317 748 CURVE SMOOTH",
"278 748 OFFCURVE",
"243 781 OFFCURVE",
"200 781 CURVE SMOOTH",
"138 781 OFFCURVE",
"113 721 OFFCURVE",
"113 673 CURVE",
"171 673 LINE",
"175 697 OFFCURVE",
"187 705 OFFCURVE",
"206 705 CURVE SMOOTH",
"246 705 OFFCURVE",
"280 673 OFFCURVE",
"323 673 CURVE SMOOTH",
"385 673 OFFCURVE",
"410 732 OFFCURVE",
"410 781 CURVE"
);
}
);
width = 523;
}
);
unicode = 0168;
},
{
glyphname = V;
layers = (
{
layerId = "3E4994DA-6C35-486D-9CDD-3005170E1289";
name = Bold;
paths = (
{
closed = 1;
nodes = (
"299 0 LINE",
"484 606 LINE",
"373 606 LINE",
"248 172 LINE",
"244 172 LINE",
"117 606 LINE",
"0 606 LINE",
"185 0 LINE"
);
}
);
width = 484;
}
);
unicode = 0056;
},
{
glyphname = W;
layers = (
{
anchors = (
{
name = top;
position = "{342, 606}";
}
);
layerId = "3E4994DA-6C35-486D-9CDD-3005170E1289";
name = Bold;
paths = (
{
closed = 1;
nodes = (
"552 0 LINE",
"683 606 LINE",
"586 606 LINE",
"512 233 LINE SMOOTH",
"506 203 OFFCURVE",
"500 149 OFFCURVE",
"500 149 CURVE SMOOTH",
"497 149 LINE SMOOTH",
"497 149 OFFCURVE",
"490 210 OFFCURVE",
"485 233 CURVE SMOOTH",
"413 606 LINE",
"285 606 LINE",
"211 233 LINE SMOOTH",
"206 208 OFFCURVE",
"200 149 OFFCURVE",
"200 149 CURVE SMOOTH",
"196 149 LINE SMOOTH",
"196 149 OFFCURVE",
"190 207 OFFCURVE",
"185 233 CURVE SMOOTH",
"112 606 LINE",
"0 606 LINE",
"132 0 LINE",
"246 0 LINE",
"327 386 LINE SMOOTH",
"332 412 OFFCURVE",
"339 472 OFFCURVE",
"339 472 CURVE",
"343 472 LINE",
"343 472 OFFCURVE",
"348 417 OFFCURVE",
"355 386 CURVE SMOOTH",
"438 0 LINE"
);
}
);
width = 684;
}
);
unicode = 0057;
},
{
glyphname = Wacute;
layers = (
{
layerId = "3E4994DA-6C35-486D-9CDD-3005170E1289";
name = Bold;
paths = (
{
closed = 1;
nodes = (
"683 606 LINE",
"586 606 LINE",
"512 233 LINE SMOOTH",
"506 203 OFFCURVE",
"500 149 OFFCURVE",
"500 149 CURVE SMOOTH",
"497 149 LINE SMOOTH",
"497 149 OFFCURVE",
"490 210 OFFCURVE",
"485 233 CURVE SMOOTH",
"413 606 LINE",
"285 606 LINE",
"211 233 LINE SMOOTH",
"206 208 OFFCURVE",
"200 149 OFFCURVE",
"200 149 CURVE SMOOTH",
"196 149 LINE SMOOTH",
"196 149 OFFCURVE",
"190 207 OFFCURVE",
"185 233 CURVE SMOOTH",
"112 606 LINE",
"0 606 LINE",
"132 0 LINE",
"246 0 LINE",
"327 386 LINE SMOOTH",
"332 412 OFFCURVE",
"339 472 OFFCURVE",
"339 472 CURVE",
"343 472 LINE",
"343 472 OFFCURVE",
"348 417 OFFCURVE",
"355 386 CURVE SMOOTH",
"438 0 LINE",
"552 0 LINE"
);
},
{
closed = 1;
nodes = (
"463 781 LINE",
"357 781 LINE",
"281 664 LINE",
"369 664 LINE",
"464 778 LINE"
);
}
);
width = 684;
}
);
unicode = 1E82;
},
{
glyphname = Wcircumflex;
layers = (
{
layerId = "3E4994DA-6C35-486D-9CDD-3005170E1289";
name = Bold;
paths = (
{
closed = 1;
nodes = (
"552 0 LINE",
"683 606 LINE",
"586 606 LINE",
"512 233 LINE SMOOTH",
"506 203 OFFCURVE",
"500 149 OFFCURVE",
"500 149 CURVE SMOOTH",
"497 149 LINE SMOOTH",
"497 149 OFFCURVE",
"490 210 OFFCURVE",
"485 233 CURVE SMOOTH",
"413 606 LINE",
"285 606 LINE",
"211 233 LINE SMOOTH",
"206 208 OFFCURVE",
"200 149 OFFCURVE",
"200 149 CURVE SMOOTH",
"196 149 LINE SMOOTH",
"196 149 OFFCURVE",
"190 207 OFFCURVE",
"185 233 CURVE SMOOTH",
"112 606 LINE",
"0 606 LINE",
"132 0 LINE",
"246 0 LINE",
"327 386 LINE SMOOTH",
"332 412 OFFCURVE",
"339 472 OFFCURVE",
"339 472 CURVE",
"343 472 LINE",
"343 472 OFFCURVE",
"348 417 OFFCURVE",
"355 386 CURVE SMOOTH",
"438 0 LINE"
);
},
{
closed = 1;
nodes = (
"461 661 LINE",
"386 781 LINE",
"300 781 LINE",
"224 661 LINE",
"303 661 LINE",
"343 722 LINE",
"382 661 LINE"
);
}
);
width = 684;
}
);
unicode = 0174;
},
{
glyphname = Wdieresis;
layers = (
{
layerId = "3E4994DA-6C35-486D-9CDD-3005170E1289";
name = Bold;
paths = (
{
closed = 1;
nodes = (
"683 606 LINE",
"586 606 LINE",
"512 233 LINE SMOOTH",
"506 203 OFFCURVE",
"500 149 OFFCURVE",
"500 149 CURVE SMOOTH",
"497 149 LINE SMOOTH",
"497 149 OFFCURVE",
"490 210 OFFCURVE",
"485 233 CURVE SMOOTH",
"413 606 LINE",
"285 606 LINE",
"211 233 LINE SMOOTH",
"206 208 OFFCURVE",
"200 149 OFFCURVE",
"200 149 CURVE SMOOTH",
"196 149 LINE SMOOTH",
"196 149 OFFCURVE",
"190 207 OFFCURVE",
"185 233 CURVE SMOOTH",
"112 606 LINE",
"0 606 LINE",
"132 0 LINE",
"246 0 LINE",
"327 386 LINE SMOOTH",
"332 412 OFFCURVE",
"339 472 OFFCURVE",
"339 472 CURVE",
"343 472 LINE",
"343 472 OFFCURVE",
"348 417 OFFCURVE",
"355 386 CURVE SMOOTH",
"438 0 LINE",
"552 0 LINE"
);
},
{
closed = 1;
nodes = (
"309 781 LINE",
"221 781 LINE",
"221 684 LINE",
"309 684 LINE"
);
},
{
closed = 1;
nodes = (
"464 781 LINE",
"376 781 LINE",
"376 684 LINE",
"464 684 LINE"
);
}
);
width = 684;
}
);
unicode = 1E84;
},
{
glyphname = Wgrave;
layers = (
{
layerId = "3E4994DA-6C35-486D-9CDD-3005170E1289";
name = Bold;
paths = (
{
closed = 1;
nodes = (
"683 606 LINE",
"586 606 LINE",
"512 233 LINE SMOOTH",
"506 203 OFFCURVE",
"500 149 OFFCURVE",
"500 149 CURVE SMOOTH",
"497 149 LINE SMOOTH",
"497 149 OFFCURVE",
"490 210 OFFCURVE",
"485 233 CURVE SMOOTH",
"413 606 LINE",
"285 606 LINE",
"211 233 LINE SMOOTH",
"206 208 OFFCURVE",
"200 149 OFFCURVE",
"200 149 CURVE SMOOTH",
"196 149 LINE SMOOTH",
"196 149 OFFCURVE",
"190 207 OFFCURVE",
"185 233 CURVE SMOOTH",
"112 606 LINE",
"0 606 LINE",
"132 0 LINE",
"246 0 LINE",
"327 386 LINE SMOOTH",
"332 412 OFFCURVE",
"339 472 OFFCURVE",
"339 472 CURVE",
"343 472 LINE",
"343 472 OFFCURVE",
"348 417 OFFCURVE",
"355 386 CURVE SMOOTH",
"438 0 LINE",
"552 0 LINE"
);
},
{
closed = 1;
nodes = (
"327 781 LINE",
"221 781 LINE",
"220 778 LINE",
"316 664 LINE",
"403 664 LINE"
);
}
);
width = 684;
}
);
unicode = 1E80;
},
{
glyphname = X;
layers = (
{
layerId = "3E4994DA-6C35-486D-9CDD-3005170E1289";
name = Bold;
paths = (
{
closed = 1;
nodes = (
"467 606 LINE",
"349 606 LINE",
"248 408 LINE",
"244 408 LINE",
"142 606 LINE",
"16 606 LINE",
"171 318 LINE",
"0 0 LINE",
"118 0 LINE",
"235 229 LINE",
"239 229 LINE",
"357 0 LINE",
"483 0 LINE",
"310 320 LINE"
);
}
);
width = 484;
}
);
unicode = 0058;
},
{
glyphname = Y;
layers = (
{
anchors = (
{
name = top;
position = "{242, 606}";
}
);
layerId = "3E4994DA-6C35-486D-9CDD-3005170E1289";
name = Bold;
paths = (
{
closed = 1;
nodes = (
"299 229 LINE",
"484 606 LINE",
"370 606 LINE",
"247 340 LINE",
"243 340 LINE",
"119 606 LINE",
"0 606 LINE",
"186 229 LINE",
"186 0 LINE",
"299 0 LINE"
);
}
);
width = 484;
}
);
unicode = 0059;
},
{
glyphname = Yacute;
layers = (
{
layerId = "3E4994DA-6C35-486D-9CDD-3005170E1289";
name = Bold;
paths = (
{
closed = 1;
nodes = (
"484 606 LINE",
"370 606 LINE",
"247 340 LINE",
"243 340 LINE",
"119 606 LINE",
"0 606 LINE",
"186 229 LINE",
"186 0 LINE",
"299 0 LINE",
"299 229 LINE"
);
},
{
closed = 1;
nodes = (
"363 781 LINE",
"257 781 LINE",
"181 664 LINE",
"269 664 LINE",
"364 778 LINE"
);
}
);
width = 484;
}
);
unicode = 00DD;
},
{
glyphname = Ycircumflex;
layers = (
{
layerId = "3E4994DA-6C35-486D-9CDD-3005170E1289";
name = Bold;
paths = (
{
closed = 1;
nodes = (
"299 229 LINE",
"484 606 LINE",
"370 606 LINE",
"247 340 LINE",
"243 340 LINE",
"119 606 LINE",
"0 606 LINE",
"186 229 LINE",
"186 0 LINE",
"299 0 LINE"
);
},
{
closed = 1;
nodes = (
"361 661 LINE",
"286 781 LINE",
"199 781 LINE",
"123 661 LINE",
"202 661 LINE",
"242 722 LINE",
"281 661 LINE"
);
}
);
width = 484;
}
);
unicode = 0176;
},
{
glyphname = Ydieresis;
layers = (
{
layerId = "3E4994DA-6C35-486D-9CDD-3005170E1289";
name = Bold;
paths = (
{
closed = 1;
nodes = (
"484 606 LINE",
"370 606 LINE",
"247 340 LINE",
"243 340 LINE",
"119 606 LINE",
"0 606 LINE",
"186 229 LINE",
"186 0 LINE",
"299 0 LINE",
"299 229 LINE"
);
},
{
closed = 1;
nodes = (
"209 781 LINE",
"120 781 LINE",
"120 684 LINE",
"209 684 LINE"
);
},
{
closed = 1;
nodes = (
"363 781 LINE",
"275 781 LINE",
"275 684 LINE",
"363 684 LINE"
);
}
);
width = 484;
}
);
unicode = 0178;
},
{
glyphname = Ygrave;
layers = (
{
layerId = "3E4994DA-6C35-486D-9CDD-3005170E1289";
name = Bold;
paths = (
{
closed = 1;
nodes = (
"484 606 LINE",
"370 606 LINE",
"247 340 LINE",
"243 340 LINE",
"119 606 LINE",
"0 606 LINE",
"186 229 LINE",
"186 0 LINE",
"299 0 LINE",
"299 229 LINE"
);
},
{
closed = 1;
nodes = (
"226 781 LINE",
"120 781 LINE",
"119 778 LINE",
"215 664 LINE",
"302 664 LINE"
);
}
);
width = 484;
}
);
unicode = 1EF2;
},
{
glyphname = Z;
layers = (
{
anchors = (
{
name = top;
position = "{222, 606}";
}
);
layerId = "3E4994DA-6C35-486D-9CDD-3005170E1289";
name = Bold;
paths = (
{
closed = 1;
nodes = (
"418 606 LINE",
"33 606 LINE",
"33 506 LINE",
"263 506 LINE",
"14 43 LINE",
"14 0 LINE",
"424 0 LINE",
"424 101 LINE",
"169 101 LINE",
"418 562 LINE"
);
}
);
width = 443;
}
);
unicode = 005A;
},
{
glyphname = Zacute;
layers = (
{
layerId = "3E4994DA-6C35-486D-9CDD-3005170E1289";
name = Bold;
paths = (
{
closed = 1;
nodes = (
"418 606 LINE",
"33 606 LINE",
"33 506 LINE",
"263 506 LINE",
"14 43 LINE",
"14 0 LINE",
"424 0 LINE",
"424 101 LINE",
"169 101 LINE",
"418 562 LINE"
);
},
{
closed = 1;
nodes = (
"343 781 LINE",
"237 781 LINE",
"161 664 LINE",
"248 664 LINE",
"344 778 LINE"
);
}
);
width = 443;
}
);
unicode = 0179;
},
{
glyphname = Zcaron;
layers = (
{
layerId = "3E4994DA-6C35-486D-9CDD-3005170E1289";
name = Bold;
paths = (
{
closed = 1;
nodes = (
"418 606 LINE",
"33 606 LINE",
"33 506 LINE",
"263 506 LINE",
"14 43 LINE",
"14 0 LINE",
"424 0 LINE",
"424 101 LINE",
"169 101 LINE",
"418 562 LINE"
);
},
{
closed = 1;
nodes = (
"340 781 LINE",
"261 781 LINE",
"222 720 LINE",
"182 781 LINE",
"103 781 LINE",
"179 661 LINE",
"265 661 LINE"
);
}
);
width = 443;
}
);
unicode = 017D;
},
{
glyphname = Zdotaccent;
layers = (
{
layerId = "3E4994DA-6C35-486D-9CDD-3005170E1289";
name = Bold;
paths = (
{
closed = 1;
nodes = (
"418 606 LINE",
"33 606 LINE",
"33 506 LINE",
"263 506 LINE",
"14 43 LINE",
"14 0 LINE",
"424 0 LINE",
"424 101 LINE",
"169 101 LINE",
"418 562 LINE"
);
},
{
closed = 1;
nodes = (
"269 781 LINE",
"174 781 LINE",
"174 679 LINE",
"269 679 LINE"
);
}
);
width = 443;
}
);
unicode = 017B;
},
{
glyphname = a;
layers = (
{
anchors = (
{
name = ogonek;
position = "{362, 9}";
},
{
name = top;
position = "{202, 465}";
}
);
layerId = "3E4994DA-6C35-486D-9CDD-3005170E1289";
name = Bold;
paths = (
{
closed = 1;
nodes = (
"96 476 OFFCURVE",
"34 424 OFFCURVE",
"34 347 CURVE SMOOTH",
"34 339 OFFCURVE",
"34 332 OFFCURVE",
"35 327 CURVE",
"139 327 LINE",
"139 340 LINE SMOOTH",
"139 362 OFFCURVE",
"151 389 OFFCURVE",
"194 389 CURVE SMOOTH",
"235 389 OFFCURVE",
"243 363 OFFCURVE",
"243 331 CURVE SMOOTH",
"243 283 LINE",
"108 283 OFFCURVE",
"12 246 OFFCURVE",
"12 120 CURVE SMOOTH",
"12 12 OFFCURVE",
"86 -11 OFFCURVE",
"129 -11 CURVE SMOOTH",
"191 -11 OFFCURVE",
"220 13 OFFCURVE",
"247 50 CURVE",
"251 50 LINE",
"262 14 OFFCURVE",
"291 -11 OFFCURVE",
"333 -11 CURVE SMOOTH",
"365 -11 OFFCURVE",
"385 -3 OFFCURVE",
"396 4 CURVE",
"396 79 LINE",
"375 79 LINE SMOOTH",
"362 79 OFFCURVE",
"350 88 OFFCURVE",
"350 110 CURVE SMOOTH",
"350 339 LINE SMOOTH",
"350 425 OFFCURVE",
"300 476 OFFCURVE",
"192 476 CURVE SMOOTH"
);
},
{
closed = 1;
nodes = (
"243 179 LINE",
"243 125 OFFCURVE",
"224 78 OFFCURVE",
"173 78 CURVE SMOOTH",
"137 78 OFFCURVE",
"121 98 OFFCURVE",
"121 130 CURVE SMOOTH",
"121 190 OFFCURVE",
"181 206 OFFCURVE",
"243 206 CURVE"
);
}
);
width = 403;
}
);
unicode = 0061;
},
{
glyphname = aacute;
layers = (
{
layerId = "3E4994DA-6C35-486D-9CDD-3005170E1289";
name = Bold;
paths = (
{
closed = 1;
nodes = (
"96 476 OFFCURVE",
"34 424 OFFCURVE",
"34 347 CURVE SMOOTH",
"34 339 OFFCURVE",
"34 332 OFFCURVE",
"35 327 CURVE",
"139 327 LINE",
"139 340 LINE SMOOTH",
"139 362 OFFCURVE",
"151 389 OFFCURVE",
"194 389 CURVE SMOOTH",
"235 389 OFFCURVE",
"243 363 OFFCURVE",
"243 331 CURVE SMOOTH",
"243 283 LINE",
"108 283 OFFCURVE",
"12 246 OFFCURVE",
"12 120 CURVE SMOOTH",
"12 12 OFFCURVE",
"86 -11 OFFCURVE",
"129 -11 CURVE SMOOTH",
"191 -11 OFFCURVE",
"220 13 OFFCURVE",
"247 50 CURVE",
"251 50 LINE",
"262 14 OFFCURVE",
"291 -11 OFFCURVE",
"333 -11 CURVE SMOOTH",
"365 -11 OFFCURVE",
"385 -3 OFFCURVE",
"396 4 CURVE",
"396 79 LINE",
"375 79 LINE SMOOTH",
"362 79 OFFCURVE",
"350 88 OFFCURVE",
"350 110 CURVE SMOOTH",
"350 339 LINE SMOOTH",
"350 425 OFFCURVE",
"300 476 OFFCURVE",
"192 476 CURVE SMOOTH"
);
},
{
closed = 1;
nodes = (
"243 179 LINE",
"243 125 OFFCURVE",
"224 78 OFFCURVE",
"173 78 CURVE SMOOTH",
"137 78 OFFCURVE",
"121 98 OFFCURVE",
"121 130 CURVE SMOOTH",
"121 190 OFFCURVE",
"181 206 OFFCURVE",
"243 206 CURVE"
);
},
{
closed = 1;
nodes = (
"313 639 LINE",
"207 639 LINE",
"131 522 LINE",
"218 522 LINE",
"314 636 LINE"
);
}
);
width = 403;
}
);
unicode = 00E1;
},
{
glyphname = abreve;
layers = (
{
layerId = "3E4994DA-6C35-486D-9CDD-3005170E1289";
name = Bold;
paths = (
{
closed = 1;
nodes = (
"96 476 OFFCURVE",
"34 424 OFFCURVE",
"34 347 CURVE SMOOTH",
"34 339 OFFCURVE",
"34 332 OFFCURVE",
"35 327 CURVE",
"139 327 LINE",
"139 340 LINE SMOOTH",
"139 362 OFFCURVE",
"151 389 OFFCURVE",
"194 389 CURVE SMOOTH",
"235 389 OFFCURVE",
"243 363 OFFCURVE",
"243 331 CURVE SMOOTH",
"243 283 LINE",
"108 283 OFFCURVE",
"12 246 OFFCURVE",
"12 120 CURVE SMOOTH",
"12 12 OFFCURVE",
"86 -11 OFFCURVE",
"129 -11 CURVE SMOOTH",
"191 -11 OFFCURVE",
"220 13 OFFCURVE",
"247 50 CURVE",
"251 50 LINE",
"262 14 OFFCURVE",
"291 -11 OFFCURVE",
"333 -11 CURVE SMOOTH",
"365 -11 OFFCURVE",
"385 -3 OFFCURVE",
"396 4 CURVE",
"396 79 LINE",
"375 79 LINE SMOOTH",
"362 79 OFFCURVE",
"350 88 OFFCURVE",
"350 110 CURVE SMOOTH",
"350 339 LINE SMOOTH",
"350 425 OFFCURVE",
"300 476 OFFCURVE",
"192 476 CURVE SMOOTH"
);
},
{
closed = 1;
nodes = (
"243 179 LINE",
"243 125 OFFCURVE",
"224 78 OFFCURVE",
"173 78 CURVE SMOOTH",
"137 78 OFFCURVE",
"121 98 OFFCURVE",
"121 130 CURVE SMOOTH",
"121 190 OFFCURVE",
"181 206 OFFCURVE",
"243 206 CURVE"
);
},
{
closed = 1;
nodes = (
"244 639 LINE",
"242 627 OFFCURVE",
"221 610 OFFCURVE",
"191 610 CURVE SMOOTH",
"163 610 OFFCURVE",
"142 627 OFFCURVE",
"140 639 CURVE",
"73 639 LINE",
"73 595 OFFCURVE",
"118 545 OFFCURVE",
"191 545 CURVE SMOOTH",
"264 545 OFFCURVE",
"310 595 OFFCURVE",
"310 639 CURVE"
);
}
);
width = 403;
}
);
unicode = 0103;
},
{
glyphname = acircumflex;
layers = (
{
layerId = "3E4994DA-6C35-486D-9CDD-3005170E1289";
name = Bold;
paths = (
{
closed = 1;
nodes = (
"96 476 OFFCURVE",
"34 424 OFFCURVE",
"34 347 CURVE SMOOTH",
"34 339 OFFCURVE",
"34 332 OFFCURVE",
"35 327 CURVE",
"139 327 LINE",
"139 340 LINE SMOOTH",
"139 362 OFFCURVE",
"151 389 OFFCURVE",
"194 389 CURVE SMOOTH",
"235 389 OFFCURVE",
"243 363 OFFCURVE",
"243 331 CURVE SMOOTH",
"243 283 LINE",
"108 283 OFFCURVE",
"12 246 OFFCURVE",
"12 120 CURVE SMOOTH",
"12 12 OFFCURVE",
"86 -11 OFFCURVE",
"129 -11 CURVE SMOOTH",
"191 -11 OFFCURVE",
"220 13 OFFCURVE",
"247 50 CURVE",
"251 50 LINE",
"262 14 OFFCURVE",
"291 -11 OFFCURVE",
"333 -11 CURVE SMOOTH",
"365 -11 OFFCURVE",
"385 -3 OFFCURVE",
"396 4 CURVE",
"396 79 LINE",
"375 79 LINE SMOOTH",
"362 79 OFFCURVE",
"350 88 OFFCURVE",
"350 110 CURVE SMOOTH",
"350 339 LINE SMOOTH",
"350 425 OFFCURVE",
"300 476 OFFCURVE",
"192 476 CURVE SMOOTH"
);
},
{
closed = 1;
nodes = (
"243 179 LINE",
"243 125 OFFCURVE",
"224 78 OFFCURVE",
"173 78 CURVE SMOOTH",
"137 78 OFFCURVE",
"121 98 OFFCURVE",
"121 130 CURVE SMOOTH",
"121 190 OFFCURVE",
"181 206 OFFCURVE",
"243 206 CURVE"
);
},
{
closed = 1;
nodes = (
"311 520 LINE",
"236 639 LINE",
"149 639 LINE",
"73 520 LINE",
"152 520 LINE",
"192 581 LINE",
"232 520 LINE"
);
}
);
width = 403;
}
);
unicode = 00E2;
},
{
glyphname = adieresis;
layers = (
{
layerId = "3E4994DA-6C35-486D-9CDD-3005170E1289";
name = Bold;
paths = (
{
closed = 1;
nodes = (
"96 476 OFFCURVE",
"34 424 OFFCURVE",
"34 347 CURVE SMOOTH",
"34 339 OFFCURVE",
"34 332 OFFCURVE",
"35 327 CURVE",
"139 327 LINE",
"139 340 LINE SMOOTH",
"139 362 OFFCURVE",
"151 389 OFFCURVE",
"194 389 CURVE SMOOTH",
"235 389 OFFCURVE",
"243 363 OFFCURVE",
"243 331 CURVE SMOOTH",
"243 283 LINE",
"108 283 OFFCURVE",
"12 246 OFFCURVE",
"12 120 CURVE SMOOTH",
"12 12 OFFCURVE",
"86 -11 OFFCURVE",
"129 -11 CURVE SMOOTH",
"191 -11 OFFCURVE",
"220 13 OFFCURVE",
"247 50 CURVE",
"251 50 LINE",
"262 14 OFFCURVE",
"291 -11 OFFCURVE",
"333 -11 CURVE SMOOTH",
"365 -11 OFFCURVE",
"385 -3 OFFCURVE",
"396 4 CURVE",
"396 79 LINE",
"375 79 LINE SMOOTH",
"362 79 OFFCURVE",
"350 88 OFFCURVE",
"350 110 CURVE SMOOTH",
"350 339 LINE SMOOTH",
"350 425 OFFCURVE",
"300 476 OFFCURVE",
"192 476 CURVE SMOOTH"
);
},
{
closed = 1;
nodes = (
"243 179 LINE",
"243 125 OFFCURVE",
"224 78 OFFCURVE",
"173 78 CURVE SMOOTH",
"137 78 OFFCURVE",
"121 98 OFFCURVE",
"121 130 CURVE SMOOTH",
"121 190 OFFCURVE",
"181 206 OFFCURVE",
"243 206 CURVE"
);
},
{
closed = 1;
nodes = (
"159 639 LINE",
"71 639 LINE",
"71 543 LINE",
"159 543 LINE"
);
},
{
closed = 1;
nodes = (
"313 639 LINE",
"225 639 LINE",
"225 543 LINE",
"313 543 LINE"
);
}
);
width = 403;
}
);
unicode = 00E4;
},
{
glyphname = agrave;
layers = (
{
layerId = "3E4994DA-6C35-486D-9CDD-3005170E1289";
name = Bold;
paths = (
{
closed = 1;
nodes = (
"96 476 OFFCURVE",
"34 424 OFFCURVE",
"34 347 CURVE SMOOTH",
"34 339 OFFCURVE",
"34 332 OFFCURVE",
"35 327 CURVE",
"139 327 LINE",
"139 340 LINE SMOOTH",
"139 362 OFFCURVE",
"151 389 OFFCURVE",
"194 389 CURVE SMOOTH",
"235 389 OFFCURVE",
"243 363 OFFCURVE",
"243 331 CURVE SMOOTH",
"243 283 LINE",
"108 283 OFFCURVE",
"12 246 OFFCURVE",
"12 120 CURVE SMOOTH",
"12 12 OFFCURVE",
"86 -11 OFFCURVE",
"129 -11 CURVE SMOOTH",
"191 -11 OFFCURVE",
"220 13 OFFCURVE",
"247 50 CURVE",
"251 50 LINE",
"262 14 OFFCURVE",
"291 -11 OFFCURVE",
"333 -11 CURVE SMOOTH",
"365 -11 OFFCURVE",
"385 -3 OFFCURVE",
"396 4 CURVE",
"396 79 LINE",
"375 79 LINE SMOOTH",
"362 79 OFFCURVE",
"350 88 OFFCURVE",
"350 110 CURVE SMOOTH",
"350 339 LINE SMOOTH",
"350 425 OFFCURVE",
"300 476 OFFCURVE",
"192 476 CURVE SMOOTH"
);
},
{
closed = 1;
nodes = (
"243 179 LINE",
"243 125 OFFCURVE",
"224 78 OFFCURVE",
"173 78 CURVE SMOOTH",
"137 78 OFFCURVE",
"121 98 OFFCURVE",
"121 130 CURVE SMOOTH",
"121 190 OFFCURVE",
"181 206 OFFCURVE",
"243 206 CURVE"
);
},
{
closed = 1;
nodes = (
"177 639 LINE",
"71 639 LINE",
"70 636 LINE",
"165 522 LINE",
"253 522 LINE"
);
}
);
width = 403;
}
);
unicode = 00E0;
},
{
glyphname = amacron;
layers = (
{
layerId = "3E4994DA-6C35-486D-9CDD-3005170E1289";
name = Bold;
paths = (
{
closed = 1;
nodes = (
"96 476 OFFCURVE",
"34 424 OFFCURVE",
"34 347 CURVE SMOOTH",
"34 339 OFFCURVE",
"34 332 OFFCURVE",
"35 327 CURVE",
"139 327 LINE",
"139 340 LINE SMOOTH",
"139 362 OFFCURVE",
"151 389 OFFCURVE",
"194 389 CURVE SMOOTH",
"235 389 OFFCURVE",
"243 363 OFFCURVE",
"243 331 CURVE SMOOTH",
"243 283 LINE",
"108 283 OFFCURVE",
"12 246 OFFCURVE",
"12 120 CURVE SMOOTH",
"12 12 OFFCURVE",
"86 -11 OFFCURVE",
"129 -11 CURVE SMOOTH",
"191 -11 OFFCURVE",
"220 13 OFFCURVE",
"247 50 CURVE",
"251 50 LINE",
"262 14 OFFCURVE",
"291 -11 OFFCURVE",
"333 -11 CURVE SMOOTH",
"365 -11 OFFCURVE",
"385 -3 OFFCURVE",
"396 4 CURVE",
"396 79 LINE",
"375 79 LINE SMOOTH",
"362 79 OFFCURVE",
"350 88 OFFCURVE",
"350 110 CURVE SMOOTH",
"350 339 LINE SMOOTH",
"350 425 OFFCURVE",
"300 476 OFFCURVE",
"192 476 CURVE SMOOTH"
);
},
{
closed = 1;
nodes = (
"243 179 LINE",
"243 125 OFFCURVE",
"224 78 OFFCURVE",
"173 78 CURVE SMOOTH",
"137 78 OFFCURVE",
"121 98 OFFCURVE",
"121 130 CURVE SMOOTH",
"121 190 OFFCURVE",
"181 206 OFFCURVE",
"243 206 CURVE"
);
},
{
closed = 1;
nodes = (
"305 530 LINE",
"305 606 LINE",
"79 606 LINE",
"79 530 LINE"
);
}
);
width = 403;
}
);
unicode = 0101;
},
{
glyphname = aogonek;
layers = (
{
layerId = "3E4994DA-6C35-486D-9CDD-3005170E1289";
name = Bold;
paths = (
{
closed = 1;
nodes = (
"429 -103 LINE",
"409 -103 LINE SMOOTH",
"380 -103 OFFCURVE",
"370 -81 OFFCURVE",
"370 -58 CURVE SMOOTH",
"370 -34 OFFCURVE",
"386 -9 OFFCURVE",
"396 4 CURVE",
"396 79 LINE",
"375 79 LINE SMOOTH",
"362 79 OFFCURVE",
"350 88 OFFCURVE",
"350 110 CURVE SMOOTH",
"350 339 LINE SMOOTH",
"350 425 OFFCURVE",
"300 476 OFFCURVE",
"192 476 CURVE SMOOTH",
"96 476 OFFCURVE",
"34 424 OFFCURVE",
"34 347 CURVE SMOOTH",
"34 339 OFFCURVE",
"34 332 OFFCURVE",
"35 327 CURVE",
"139 327 LINE",
"139 340 LINE SMOOTH",
"139 362 OFFCURVE",
"151 389 OFFCURVE",
"194 389 CURVE SMOOTH",
"235 389 OFFCURVE",
"243 363 OFFCURVE",
"243 331 CURVE SMOOTH",
"243 283 LINE",
"108 283 OFFCURVE",
"12 246 OFFCURVE",
"12 120 CURVE SMOOTH",
"12 12 OFFCURVE",
"86 -11 OFFCURVE",
"129 -11 CURVE SMOOTH",
"191 -11 OFFCURVE",
"220 13 OFFCURVE",
"247 50 CURVE",
"251 50 LINE",
"260 21 OFFCURVE",
"280 -1 OFFCURVE",
"310 -8 CURVE",
"294 -27 OFFCURVE",
"283 -50 OFFCURVE",
"283 -85 CURVE SMOOTH",
"283 -146 OFFCURVE",
"331 -164 OFFCURVE",
"370 -164 CURVE SMOOTH",
"390 -164 OFFCURVE",
"408 -160 OFFCURVE",
"429 -152 CURVE"
);
},
{
closed = 1;
nodes = (
"243 179 LINE",
"243 125 OFFCURVE",
"224 78 OFFCURVE",
"173 78 CURVE SMOOTH",
"137 78 OFFCURVE",
"121 98 OFFCURVE",
"121 130 CURVE SMOOTH",
"121 190 OFFCURVE",
"181 206 OFFCURVE",
"243 206 CURVE"
);
}
);
width = 403;
}
);
unicode = 0105;
},
{
glyphname = aring;
layers = (
{
layerId = "3E4994DA-6C35-486D-9CDD-3005170E1289";
name = Bold;
paths = (
{
closed = 1;
nodes = (
"96 476 OFFCURVE",
"34 424 OFFCURVE",
"34 347 CURVE SMOOTH",
"34 339 OFFCURVE",
"34 332 OFFCURVE",
"35 327 CURVE",
"139 327 LINE",
"139 340 LINE SMOOTH",
"139 362 OFFCURVE",
"151 389 OFFCURVE",
"194 389 CURVE SMOOTH",
"235 389 OFFCURVE",
"243 363 OFFCURVE",
"243 331 CURVE SMOOTH",
"243 283 LINE",
"108 283 OFFCURVE",
"12 246 OFFCURVE",
"12 120 CURVE SMOOTH",
"12 12 OFFCURVE",
"86 -11 OFFCURVE",
"129 -11 CURVE SMOOTH",
"191 -11 OFFCURVE",
"220 13 OFFCURVE",
"247 50 CURVE",
"251 50 LINE",
"262 14 OFFCURVE",
"291 -11 OFFCURVE",
"333 -11 CURVE SMOOTH",
"365 -11 OFFCURVE",
"385 -3 OFFCURVE",
"396 4 CURVE",
"396 79 LINE",
"375 79 LINE SMOOTH",
"362 79 OFFCURVE",
"350 88 OFFCURVE",
"350 110 CURVE SMOOTH",
"350 339 LINE SMOOTH",
"350 425 OFFCURVE",
"300 476 OFFCURVE",
"192 476 CURVE SMOOTH"
);
},
{
closed = 1;
nodes = (
"243 179 LINE",
"243 125 OFFCURVE",
"224 78 OFFCURVE",
"173 78 CURVE SMOOTH",
"137 78 OFFCURVE",
"121 98 OFFCURVE",
"121 130 CURVE SMOOTH",
"121 190 OFFCURVE",
"181 206 OFFCURVE",
"243 206 CURVE"
);
},
{
closed = 1;
nodes = (
"145 666 OFFCURVE",
"107 628 OFFCURVE",
"107 581 CURVE SMOOTH",
"107 533 OFFCURVE",
"146 496 OFFCURVE",
"192 496 CURVE SMOOTH",
"239 496 OFFCURVE",
"277 534 OFFCURVE",
"277 581 CURVE SMOOTH",
"277 627 OFFCURVE",
"240 666 OFFCURVE",
"192 666 CURVE SMOOTH"
);
},
{
closed = 1;
nodes = (
"214 621 OFFCURVE",
"232 604 OFFCURVE",
"232 581 CURVE SMOOTH",
"232 558 OFFCURVE",
"214 540 OFFCURVE",
"192 540 CURVE SMOOTH",
"169 540 OFFCURVE",
"151 558 OFFCURVE",
"151 581 CURVE SMOOTH",
"151 604 OFFCURVE",
"169 621 OFFCURVE",
"192 621 CURVE SMOOTH"
);
}
);
width = 403;
}
);
unicode = 00E5;
},
{
glyphname = aringacute;
layers = (
{
layerId = "3E4994DA-6C35-486D-9CDD-3005170E1289";
name = Bold;
paths = (
{
closed = 1;
nodes = (
"96 476 OFFCURVE",
"34 424 OFFCURVE",
"34 347 CURVE SMOOTH",
"34 339 OFFCURVE",
"34 332 OFFCURVE",
"35 327 CURVE",
"139 327 LINE",
"139 340 LINE SMOOTH",
"139 362 OFFCURVE",
"151 389 OFFCURVE",
"194 389 CURVE SMOOTH",
"235 389 OFFCURVE",
"243 363 OFFCURVE",
"243 331 CURVE SMOOTH",
"243 283 LINE",
"108 283 OFFCURVE",
"12 246 OFFCURVE",
"12 120 CURVE SMOOTH",
"12 12 OFFCURVE",
"86 -11 OFFCURVE",
"129 -11 CURVE SMOOTH",
"191 -11 OFFCURVE",
"220 13 OFFCURVE",
"247 50 CURVE",
"251 50 LINE",
"262 14 OFFCURVE",
"291 -11 OFFCURVE",
"333 -11 CURVE SMOOTH",
"365 -11 OFFCURVE",
"385 -3 OFFCURVE",
"396 4 CURVE",
"396 79 LINE",
"375 79 LINE SMOOTH",
"362 79 OFFCURVE",
"350 88 OFFCURVE",
"350 110 CURVE SMOOTH",
"350 339 LINE SMOOTH",
"350 425 OFFCURVE",
"300 476 OFFCURVE",
"192 476 CURVE SMOOTH"
);
},
{
closed = 1;
nodes = (
"243 179 LINE",
"243 125 OFFCURVE",
"224 78 OFFCURVE",
"173 78 CURVE SMOOTH",
"137 78 OFFCURVE",
"121 98 OFFCURVE",
"121 130 CURVE SMOOTH",
"121 190 OFFCURVE",
"181 206 OFFCURVE",
"243 206 CURVE"
);
},
{
closed = 1;
nodes = (
"214 617 OFFCURVE",
"232 600 OFFCURVE",
"232 578 CURVE SMOOTH",
"232 555 OFFCURVE",
"214 538 OFFCURVE",
"192 538 CURVE SMOOTH",
"169 538 OFFCURVE",
"151 555 OFFCURVE",
"151 578 CURVE SMOOTH",
"151 600 OFFCURVE",
"169 617 OFFCURVE",
"192 617 CURVE SMOOTH"
);
},
{
closed = 1;
nodes = (
"145 660 OFFCURVE",
"107 623 OFFCURVE",
"107 578 CURVE SMOOTH",
"107 532 OFFCURVE",
"146 496 OFFCURVE",
"192 496 CURVE SMOOTH",
"239 496 OFFCURVE",
"277 533 OFFCURVE",
"277 578 CURVE SMOOTH",
"277 622 OFFCURVE",
"240 660 OFFCURVE",
"192 660 CURVE SMOOTH"
);
},
{
closed = 1;
nodes = (
"326 781 LINE",
"220 781 LINE",
"154 679 LINE",
"241 679 LINE",
"327 778 LINE"
);
}
);
width = 442;
}
);
unicode = 01FB;
},
{
glyphname = atilde;
layers = (
{
layerId = "3E4994DA-6C35-486D-9CDD-3005170E1289";
name = Bold;
paths = (
{
closed = 1;
nodes = (
"96 476 OFFCURVE",
"34 424 OFFCURVE",
"34 347 CURVE SMOOTH",
"34 339 OFFCURVE",
"34 332 OFFCURVE",
"35 327 CURVE",
"139 327 LINE",
"139 340 LINE SMOOTH",
"139 362 OFFCURVE",
"151 389 OFFCURVE",
"194 389 CURVE SMOOTH",
"235 389 OFFCURVE",
"243 363 OFFCURVE",
"243 331 CURVE SMOOTH",
"243 283 LINE",
"108 283 OFFCURVE",
"12 246 OFFCURVE",
"12 120 CURVE SMOOTH",
"12 12 OFFCURVE",
"86 -11 OFFCURVE",
"129 -11 CURVE SMOOTH",
"191 -11 OFFCURVE",
"220 13 OFFCURVE",
"247 50 CURVE",
"251 50 LINE",
"262 14 OFFCURVE",
"291 -11 OFFCURVE",
"333 -11 CURVE SMOOTH",
"365 -11 OFFCURVE",
"385 -3 OFFCURVE",
"396 4 CURVE",
"396 79 LINE",
"375 79 LINE SMOOTH",
"362 79 OFFCURVE",
"350 88 OFFCURVE",
"350 110 CURVE SMOOTH",
"350 339 LINE SMOOTH",
"350 425 OFFCURVE",
"300 476 OFFCURVE",
"192 476 CURVE SMOOTH"
);
},
{
closed = 1;
nodes = (
"243 179 LINE",
"243 125 OFFCURVE",
"224 78 OFFCURVE",
"173 78 CURVE SMOOTH",
"137 78 OFFCURVE",
"121 98 OFFCURVE",
"121 130 CURVE SMOOTH",
"121 190 OFFCURVE",
"181 206 OFFCURVE",
"243 206 CURVE"
);
},
{
closed = 1;
nodes = (
"282 639 LINE",
"278 614 OFFCURVE",
"266 606 OFFCURVE",
"248 606 CURVE SMOOTH",
"208 606 OFFCURVE",
"173 639 OFFCURVE",
"130 639 CURVE SMOOTH",
"68 639 OFFCURVE",
"43 580 OFFCURVE",
"43 531 CURVE",
"102 531 LINE",
"105 555 OFFCURVE",
"118 564 OFFCURVE",
"136 564 CURVE SMOOTH",
"176 564 OFFCURVE",
"210 531 OFFCURVE",
"253 531 CURVE SMOOTH",
"316 531 OFFCURVE",
"340 591 OFFCURVE",
"340 639 CURVE"
);
}
);
width = 403;
}
);
unicode = 00E3;
},
{
glyphname = ae;
layers = (
{
anchors = (
{
name = top;
position = "{323, 465}";
}
);
layerId = "3E4994DA-6C35-486D-9CDD-3005170E1289";
name = Bold;
paths = (
{
closed = 1;
nodes = (
"397 476 OFFCURVE",
"360 461 OFFCURVE",
"331 431 CURVE",
"305 460 OFFCURVE",
"265 476 OFFCURVE",
"212 476 CURVE SMOOTH",
"117 476 OFFCURVE",
"55 424 OFFCURVE",
"55 347 CURVE SMOOTH",
"55 339 OFFCURVE",
"55 332 OFFCURVE",
"56 327 CURVE",
"159 327 LINE",
"159 340 LINE SMOOTH",
"159 362 OFFCURVE",
"171 389 OFFCURVE",
"215 389 CURVE SMOOTH",
"255 389 OFFCURVE",
"263 363 OFFCURVE",
"263 331 CURVE SMOOTH",
"263 283 LINE",
"128 283 OFFCURVE",
"33 246 OFFCURVE",
"33 120 CURVE SMOOTH",
"33 12 OFFCURVE",
"117 -11 OFFCURVE",
"167 -11 CURVE SMOOTH",
"232 -11 OFFCURVE",
"273 15 OFFCURVE",
"307 52 CURVE",
"337 10 OFFCURVE",
"384 -11 OFFCURVE",
"446 -11 CURVE SMOOTH",
"540 -11 OFFCURVE",
"610 45 OFFCURVE",
"610 164 CURVE",
"505 164 LINE",
"505 109 OFFCURVE",
"482 76 OFFCURVE",
"446 76 CURVE SMOOTH",
"393 76 OFFCURVE",
"375 123 OFFCURVE",
"374 206 CURVE",
"610 206 LINE",
"610 232 LINE SMOOTH",
"610 400 OFFCURVE",
"554 476 OFFCURVE",
"442 476 CURVE SMOOTH"
);
},
{
closed = 1;
nodes = (
"263 179 LINE",
"263 125 OFFCURVE",
"244 78 OFFCURVE",
"194 78 CURVE SMOOTH",
"157 78 OFFCURVE",
"141 98 OFFCURVE",
"141 130 CURVE SMOOTH",
"141 190 OFFCURVE",
"202 206 OFFCURVE",
"263 206 CURVE"
);
},
{
closed = 1;
nodes = (
"481 389 OFFCURVE",
"499 350 OFFCURVE",
"499 283 CURVE",
"375 283 LINE",
"378 350 OFFCURVE",
"397 389 OFFCURVE",
"442 389 CURVE SMOOTH"
);
}
);
width = 644;
}
);
unicode = 00E6;
},
{
glyphname = aeacute;
layers = (
{
layerId = "3E4994DA-6C35-486D-9CDD-3005170E1289";
name = Bold;
paths = (
{
closed = 1;
nodes = (
"397 476 OFFCURVE",
"360 461 OFFCURVE",
"331 431 CURVE",
"305 460 OFFCURVE",
"265 476 OFFCURVE",
"212 476 CURVE SMOOTH",
"117 476 OFFCURVE",
"55 424 OFFCURVE",
"55 347 CURVE SMOOTH",
"55 339 OFFCURVE",
"55 332 OFFCURVE",
"56 327 CURVE",
"159 327 LINE",
"159 340 LINE SMOOTH",
"159 362 OFFCURVE",
"171 389 OFFCURVE",
"215 389 CURVE SMOOTH",
"255 389 OFFCURVE",
"263 363 OFFCURVE",
"263 331 CURVE SMOOTH",
"263 283 LINE",
"128 283 OFFCURVE",
"33 246 OFFCURVE",
"33 120 CURVE SMOOTH",
"33 12 OFFCURVE",
"117 -11 OFFCURVE",
"167 -11 CURVE SMOOTH",
"232 -11 OFFCURVE",
"273 15 OFFCURVE",
"307 52 CURVE",
"337 10 OFFCURVE",
"384 -11 OFFCURVE",
"446 -11 CURVE SMOOTH",
"540 -11 OFFCURVE",
"610 45 OFFCURVE",
"610 164 CURVE",
"505 164 LINE",
"505 109 OFFCURVE",
"482 76 OFFCURVE",
"446 76 CURVE SMOOTH",
"393 76 OFFCURVE",
"375 123 OFFCURVE",
"374 206 CURVE",
"610 206 LINE",
"610 232 LINE SMOOTH",
"610 400 OFFCURVE",
"554 476 OFFCURVE",
"442 476 CURVE SMOOTH"
);
},
{
closed = 1;
nodes = (
"263 179 LINE",
"263 125 OFFCURVE",
"244 78 OFFCURVE",
"194 78 CURVE SMOOTH",
"157 78 OFFCURVE",
"141 98 OFFCURVE",
"141 130 CURVE SMOOTH",
"141 190 OFFCURVE",
"202 206 OFFCURVE",
"263 206 CURVE"
);
},
{
closed = 1;
nodes = (
"481 389 OFFCURVE",
"499 350 OFFCURVE",
"499 283 CURVE",
"375 283 LINE",
"378 350 OFFCURVE",
"397 389 OFFCURVE",
"442 389 CURVE SMOOTH"
);
},
{
closed = 1;
nodes = (
"444 639 LINE",
"338 639 LINE",
"262 522 LINE",
"349 522 LINE",
"445 636 LINE"
);
}
);
width = 644;
}
);
unicode = 01FD;
},
{
glyphname = b;
layers = (
{
layerId = "3E4994DA-6C35-486D-9CDD-3005170E1289";
name = Bold;
paths = (
{
closed = 1;
nodes = (
"155 639 LINE",
"49 639 LINE",
"49 0 LINE",
"137 0 LINE",
"148 57 LINE",
"152 57 LINE",
"175 12 OFFCURVE",
"213 -11 OFFCURVE",
"257 -11 CURVE SMOOTH",
"349 -11 OFFCURVE",
"407 65 OFFCURVE",
"407 233 CURVE SMOOTH",
"407 402 OFFCURVE",
"345 476 OFFCURVE",
"263 476 CURVE SMOOTH",
"216 476 OFFCURVE",
"176 454 OFFCURVE",
"159 417 CURVE",
"155 417 LINE"
);
},
{
closed = 1;
nodes = (
"277 379 OFFCURVE",
"296 333 OFFCURVE",
"296 249 CURVE SMOOTH",
"296 216 LINE SMOOTH",
"296 132 OFFCURVE",
"277 86 OFFCURVE",
"225 86 CURVE SMOOTH",
"174 86 OFFCURVE",
"155 132 OFFCURVE",
"155 216 CURVE SMOOTH",
"155 248 LINE SMOOTH",
"155 331 OFFCURVE",
"174 379 OFFCURVE",
"225 379 CURVE SMOOTH"
);
}
);
width = 443;
}
);
unicode = 0062;
},
{
glyphname = c;
layers = (
{
anchors = (
{
name = bottom;
position = "{202, 0}";
},
{
name = top;
position = "{202, 465}";
}
);
layerId = "3E4994DA-6C35-486D-9CDD-3005170E1289";
name = Bold;
paths = (
{
closed = 1;
nodes = (
"94 476 OFFCURVE",
"36 400 OFFCURVE",
"36 232 CURVE SMOOTH",
"36 65 OFFCURVE",
"91 -11 OFFCURVE",
"212 -11 CURVE SMOOTH",
"309 -11 OFFCURVE",
"371 45 OFFCURVE",
"371 175 CURVE",
"266 175 LINE",
"266 111 OFFCURVE",
"250 79 OFFCURVE",
"212 79 CURVE SMOOTH",
"164 79 OFFCURVE",
"147 126 OFFCURVE",
"147 216 CURVE SMOOTH",
"147 249 LINE SMOOTH",
"147 339 OFFCURVE",
"164 386 OFFCURVE",
"209 386 CURVE SMOOTH",
"245 386 OFFCURVE",
"263 355 OFFCURVE",
"263 290 CURVE",
"371 290 LINE",
"371 420 OFFCURVE",
"308 476 OFFCURVE",
"209 476 CURVE SMOOTH"
);
}
);
width = 403;
}
);
unicode = 0063;
},
{
glyphname = cacute;
layers = (
{
layerId = "3E4994DA-6C35-486D-9CDD-3005170E1289";
name = Bold;
paths = (
{
closed = 1;
nodes = (
"94 476 OFFCURVE",
"36 400 OFFCURVE",
"36 232 CURVE SMOOTH",
"36 65 OFFCURVE",
"91 -11 OFFCURVE",
"212 -11 CURVE SMOOTH",
"309 -11 OFFCURVE",
"371 45 OFFCURVE",
"371 175 CURVE",
"266 175 LINE",
"266 111 OFFCURVE",
"250 79 OFFCURVE",
"212 79 CURVE SMOOTH",
"164 79 OFFCURVE",
"147 126 OFFCURVE",
"147 216 CURVE SMOOTH",
"147 249 LINE SMOOTH",
"147 339 OFFCURVE",
"164 386 OFFCURVE",
"209 386 CURVE SMOOTH",
"245 386 OFFCURVE",
"263 355 OFFCURVE",
"263 290 CURVE",
"371 290 LINE",
"371 420 OFFCURVE",
"308 476 OFFCURVE",
"209 476 CURVE SMOOTH"
);
},
{
closed = 1;
nodes = (
"331 639 LINE",
"225 639 LINE",
"149 522 LINE",
"237 522 LINE",
"331 636 LINE"
);
}
);
width = 403;
}
);
unicode = 0107;
},
{
glyphname = ccaron;
layers = (
{
layerId = "3E4994DA-6C35-486D-9CDD-3005170E1289";
name = Bold;
paths = (
{
closed = 1;
nodes = (
"94 476 OFFCURVE",
"36 400 OFFCURVE",
"36 232 CURVE SMOOTH",
"36 65 OFFCURVE",
"91 -11 OFFCURVE",
"212 -11 CURVE SMOOTH",
"309 -11 OFFCURVE",
"371 45 OFFCURVE",
"371 175 CURVE",
"266 175 LINE",
"266 111 OFFCURVE",
"250 79 OFFCURVE",
"212 79 CURVE SMOOTH",
"164 79 OFFCURVE",
"147 126 OFFCURVE",
"147 216 CURVE SMOOTH",
"147 249 LINE SMOOTH",
"147 339 OFFCURVE",
"164 386 OFFCURVE",
"209 386 CURVE SMOOTH",
"245 386 OFFCURVE",
"263 355 OFFCURVE",
"263 290 CURVE",
"371 290 LINE",
"371 420 OFFCURVE",
"308 476 OFFCURVE",
"209 476 CURVE SMOOTH"
);
},
{
closed = 1;
nodes = (
"254 520 LINE",
"329 639 LINE",
"249 639 LINE",
"210 578 LINE",
"171 639 LINE",
"91 639 LINE",
"167 520 LINE"
);
}
);
width = 403;
}
);
unicode = 010D;
},
{
glyphname = ccedilla;
layers = (
{
layerId = "3E4994DA-6C35-486D-9CDD-3005170E1289";
name = Bold;
paths = (
{
closed = 1;
nodes = (
"94 476 OFFCURVE",
"36 400 OFFCURVE",
"36 232 CURVE SMOOTH",
"36 85 OFFCURVE",
"79 8 OFFCURVE",
"172 -7 CURVE",
"165 -68 LINE",
"194 -68 LINE SMOOTH",
"217 -68 OFFCURVE",
"224 -75 OFFCURVE",
"224 -89 CURVE SMOOTH",
"224 -106 OFFCURVE",
"211 -111 OFFCURVE",
"192 -111 CURVE SMOOTH",
"129 -111 LINE",
"129 -154 LINE",
"150 -158 OFFCURVE",
"179 -161 OFFCURVE",
"203 -161 CURVE SMOOTH",
"241 -161 OFFCURVE",
"300 -149 OFFCURVE",
"300 -89 CURVE SMOOTH",
"300 -49 OFFCURVE",
"268 -32 OFFCURVE",
"230 -29 CURVE",
"232 -10 LINE",
"317 -2 OFFCURVE",
"371 54 OFFCURVE",
"371 175 CURVE",
"266 175 LINE",
"266 111 OFFCURVE",
"250 79 OFFCURVE",
"212 79 CURVE SMOOTH",
"164 79 OFFCURVE",
"147 126 OFFCURVE",
"147 216 CURVE SMOOTH",
"147 249 LINE SMOOTH",
"147 339 OFFCURVE",
"164 386 OFFCURVE",
"209 386 CURVE SMOOTH",
"245 386 OFFCURVE",
"263 355 OFFCURVE",
"263 290 CURVE",
"371 290 LINE",
"371 420 OFFCURVE",
"308 476 OFFCURVE",
"209 476 CURVE SMOOTH"
);
}
);
width = 403;
}
);
unicode = 00E7;
},
{
glyphname = ccircumflex;
layers = (
{
layerId = "3E4994DA-6C35-486D-9CDD-3005170E1289";
name = Bold;
paths = (
{
closed = 1;
nodes = (
"94 476 OFFCURVE",
"36 400 OFFCURVE",
"36 232 CURVE SMOOTH",
"36 65 OFFCURVE",
"91 -11 OFFCURVE",
"212 -11 CURVE SMOOTH",
"309 -11 OFFCURVE",
"371 45 OFFCURVE",
"371 175 CURVE",
"266 175 LINE",
"266 111 OFFCURVE",
"250 79 OFFCURVE",
"212 79 CURVE SMOOTH",
"164 79 OFFCURVE",
"147 126 OFFCURVE",
"147 216 CURVE SMOOTH",
"147 249 LINE SMOOTH",
"147 339 OFFCURVE",
"164 386 OFFCURVE",
"209 386 CURVE SMOOTH",
"245 386 OFFCURVE",
"263 355 OFFCURVE",
"263 290 CURVE",
"371 290 LINE",
"371 420 OFFCURVE",
"308 476 OFFCURVE",
"209 476 CURVE SMOOTH"
);
},
{
closed = 1;
nodes = (
"329 520 LINE",
"254 639 LINE",
"167 639 LINE",
"91 520 LINE",
"171 520 LINE",
"210 581 LINE",
"249 520 LINE"
);
}
);
width = 403;
}
);
unicode = 0109;
},
{
glyphname = cdotaccent;
layers = (
{
layerId = "3E4994DA-6C35-486D-9CDD-3005170E1289";
name = Bold;
paths = (
{
closed = 1;
nodes = (
"94 476 OFFCURVE",
"36 400 OFFCURVE",
"36 232 CURVE SMOOTH",
"36 65 OFFCURVE",
"91 -11 OFFCURVE",
"212 -11 CURVE SMOOTH",
"309 -11 OFFCURVE",
"371 45 OFFCURVE",
"371 175 CURVE",
"266 175 LINE",
"266 111 OFFCURVE",
"250 79 OFFCURVE",
"212 79 CURVE SMOOTH",
"164 79 OFFCURVE",
"147 126 OFFCURVE",
"147 216 CURVE SMOOTH",
"147 249 LINE SMOOTH",
"147 339 OFFCURVE",
"164 386 OFFCURVE",
"209 386 CURVE SMOOTH",
"245 386 OFFCURVE",
"263 355 OFFCURVE",
"263 290 CURVE",
"371 290 LINE",
"371 420 OFFCURVE",
"308 476 OFFCURVE",
"209 476 CURVE SMOOTH"
);
},
{
closed = 1;
nodes = (
"257 537 LINE",
"257 639 LINE",
"163 639 LINE",
"163 537 LINE"
);
}
);
width = 403;
}
);
unicode = 010B;
},
{
glyphname = d;
layers = (
{
anchors = (
{
name = center;
position = "{222, 232}";
}
);
layerId = "3E4994DA-6C35-486D-9CDD-3005170E1289";
name = Bold;
paths = (
{
closed = 1;
nodes = (
"394 0 LINE",
"394 639 LINE",
"288 639 LINE",
"288 417 LINE",
"284 417 LINE",
"267 454 OFFCURVE",
"227 476 OFFCURVE",
"180 476 CURVE SMOOTH",
"98 476 OFFCURVE",
"36 402 OFFCURVE",
"36 233 CURVE SMOOTH",
"36 65 OFFCURVE",
"94 -11 OFFCURVE",
"186 -11 CURVE SMOOTH",
"230 -11 OFFCURVE",
"268 12 OFFCURVE",
"291 57 CURVE",
"295 57 LINE",
"306 0 LINE"
);
},
{
closed = 1;
nodes = (
"269 379 OFFCURVE",
"288 331 OFFCURVE",
"288 248 CURVE SMOOTH",
"288 216 LINE SMOOTH",
"288 132 OFFCURVE",
"269 86 OFFCURVE",
"217 86 CURVE SMOOTH",
"166 86 OFFCURVE",
"147 132 OFFCURVE",
"147 216 CURVE SMOOTH",
"147 249 LINE SMOOTH",
"147 333 OFFCURVE",
"166 379 OFFCURVE",
"217 379 CURVE SMOOTH"
);
}
);
width = 443;
}
);
unicode = 0064;
},
{
glyphname = eth;
layers = (
{
layerId = "3E4994DA-6C35-486D-9CDD-3005170E1289";
name = Bold;
paths = (
{
closed = 1;
nodes = (
"117 639 LINE",
"115 636 LINE",
"126 624 OFFCURVE",
"144 607 OFFCURVE",
"162 587 CURVE",
"95 581 LINE",
"95 516 LINE",
"210 526 LINE",
"222 508 OFFCURVE",
"234 489 OFFCURVE",
"243 472 CURVE",
"240 469 LINE",
"227 473 OFFCURVE",
"210 476 OFFCURVE",
"197 476 CURVE SMOOTH",
"98 476 OFFCURVE",
"36 392 OFFCURVE",
"36 232 CURVE SMOOTH",
"36 65 OFFCURVE",
"98 -11 OFFCURVE",
"222 -11 CURVE SMOOTH",
"346 -11 OFFCURVE",
"408 65 OFFCURVE",
"408 232 CURVE SMOOTH",
"408 372 OFFCURVE",
"367 469 OFFCURVE",
"321 537 CURVE",
"387 543 LINE",
"387 607 LINE",
"272 597 LINE",
"255 614 OFFCURVE",
"240 629 OFFCURVE",
"228 639 CURVE"
);
},
{
closed = 1;
nodes = (
"277 386 OFFCURVE",
"297 339 OFFCURVE",
"297 249 CURVE SMOOTH",
"297 216 LINE SMOOTH",
"297 126 OFFCURVE",
"277 79 OFFCURVE",
"222 79 CURVE SMOOTH",
"167 79 OFFCURVE",
"147 126 OFFCURVE",
"147 216 CURVE SMOOTH",
"147 249 LINE SMOOTH",
"147 339 OFFCURVE",
"167 386 OFFCURVE",
"222 386 CURVE SMOOTH"
);
}
);
width = 443;
}
);
unicode = 00F0;
},
{
glyphname = dcaron;
layers = (
{
layerId = "3E4994DA-6C35-486D-9CDD-3005170E1289";
name = Bold;
paths = (
{
closed = 1;
nodes = (
"394 0 LINE",
"394 639 LINE",
"288 639 LINE",
"288 417 LINE",
"284 417 LINE",
"267 454 OFFCURVE",
"227 476 OFFCURVE",
"180 476 CURVE SMOOTH",
"98 476 OFFCURVE",
"36 402 OFFCURVE",
"36 233 CURVE SMOOTH",
"36 65 OFFCURVE",
"94 -11 OFFCURVE",
"186 -11 CURVE SMOOTH",
"230 -11 OFFCURVE",
"268 12 OFFCURVE",
"291 57 CURVE",
"295 57 LINE",
"306 0 LINE"
);
},
{
closed = 1;
nodes = (
"269 379 OFFCURVE",
"288 331 OFFCURVE",
"288 248 CURVE SMOOTH",
"288 216 LINE SMOOTH",
"288 132 OFFCURVE",
"269 86 OFFCURVE",
"217 86 CURVE SMOOTH",
"166 86 OFFCURVE",
"147 132 OFFCURVE",
"147 216 CURVE SMOOTH",
"147 249 LINE SMOOTH",
"147 333 OFFCURVE",
"166 379 OFFCURVE",
"217 379 CURVE SMOOTH"
);
},
{
closed = 1;
nodes = (
"544 496 LINE",
"544 606 LINE",
"422 606 LINE",
"422 485 LINE",
"470 485 LINE",
"422 347 LINE",
"485 347 LINE"
);
}
);
width = 521;
}
);
unicode = 010F;
},
{
glyphname = dcroat;
layers = (
{
layerId = "3E4994DA-6C35-486D-9CDD-3005170E1289";
name = Bold;
paths = (
{
closed = 1;
nodes = (
"394 639 LINE",
"288 639 LINE",
"288 592 LINE",
"171 592 LINE",
"171 515 LINE",
"288 515 LINE",
"288 417 LINE",
"284 417 LINE",
"267 454 OFFCURVE",
"227 476 OFFCURVE",
"180 476 CURVE SMOOTH",
"98 476 OFFCURVE",
"36 402 OFFCURVE",
"36 233 CURVE SMOOTH",
"36 65 OFFCURVE",
"94 -11 OFFCURVE",
"186 -11 CURVE SMOOTH",
"230 -11 OFFCURVE",
"268 12 OFFCURVE",
"291 57 CURVE",
"295 57 LINE",
"306 0 LINE",
"394 0 LINE",
"394 515 LINE",
"442 515 LINE",
"442 592 LINE",
"394 592 LINE"
);
},
{
closed = 1;
nodes = (
"269 379 OFFCURVE",
"288 331 OFFCURVE",
"288 248 CURVE SMOOTH",
"288 216 LINE SMOOTH",
"288 132 OFFCURVE",
"269 86 OFFCURVE",
"217 86 CURVE SMOOTH",
"166 86 OFFCURVE",
"147 132 OFFCURVE",
"147 216 CURVE SMOOTH",
"147 249 LINE SMOOTH",
"147 333 OFFCURVE",
"166 379 OFFCURVE",
"217 379 CURVE SMOOTH"
);
}
);
width = 446;
}
);
unicode = 0111;
},
{
glyphname = e;
layers = (
{
anchors = (
{
name = bottom;
position = "{202, 0}";
},
{
name = ogonek;
position = "{362, 9}";
},
{
name = top;
position = "{202, 465}";
}
);
layerId = "3E4994DA-6C35-486D-9CDD-3005170E1289";
name = Bold;
paths = (
{
closed = 1;
nodes = (
"91 476 OFFCURVE",
"27 400 OFFCURVE",
"27 232 CURVE SMOOTH",
"27 65 OFFCURVE",
"90 -11 OFFCURVE",
"210 -11 CURVE SMOOTH",
"304 -11 OFFCURVE",
"374 45 OFFCURVE",
"374 164 CURVE",
"269 164 LINE",
"269 109 OFFCURVE",
"246 76 OFFCURVE",
"210 76 CURVE SMOOTH",
"157 76 OFFCURVE",
"139 123 OFFCURVE",
"138 206 CURVE",
"374 206 LINE",
"374 232 LINE SMOOTH",
"374 400 OFFCURVE",
"318 476 OFFCURVE",
"206 476 CURVE SMOOTH"
);
},
{
closed = 1;
nodes = (
"245 389 OFFCURVE",
"263 350 OFFCURVE",
"263 283 CURVE",
"139 283 LINE",
"142 350 OFFCURVE",
"161 389 OFFCURVE",
"206 389 CURVE SMOOTH"
);
}
);
width = 403;
}
);
unicode = 0065;
},
{
glyphname = eacute;
layers = (
{
layerId = "3E4994DA-6C35-486D-9CDD-3005170E1289";
name = Bold;
paths = (
{
closed = 1;
nodes = (
"91 476 OFFCURVE",
"27 400 OFFCURVE",
"27 232 CURVE SMOOTH",
"27 65 OFFCURVE",
"90 -11 OFFCURVE",
"210 -11 CURVE SMOOTH",
"304 -11 OFFCURVE",
"374 45 OFFCURVE",
"374 164 CURVE",
"269 164 LINE",
"269 109 OFFCURVE",
"246 76 OFFCURVE",
"210 76 CURVE SMOOTH",
"157 76 OFFCURVE",
"139 123 OFFCURVE",
"138 206 CURVE",
"374 206 LINE",
"374 232 LINE SMOOTH",
"374 400 OFFCURVE",
"318 476 OFFCURVE",
"206 476 CURVE SMOOTH"
);
},
{
closed = 1;
nodes = (
"245 389 OFFCURVE",
"263 350 OFFCURVE",
"263 283 CURVE",
"139 283 LINE",
"142 350 OFFCURVE",
"161 389 OFFCURVE",
"206 389 CURVE SMOOTH"
);
},
{
closed = 1;
nodes = (
"323 639 LINE",
"217 639 LINE",
"141 522 LINE",
"228 522 LINE",
"324 636 LINE"
);
}
);
width = 403;
}
);
unicode = 00E9;
},
{
glyphname = ebreve;
layers = (
{
layerId = "3E4994DA-6C35-486D-9CDD-3005170E1289";
name = Bold;
paths = (
{
closed = 1;
nodes = (
"91 476 OFFCURVE",
"27 400 OFFCURVE",
"27 232 CURVE SMOOTH",
"27 65 OFFCURVE",
"90 -11 OFFCURVE",
"210 -11 CURVE SMOOTH",
"304 -11 OFFCURVE",
"374 45 OFFCURVE",
"374 164 CURVE",
"269 164 LINE",
"269 109 OFFCURVE",
"246 76 OFFCURVE",
"210 76 CURVE SMOOTH",
"157 76 OFFCURVE",
"139 123 OFFCURVE",
"138 206 CURVE",
"374 206 LINE",
"374 232 LINE SMOOTH",
"374 400 OFFCURVE",
"318 476 OFFCURVE",
"206 476 CURVE SMOOTH"
);
},
{
closed = 1;
nodes = (
"245 389 OFFCURVE",
"263 350 OFFCURVE",
"263 283 CURVE",
"139 283 LINE",
"142 350 OFFCURVE",
"161 389 OFFCURVE",
"206 389 CURVE SMOOTH"
);
},
{
closed = 1;
nodes = (
"255 639 LINE",
"253 627 OFFCURVE",
"232 610 OFFCURVE",
"202 610 CURVE SMOOTH",
"172 610 OFFCURVE",
"152 627 OFFCURVE",
"149 639 CURVE",
"84 639 LINE",
"84 595 OFFCURVE",
"129 545 OFFCURVE",
"202 545 CURVE SMOOTH",
"275 545 OFFCURVE",
"320 595 OFFCURVE",
"320 639 CURVE"
);
}
);
width = 403;
}
);
unicode = 0115;
},
{
glyphname = ecaron;
layers = (
{
layerId = "3E4994DA-6C35-486D-9CDD-3005170E1289";
name = Bold;
paths = (
{
closed = 1;
nodes = (
"91 476 OFFCURVE",
"27 400 OFFCURVE",
"27 232 CURVE SMOOTH",
"27 65 OFFCURVE",
"90 -11 OFFCURVE",
"210 -11 CURVE SMOOTH",
"304 -11 OFFCURVE",
"374 45 OFFCURVE",
"374 164 CURVE",
"269 164 LINE",
"269 109 OFFCURVE",
"246 76 OFFCURVE",
"210 76 CURVE SMOOTH",
"157 76 OFFCURVE",
"139 123 OFFCURVE",
"138 206 CURVE",
"374 206 LINE",
"374 232 LINE SMOOTH",
"374 400 OFFCURVE",
"318 476 OFFCURVE",
"206 476 CURVE SMOOTH"
);
},
{
closed = 1;
nodes = (
"245 389 OFFCURVE",
"263 350 OFFCURVE",
"263 283 CURVE",
"139 283 LINE",
"142 350 OFFCURVE",
"161 389 OFFCURVE",
"206 389 CURVE SMOOTH"
);
},
{
closed = 1;
nodes = (
"246 520 LINE",
"321 639 LINE",
"241 639 LINE",
"202 578 LINE",
"163 639 LINE",
"83 639 LINE",
"159 520 LINE"
);
}
);
width = 403;
}
);
unicode = 011B;
},
{
glyphname = ecircumflex;
layers = (
{
layerId = "3E4994DA-6C35-486D-9CDD-3005170E1289";
name = Bold;
paths = (
{
closed = 1;
nodes = (
"91 476 OFFCURVE",
"27 400 OFFCURVE",
"27 232 CURVE SMOOTH",
"27 65 OFFCURVE",
"90 -11 OFFCURVE",
"210 -11 CURVE SMOOTH",
"304 -11 OFFCURVE",
"374 45 OFFCURVE",
"374 164 CURVE",
"269 164 LINE",
"269 109 OFFCURVE",
"246 76 OFFCURVE",
"210 76 CURVE SMOOTH",
"157 76 OFFCURVE",
"139 123 OFFCURVE",
"138 206 CURVE",
"374 206 LINE",
"374 232 LINE SMOOTH",
"374 400 OFFCURVE",
"318 476 OFFCURVE",
"206 476 CURVE SMOOTH"
);
},
{
closed = 1;
nodes = (
"245 389 OFFCURVE",
"263 350 OFFCURVE",
"263 283 CURVE",
"139 283 LINE",
"142 350 OFFCURVE",
"161 389 OFFCURVE",
"206 389 CURVE SMOOTH"
);
},
{
closed = 1;
nodes = (
"321 520 LINE",
"246 639 LINE",
"159 639 LINE",
"83 520 LINE",
"163 520 LINE",
"202 581 LINE",
"241 520 LINE"
);
}
);
width = 403;
}
);
unicode = 00EA;
},
{
glyphname = edieresis;
layers = (
{
layerId = "3E4994DA-6C35-486D-9CDD-3005170E1289";
name = Bold;
paths = (
{
closed = 1;
nodes = (
"91 476 OFFCURVE",
"27 400 OFFCURVE",
"27 232 CURVE SMOOTH",
"27 65 OFFCURVE",
"90 -11 OFFCURVE",
"210 -11 CURVE SMOOTH",
"304 -11 OFFCURVE",
"374 45 OFFCURVE",
"374 164 CURVE",
"269 164 LINE",
"269 109 OFFCURVE",
"246 76 OFFCURVE",
"210 76 CURVE SMOOTH",
"157 76 OFFCURVE",
"139 123 OFFCURVE",
"138 206 CURVE",
"374 206 LINE",
"374 232 LINE SMOOTH",
"374 400 OFFCURVE",
"318 476 OFFCURVE",
"206 476 CURVE SMOOTH"
);
},
{
closed = 1;
nodes = (
"245 389 OFFCURVE",
"263 350 OFFCURVE",
"263 283 CURVE",
"139 283 LINE",
"142 350 OFFCURVE",
"161 389 OFFCURVE",
"206 389 CURVE SMOOTH"
);
},
{
closed = 1;
nodes = (
"169 639 LINE",
"80 639 LINE",
"80 543 LINE",
"169 543 LINE"
);
},
{
closed = 1;
nodes = (
"324 639 LINE",
"235 639 LINE",
"235 543 LINE",
"324 543 LINE"
);
}
);
width = 403;
}
);
unicode = 00EB;
},
{
glyphname = edotaccent;
layers = (
{
layerId = "3E4994DA-6C35-486D-9CDD-3005170E1289";
name = Bold;
paths = (
{
closed = 1;
nodes = (
"91 476 OFFCURVE",
"27 400 OFFCURVE",
"27 232 CURVE SMOOTH",
"27 65 OFFCURVE",
"90 -11 OFFCURVE",
"210 -11 CURVE SMOOTH",
"304 -11 OFFCURVE",
"374 45 OFFCURVE",
"374 164 CURVE",
"269 164 LINE",
"269 109 OFFCURVE",
"246 76 OFFCURVE",
"210 76 CURVE SMOOTH",
"157 76 OFFCURVE",
"139 123 OFFCURVE",
"138 206 CURVE",
"374 206 LINE",
"374 232 LINE SMOOTH",
"374 400 OFFCURVE",
"318 476 OFFCURVE",
"206 476 CURVE SMOOTH"
);
},
{
closed = 1;
nodes = (
"245 389 OFFCURVE",
"263 350 OFFCURVE",
"263 283 CURVE",
"139 283 LINE",
"142 350 OFFCURVE",
"161 389 OFFCURVE",
"206 389 CURVE SMOOTH"
);
},
{
closed = 1;
nodes = (
"249 537 LINE",
"249 639 LINE",
"155 639 LINE",
"155 537 LINE"
);
}
);
width = 403;
}
);
unicode = 0117;
},
{
glyphname = egrave;
layers = (
{
layerId = "3E4994DA-6C35-486D-9CDD-3005170E1289";
name = Bold;
paths = (
{
closed = 1;
nodes = (
"91 476 OFFCURVE",
"27 400 OFFCURVE",
"27 232 CURVE SMOOTH",
"27 65 OFFCURVE",
"90 -11 OFFCURVE",
"210 -11 CURVE SMOOTH",
"304 -11 OFFCURVE",
"374 45 OFFCURVE",
"374 164 CURVE",
"269 164 LINE",
"269 109 OFFCURVE",
"246 76 OFFCURVE",
"210 76 CURVE SMOOTH",
"157 76 OFFCURVE",
"139 123 OFFCURVE",
"138 206 CURVE",
"374 206 LINE",
"374 232 LINE SMOOTH",
"374 400 OFFCURVE",
"318 476 OFFCURVE",
"206 476 CURVE SMOOTH"
);
},
{
closed = 1;
nodes = (
"245 389 OFFCURVE",
"263 350 OFFCURVE",
"263 283 CURVE",
"139 283 LINE",
"142 350 OFFCURVE",
"161 389 OFFCURVE",
"206 389 CURVE SMOOTH"
);
},
{
closed = 1;
nodes = (
"187 639 LINE",
"80 639 LINE",
"80 636 LINE",
"175 522 LINE",
"263 522 LINE"
);
}
);
width = 403;
}
);
unicode = 00E8;
},
{
glyphname = emacron;
layers = (
{
layerId = "3E4994DA-6C35-486D-9CDD-3005170E1289";
name = Bold;
paths = (
{
closed = 1;
nodes = (
"91 476 OFFCURVE",
"27 400 OFFCURVE",
"27 232 CURVE SMOOTH",
"27 65 OFFCURVE",
"90 -11 OFFCURVE",
"210 -11 CURVE SMOOTH",
"304 -11 OFFCURVE",
"374 45 OFFCURVE",
"374 164 CURVE",
"269 164 LINE",
"269 109 OFFCURVE",
"246 76 OFFCURVE",
"210 76 CURVE SMOOTH",
"157 76 OFFCURVE",
"139 123 OFFCURVE",
"138 206 CURVE",
"374 206 LINE",
"374 232 LINE SMOOTH",
"374 400 OFFCURVE",
"318 476 OFFCURVE",
"206 476 CURVE SMOOTH"
);
},
{
closed = 1;
nodes = (
"245 389 OFFCURVE",
"263 350 OFFCURVE",
"263 283 CURVE",
"139 283 LINE",
"142 350 OFFCURVE",
"161 389 OFFCURVE",
"206 389 CURVE SMOOTH"
);
},
{
closed = 1;
nodes = (
"315 530 LINE",
"315 606 LINE",
"89 606 LINE",
"89 530 LINE"
);
}
);
width = 403;
}
);
unicode = 0113;
},
{
glyphname = eogonek;
layers = (
{
layerId = "3E4994DA-6C35-486D-9CDD-3005170E1289";
name = Bold;
paths = (
{
closed = 1;
nodes = (
"91 476 OFFCURVE",
"27 400 OFFCURVE",
"27 232 CURVE SMOOTH",
"27 65 OFFCURVE",
"90 -11 OFFCURVE",
"210 -11 CURVE SMOOTH",
"217 -11 OFFCURVE",
"225 -11 OFFCURVE",
"232 -10 CURVE",
"218 11 LINE",
"194 -13 OFFCURVE",
"173 -38 OFFCURVE",
"173 -84 CURVE SMOOTH",
"173 -145 OFFCURVE",
"221 -164 OFFCURVE",
"261 -164 CURVE SMOOTH",
"280 -164 OFFCURVE",
"299 -159 OFFCURVE",
"319 -151 CURVE",
"319 -103 LINE",
"300 -103 LINE SMOOTH",
"271 -103 OFFCURVE",
"260 -80 OFFCURVE",
"260 -57 CURVE SMOOTH",
"260 -33 OFFCURVE",
"276 -8 OFFCURVE",
"286 4 CURVE",
"339 28 OFFCURVE",
"374 80 OFFCURVE",
"374 164 CURVE",
"269 164 LINE",
"269 109 OFFCURVE",
"246 76 OFFCURVE",
"210 76 CURVE SMOOTH",
"157 76 OFFCURVE",
"139 123 OFFCURVE",
"138 206 CURVE",
"374 206 LINE",
"374 232 LINE SMOOTH",
"374 400 OFFCURVE",
"318 476 OFFCURVE",
"206 476 CURVE SMOOTH"
);
},
{
closed = 1;
nodes = (
"245 389 OFFCURVE",
"263 350 OFFCURVE",
"263 283 CURVE",
"139 283 LINE",
"142 350 OFFCURVE",
"161 389 OFFCURVE",
"206 389 CURVE SMOOTH"
);
}
);
width = 403;
}
);
unicode = 0119;
},
{
glyphname = f;
layers = (
{
layerId = "3E4994DA-6C35-486D-9CDD-3005170E1289";
name = Bold;
paths = (
{
closed = 1;
nodes = (
"80 646 OFFCURVE",
"55 583 OFFCURVE",
"55 522 CURVE SMOOTH",
"55 465 LINE",
"8 465 LINE",
"8 376 LINE",
"55 376 LINE",
"55 0 LINE",
"161 0 LINE",
"161 376 LINE",
"241 376 LINE",
"241 465 LINE",
"161 465 LINE",
"161 519 LINE SMOOTH",
"161 544 OFFCURVE",
"174 557 OFFCURVE",
"198 557 CURVE SMOOTH",
"241 557 LINE",
"241 636 LINE",
"224 641 OFFCURVE",
"189 646 OFFCURVE",
"164 646 CURVE SMOOTH"
);
}
);
width = 241;
}
);
unicode = 0066;
},
{
glyphname = g;
layers = (
{
anchors = (
{
name = top;
position = "{222, 465}";
}
);
layerId = "3E4994DA-6C35-486D-9CDD-3005170E1289";
name = Bold;
paths = (
{
closed = 1;
nodes = (
"342 543 LINE",
"342 526 OFFCURVE",
"332 488 OFFCURVE",
"297 462 CURVE",
"275 471 OFFCURVE",
"248 476 OFFCURVE",
"219 476 CURVE SMOOTH",
"108 476 OFFCURVE",
"48 413 OFFCURVE",
"48 317 CURVE SMOOTH",
"48 263 OFFCURVE",
"67 219 OFFCURVE",
"104 192 CURVE",
"67 179 OFFCURVE",
"36 151 OFFCURVE",
"36 110 CURVE SMOOTH",
"36 79 OFFCURVE",
"50 55 OFFCURVE",
"73 41 CURVE",
"40 22 OFFCURVE",
"14 -8 OFFCURVE",
"14 -54 CURVE SMOOTH",
"14 -118 OFFCURVE",
"60 -161 OFFCURVE",
"117 -161 CURVE SMOOTH",
"287 -161 LINE SMOOTH",
"370 -161 OFFCURVE",
"438 -104 OFFCURVE",
"438 -18 CURVE SMOOTH",
"438 57 OFFCURVE",
"390 103 OFFCURVE",
"331 103 CURVE SMOOTH",
"171 103 LINE SMOOTH",
"155 103 OFFCURVE",
"143 115 OFFCURVE",
"143 131 CURVE SMOOTH",
"143 147 OFFCURVE",
"156 159 OFFCURVE",
"175 159 CURVE SMOOTH",
"219 159 LINE SMOOTH",
"331 159 OFFCURVE",
"392 222 OFFCURVE",
"392 317 CURVE SMOOTH",
"392 361 OFFCURVE",
"378 398 OFFCURVE",
"354 424 CURVE",
"401 438 OFFCURVE",
"430 476 OFFCURVE",
"430 543 CURVE"
);
},
{
closed = 1;
nodes = (
"287 5 LINE",
"311 5 OFFCURVE",
"331 -11 OFFCURVE",
"331 -37 CURVE SMOOTH",
"331 -64 OFFCURVE",
"309 -80 OFFCURVE",
"283 -80 CURVE SMOOTH",
"164 -80 LINE SMOOTH",
"140 -80 OFFCURVE",
"121 -64 OFFCURVE",
"121 -37 CURVE SMOOTH",
"121 -14 OFFCURVE",
"140 5 OFFCURVE",
"164 5 CURVE SMOOTH"
);
},
{
closed = 1;
nodes = (
"263 397 OFFCURVE",
"286 367 OFFCURVE",
"286 317 CURVE SMOOTH",
"286 268 OFFCURVE",
"263 238 OFFCURVE",
"219 238 CURVE SMOOTH",
"176 238 OFFCURVE",
"154 268 OFFCURVE",
"154 317 CURVE SMOOTH",
"154 367 OFFCURVE",
"176 397 OFFCURVE",
"219 397 CURVE SMOOTH"
);
}
);
width = 443;
}
);
unicode = 0067;
},
{
glyphname = gbreve;
layers = (
{
layerId = "3E4994DA-6C35-486D-9CDD-3005170E1289";
name = Bold;
paths = (
{
closed = 1;
nodes = (
"342 543 LINE",
"342 526 OFFCURVE",
"332 488 OFFCURVE",
"297 462 CURVE",
"275 471 OFFCURVE",
"248 476 OFFCURVE",
"219 476 CURVE SMOOTH",
"108 476 OFFCURVE",
"48 413 OFFCURVE",
"48 317 CURVE SMOOTH",
"48 263 OFFCURVE",
"67 219 OFFCURVE",
"104 192 CURVE",
"67 179 OFFCURVE",
"36 151 OFFCURVE",
"36 110 CURVE SMOOTH",
"36 79 OFFCURVE",
"50 55 OFFCURVE",
"73 41 CURVE",
"40 22 OFFCURVE",
"14 -8 OFFCURVE",
"14 -54 CURVE SMOOTH",
"14 -118 OFFCURVE",
"60 -161 OFFCURVE",
"117 -161 CURVE SMOOTH",
"287 -161 LINE SMOOTH",
"370 -161 OFFCURVE",
"438 -104 OFFCURVE",
"438 -18 CURVE SMOOTH",
"438 57 OFFCURVE",
"390 103 OFFCURVE",
"331 103 CURVE SMOOTH",
"171 103 LINE SMOOTH",
"155 103 OFFCURVE",
"143 115 OFFCURVE",
"143 131 CURVE SMOOTH",
"143 147 OFFCURVE",
"156 159 OFFCURVE",
"175 159 CURVE SMOOTH",
"219 159 LINE SMOOTH",
"331 159 OFFCURVE",
"392 222 OFFCURVE",
"392 317 CURVE SMOOTH",
"392 361 OFFCURVE",
"378 398 OFFCURVE",
"354 424 CURVE",
"401 438 OFFCURVE",
"430 476 OFFCURVE",
"430 543 CURVE"
);
},
{
closed = 1;
nodes = (
"287 5 LINE",
"311 5 OFFCURVE",
"331 -11 OFFCURVE",
"331 -37 CURVE SMOOTH",
"331 -64 OFFCURVE",
"309 -80 OFFCURVE",
"283 -80 CURVE SMOOTH",
"164 -80 LINE SMOOTH",
"140 -80 OFFCURVE",
"121 -64 OFFCURVE",
"121 -37 CURVE SMOOTH",
"121 -14 OFFCURVE",
"140 5 OFFCURVE",
"164 5 CURVE SMOOTH"
);
},
{
closed = 1;
nodes = (
"263 397 OFFCURVE",
"286 367 OFFCURVE",
"286 317 CURVE SMOOTH",
"286 268 OFFCURVE",
"263 238 OFFCURVE",
"219 238 CURVE SMOOTH",
"176 238 OFFCURVE",
"154 268 OFFCURVE",
"154 317 CURVE SMOOTH",
"154 367 OFFCURVE",
"176 397 OFFCURVE",
"219 397 CURVE SMOOTH"
);
},
{
closed = 1;
nodes = (
"274 639 LINE",
"272 627 OFFCURVE",
"251 610 OFFCURVE",
"221 610 CURVE SMOOTH",
"192 610 OFFCURVE",
"171 627 OFFCURVE",
"169 639 CURVE",
"103 639 LINE",
"103 595 OFFCURVE",
"149 545 OFFCURVE",
"221 545 CURVE SMOOTH",
"294 545 OFFCURVE",
"339 595 OFFCURVE",
"339 639 CURVE"
);
}
);
width = 443;
}
);
unicode = 011F;
},
{
glyphname = gcircumflex;
layers = (
{
layerId = "3E4994DA-6C35-486D-9CDD-3005170E1289";
name = Bold;
paths = (
{
closed = 1;
nodes = (
"361 543 LINE",
"361 526 OFFCURVE",
"362 465 OFFCURVE",
"297 462 CURVE",
"275 471 OFFCURVE",
"248 476 OFFCURVE",
"219 476 CURVE SMOOTH",
"108 476 OFFCURVE",
"48 413 OFFCURVE",
"48 317 CURVE SMOOTH",
"48 263 OFFCURVE",
"67 219 OFFCURVE",
"104 192 CURVE",
"67 179 OFFCURVE",
"36 151 OFFCURVE",
"36 110 CURVE SMOOTH",
"36 79 OFFCURVE",
"50 55 OFFCURVE",
"73 41 CURVE",
"40 22 OFFCURVE",
"14 -8 OFFCURVE",
"14 -54 CURVE SMOOTH",
"14 -118 OFFCURVE",
"60 -161 OFFCURVE",
"117 -161 CURVE SMOOTH",
"287 -161 LINE SMOOTH",
"370 -161 OFFCURVE",
"438 -104 OFFCURVE",
"438 -18 CURVE SMOOTH",
"438 57 OFFCURVE",
"390 103 OFFCURVE",
"331 103 CURVE SMOOTH",
"171 103 LINE SMOOTH",
"155 103 OFFCURVE",
"143 115 OFFCURVE",
"143 131 CURVE SMOOTH",
"143 147 OFFCURVE",
"156 159 OFFCURVE",
"175 159 CURVE SMOOTH",
"219 159 LINE SMOOTH",
"331 159 OFFCURVE",
"392 222 OFFCURVE",
"392 317 CURVE SMOOTH",
"392 361 OFFCURVE",
"378 398 OFFCURVE",
"354 424 CURVE",
"401 438 OFFCURVE",
"430 476 OFFCURVE",
"430 543 CURVE"
);
},
{
closed = 1;
nodes = (
"287 5 LINE",
"311 5 OFFCURVE",
"331 -11 OFFCURVE",
"331 -37 CURVE SMOOTH",
"331 -64 OFFCURVE",
"309 -80 OFFCURVE",
"283 -80 CURVE SMOOTH",
"164 -80 LINE SMOOTH",
"140 -80 OFFCURVE",
"121 -64 OFFCURVE",
"121 -37 CURVE SMOOTH",
"121 -14 OFFCURVE",
"140 5 OFFCURVE",
"164 5 CURVE SMOOTH"
);
},
{
closed = 1;
nodes = (
"263 397 OFFCURVE",
"286 367 OFFCURVE",
"286 317 CURVE SMOOTH",
"286 268 OFFCURVE",
"263 238 OFFCURVE",
"219 238 CURVE SMOOTH",
"176 238 OFFCURVE",
"154 268 OFFCURVE",
"154 317 CURVE SMOOTH",
"154 367 OFFCURVE",
"176 397 OFFCURVE",
"219 397 CURVE SMOOTH"
);
},
{
closed = 1;
nodes = (
"340 520 LINE",
"265 639 LINE",
"179 639 LINE",
"103 520 LINE",
"182 520 LINE",
"222 581 LINE",
"261 520 LINE"
);
}
);
width = 443;
}
);
unicode = 011D;
},
{
glyphname = gcommaaccent;
layers = (
{
layerId = "3E4994DA-6C35-486D-9CDD-3005170E1289";
name = Bold;
paths = (
{
closed = 1;
nodes = (
"342 543 LINE",
"342 526 OFFCURVE",
"332 488 OFFCURVE",
"297 462 CURVE",
"275 471 OFFCURVE",
"248 476 OFFCURVE",
"219 476 CURVE SMOOTH",
"108 476 OFFCURVE",
"48 413 OFFCURVE",
"48 317 CURVE SMOOTH",
"48 263 OFFCURVE",
"67 219 OFFCURVE",
"104 192 CURVE",
"67 179 OFFCURVE",
"36 151 OFFCURVE",
"36 110 CURVE SMOOTH",
"36 79 OFFCURVE",
"50 55 OFFCURVE",
"73 41 CURVE",
"40 22 OFFCURVE",
"14 -8 OFFCURVE",
"14 -54 CURVE SMOOTH",
"14 -118 OFFCURVE",
"60 -161 OFFCURVE",
"117 -161 CURVE SMOOTH",
"287 -161 LINE SMOOTH",
"370 -161 OFFCURVE",
"438 -104 OFFCURVE",
"438 -18 CURVE SMOOTH",
"438 57 OFFCURVE",
"390 103 OFFCURVE",
"331 103 CURVE SMOOTH",
"171 103 LINE SMOOTH",
"155 103 OFFCURVE",
"143 115 OFFCURVE",
"143 131 CURVE SMOOTH",
"143 147 OFFCURVE",
"156 159 OFFCURVE",
"175 159 CURVE SMOOTH",
"219 159 LINE SMOOTH",
"331 159 OFFCURVE",
"392 222 OFFCURVE",
"392 317 CURVE SMOOTH",
"392 361 OFFCURVE",
"378 398 OFFCURVE",
"354 424 CURVE",
"401 438 OFFCURVE",
"430 476 OFFCURVE",
"430 543 CURVE"
);
},
{
closed = 1;
nodes = (
"287 5 LINE",
"311 5 OFFCURVE",
"331 -11 OFFCURVE",
"331 -37 CURVE SMOOTH",
"331 -64 OFFCURVE",
"309 -80 OFFCURVE",
"283 -80 CURVE SMOOTH",
"164 -80 LINE SMOOTH",
"140 -80 OFFCURVE",
"121 -64 OFFCURVE",
"121 -37 CURVE SMOOTH",
"121 -14 OFFCURVE",
"140 5 OFFCURVE",
"164 5 CURVE SMOOTH"
);
},
{
closed = 1;
nodes = (
"263 397 OFFCURVE",
"286 367 OFFCURVE",
"286 317 CURVE SMOOTH",
"286 268 OFFCURVE",
"263 238 OFFCURVE",
"219 238 CURVE SMOOTH",
"176 238 OFFCURVE",
"154 268 OFFCURVE",
"154 317 CURVE SMOOTH",
"154 367 OFFCURVE",
"176 397 OFFCURVE",
"219 397 CURVE SMOOTH"
);
},
{
closed = 1;
nodes = (
"255 705 LINE",
"197 705 LINE",
"156 621 LINE",
"156 522 LINE",
"266 522 LINE",
"266 630 LINE",
"223 630 LINE"
);
}
);
width = 443;
}
);
unicode = 0123;
},
{
glyphname = gdotaccent;
layers = (
{
layerId = "3E4994DA-6C35-486D-9CDD-3005170E1289";
name = Bold;
paths = (
{
closed = 1;
nodes = (
"342 543 LINE",
"342 526 OFFCURVE",
"332 488 OFFCURVE",
"297 462 CURVE",
"275 471 OFFCURVE",
"248 476 OFFCURVE",
"219 476 CURVE SMOOTH",
"108 476 OFFCURVE",
"48 413 OFFCURVE",
"48 317 CURVE SMOOTH",
"48 263 OFFCURVE",
"67 219 OFFCURVE",
"104 192 CURVE",
"67 179 OFFCURVE",
"36 151 OFFCURVE",
"36 110 CURVE SMOOTH",
"36 79 OFFCURVE",
"50 55 OFFCURVE",
"73 41 CURVE",
"40 22 OFFCURVE",
"14 -8 OFFCURVE",
"14 -54 CURVE SMOOTH",
"14 -118 OFFCURVE",
"60 -161 OFFCURVE",
"117 -161 CURVE SMOOTH",
"287 -161 LINE SMOOTH",
"370 -161 OFFCURVE",
"438 -104 OFFCURVE",
"438 -18 CURVE SMOOTH",
"438 57 OFFCURVE",
"390 103 OFFCURVE",
"331 103 CURVE SMOOTH",
"171 103 LINE SMOOTH",
"155 103 OFFCURVE",
"143 115 OFFCURVE",
"143 131 CURVE SMOOTH",
"143 147 OFFCURVE",
"156 159 OFFCURVE",
"175 159 CURVE SMOOTH",
"219 159 LINE SMOOTH",
"331 159 OFFCURVE",
"392 222 OFFCURVE",
"392 317 CURVE SMOOTH",
"392 361 OFFCURVE",
"378 398 OFFCURVE",
"354 424 CURVE",
"401 438 OFFCURVE",
"430 476 OFFCURVE",
"430 543 CURVE"
);
},
{
closed = 1;
nodes = (
"287 5 LINE",
"311 5 OFFCURVE",
"331 -11 OFFCURVE",
"331 -37 CURVE SMOOTH",
"331 -64 OFFCURVE",
"309 -80 OFFCURVE",
"283 -80 CURVE SMOOTH",
"164 -80 LINE SMOOTH",
"140 -80 OFFCURVE",
"121 -64 OFFCURVE",
"121 -37 CURVE SMOOTH",
"121 -14 OFFCURVE",
"140 5 OFFCURVE",
"164 5 CURVE SMOOTH"
);
},
{
closed = 1;
nodes = (
"263 397 OFFCURVE",
"286 367 OFFCURVE",
"286 317 CURVE SMOOTH",
"286 268 OFFCURVE",
"263 238 OFFCURVE",
"219 238 CURVE SMOOTH",
"176 238 OFFCURVE",
"154 268 OFFCURVE",
"154 317 CURVE SMOOTH",
"154 367 OFFCURVE",
"176 397 OFFCURVE",
"219 397 CURVE SMOOTH"
);
},
{
closed = 1;
nodes = (
"269 537 LINE",
"269 639 LINE",
"174 639 LINE",
"174 537 LINE"
);
}
);
width = 443;
}
);
unicode = 0121;
},
{
glyphname = h;
layers = (
{
anchors = (
{
name = center;
position = "{222, 232}";
},
{
name = top;
position = "{222, 465}";
}
);
layerId = "3E4994DA-6C35-486D-9CDD-3005170E1289";
name = Bold;
paths = (
{
closed = 1;
nodes = (
"155 415 LINE",
"155 639 LINE",
"49 639 LINE",
"49 0 LINE",
"155 0 LINE",
"155 286 LINE SMOOTH",
"155 339 OFFCURVE",
"186 379 OFFCURVE",
"227 379 CURVE SMOOTH",
"265 379 OFFCURVE",
"288 357 OFFCURVE",
"288 297 CURVE SMOOTH",
"288 0 LINE",
"394 0 LINE",
"394 326 LINE SMOOTH",
"394 436 OFFCURVE",
"342 476 OFFCURVE",
"271 476 CURVE SMOOTH",
"216 476 OFFCURVE",
"179 445 OFFCURVE",
"158 415 CURVE"
);
}
);
width = 443;
}
);
unicode = 0068;
},
{
glyphname = hbar;
layers = (
{
layerId = "3E4994DA-6C35-486D-9CDD-3005170E1289";
name = Bold;
paths = (
{
closed = 1;
nodes = (
"155 639 LINE",
"49 639 LINE",
"49 592 LINE",
"0 592 LINE",
"0 515 LINE",
"49 515 LINE",
"49 0 LINE",
"155 0 LINE",
"155 286 LINE SMOOTH",
"155 339 OFFCURVE",
"186 379 OFFCURVE",
"227 379 CURVE SMOOTH",
"265 379 OFFCURVE",
"288 357 OFFCURVE",
"288 297 CURVE SMOOTH",
"288 0 LINE",
"394 0 LINE",
"394 326 LINE SMOOTH",
"394 436 OFFCURVE",
"342 476 OFFCURVE",
"271 476 CURVE SMOOTH",
"216 476 OFFCURVE",
"179 445 OFFCURVE",
"158 415 CURVE",
"155 415 LINE",
"155 515 LINE",
"271 515 LINE",
"271 592 LINE",
"155 592 LINE"
);
}
);
width = 443;
}
);
unicode = 0127;
},
{
glyphname = hcircumflex;
layers = (
{
layerId = "3E4994DA-6C35-486D-9CDD-3005170E1289";
name = Bold;
paths = (
{
closed = 1;
nodes = (
"155 415 LINE",
"155 639 LINE",
"49 639 LINE",
"49 0 LINE",
"155 0 LINE",
"155 286 LINE SMOOTH",
"155 339 OFFCURVE",
"186 379 OFFCURVE",
"227 379 CURVE SMOOTH",
"265 379 OFFCURVE",
"288 357 OFFCURVE",
"288 297 CURVE SMOOTH",
"288 0 LINE",
"394 0 LINE",
"394 326 LINE SMOOTH",
"394 436 OFFCURVE",
"342 476 OFFCURVE",
"271 476 CURVE SMOOTH",
"216 476 OFFCURVE",
"179 445 OFFCURVE",
"158 415 CURVE"
);
},
{
closed = 1;
nodes = (
"218 661 LINE",
"143 781 LINE",
"57 781 LINE",
"-19 661 LINE",
"60 661 LINE",
"100 722 LINE",
"139 661 LINE"
);
}
);
width = 443;
}
);
unicode = 0125;
},
{
glyphname = i;
layers = (
{
layerId = "3E4994DA-6C35-486D-9CDD-3005170E1289";
name = Bold;
paths = (
{
closed = 1;
nodes = (
"154 0 LINE",
"154 465 LINE",
"48 465 LINE",
"48 0 LINE"
);
},
{
closed = 1;
nodes = (
"154 543 LINE",
"154 639 LINE",
"48 639 LINE",
"48 543 LINE"
);
}
);
width = 202;
}
);
unicode = 0069;
},
{
glyphname = dotlessi;
layers = (
{
anchors = (
{
name = ogonek;
position = "{181, 9}";
},
{
name = top;
position = "{101, 465}";
}
);
layerId = "3E4994DA-6C35-486D-9CDD-3005170E1289";
name = Bold;
paths = (
{
closed = 1;
nodes = (
"154 0 LINE",
"154 465 LINE",
"48 465 LINE",
"48 0 LINE"
);
}
);
width = 202;
}
);
unicode = 0131;
},
{
glyphname = iacute;
layers = (
{
layerId = "3E4994DA-6C35-486D-9CDD-3005170E1289";
name = Bold;
paths = (
{
closed = 1;
nodes = (
"154 465 LINE",
"48 465 LINE",
"48 0 LINE",
"154 0 LINE"
);
},
{
closed = 1;
nodes = (
"222 639 LINE",
"116 639 LINE",
"40 522 LINE",
"128 522 LINE",
"223 636 LINE"
);
}
);
width = 202;
}
);
unicode = 00ED;
},
{
glyphname = ibreve;
layers = (
{
layerId = "3E4994DA-6C35-486D-9CDD-3005170E1289";
name = Bold;
paths = (
{
closed = 1;
nodes = (
"154 0 LINE",
"154 465 LINE",
"48 465 LINE",
"48 0 LINE"
);
},
{
closed = 1;
nodes = (
"154 639 LINE",
"152 627 OFFCURVE",
"131 610 OFFCURVE",
"101 610 CURVE SMOOTH",
"72 610 OFFCURVE",
"51 627 OFFCURVE",
"49 639 CURVE",
"-18 639 LINE",
"-18 595 OFFCURVE",
"28 545 OFFCURVE",
"101 545 CURVE SMOOTH",
"174 545 OFFCURVE",
"219 595 OFFCURVE",
"219 639 CURVE"
);
}
);
width = 202;
}
);
unicode = 012D;
},
{
glyphname = icircumflex;
layers = (
{
layerId = "3E4994DA-6C35-486D-9CDD-3005170E1289";
name = Bold;
paths = (
{
closed = 1;
nodes = (
"154 0 LINE",
"154 465 LINE",
"48 465 LINE",
"48 0 LINE"
);
},
{
closed = 1;
nodes = (
"220 520 LINE",
"145 639 LINE",
"58 639 LINE",
"-19 520 LINE",
"62 520 LINE",
"102 581 LINE",
"141 520 LINE"
);
}
);
width = 202;
}
);
unicode = 00EE;
},
{
glyphname = idieresis;
layers = (
{
layerId = "3E4994DA-6C35-486D-9CDD-3005170E1289";
name = Bold;
paths = (
{
closed = 1;
nodes = (
"154 465 LINE",
"48 465 LINE",
"48 0 LINE",
"154 0 LINE"
);
},
{
closed = 1;
nodes = (
"68 639 LINE",
"-20 639 LINE",
"-20 543 LINE",
"68 543 LINE"
);
},
{
closed = 1;
nodes = (
"223 639 LINE",
"134 639 LINE",
"134 543 LINE",
"223 543 LINE"
);
}
);
width = 202;
}
);
unicode = 00EF;
},
{
glyphname = igrave;
layers = (
{
layerId = "3E4994DA-6C35-486D-9CDD-3005170E1289";
name = Bold;
paths = (
{
closed = 1;
nodes = (
"154 465 LINE",
"48 465 LINE",
"48 0 LINE",
"154 0 LINE"
);
},
{
closed = 1;
nodes = (
"86 639 LINE",
"-20 639 LINE",
"-21 636 LINE",
"74 522 LINE",
"162 522 LINE"
);
}
);
width = 202;
}
);
unicode = 00EC;
},
{
glyphname = ij;
layers = (
{
layerId = "3E4994DA-6C35-486D-9CDD-3005170E1289";
name = Bold;
paths = (
{
closed = 1;
nodes = (
"355 465 LINE",
"249 465 LINE",
"249 -29 LINE SMOOTH",
"249 -57 OFFCURVE",
"235 -72 OFFCURVE",
"208 -72 CURVE SMOOTH",
"169 -72 LINE",
"169 -150 LINE",
"187 -156 OFFCURVE",
"221 -161 OFFCURVE",
"248 -161 CURVE SMOOTH",
"332 -161 OFFCURVE",
"355 -98 OFFCURVE",
"355 -36 CURVE SMOOTH"
);
},
{
closed = 1;
nodes = (
"154 465 LINE",
"48 465 LINE",
"48 0 LINE",
"154 0 LINE"
);
},
{
closed = 1;
nodes = (
"154 639 LINE",
"48 639 LINE",
"48 543 LINE",
"154 543 LINE"
);
},
{
closed = 1;
nodes = (
"355 639 LINE",
"249 639 LINE",
"249 543 LINE",
"355 543 LINE"
);
}
);
width = 403;
}
);
unicode = 0133;
},
{
glyphname = imacron;
layers = (
{
layerId = "3E4994DA-6C35-486D-9CDD-3005170E1289";
name = Bold;
paths = (
{
closed = 1;
nodes = (
"154 0 LINE",
"154 465 LINE",
"48 465 LINE",
"48 0 LINE"
);
},
{
closed = 1;
nodes = (
"214 530 LINE",
"214 606 LINE",
"-12 606 LINE",
"-12 530 LINE"
);
}
);
width = 202;
}
);
unicode = 012B;
},
{
glyphname = iogonek;
layers = (
{
layerId = "3E4994DA-6C35-486D-9CDD-3005170E1289";
name = Bold;
paths = (
{
closed = 1;
nodes = (
"154 465 LINE",
"48 465 LINE",
"48 0 LINE",
"80 0 LINE",
"58 -22 OFFCURVE",
"41 -47 OFFCURVE",
"41 -88 CURVE SMOOTH",
"41 -149 OFFCURVE",
"88 -168 OFFCURVE",
"128 -168 CURVE SMOOTH",
"148 -168 OFFCURVE",
"166 -164 OFFCURVE",
"187 -156 CURVE",
"187 -107 LINE",
"167 -107 LINE SMOOTH",
"138 -107 OFFCURVE",
"127 -85 OFFCURVE",
"127 -62 CURVE SMOOTH",
"127 -37 OFFCURVE",
"143 -12 OFFCURVE",
"154 0 CURVE"
);
},
{
closed = 1;
nodes = (
"149 639 LINE",
"54 639 LINE",
"54 537 LINE",
"149 537 LINE"
);
}
);
width = 202;
}
);
unicode = 012F;
},
{
glyphname = itilde;
layers = (
{
layerId = "3E4994DA-6C35-486D-9CDD-3005170E1289";
name = Bold;
paths = (
{
closed = 1;
nodes = (
"154 0 LINE",
"154 465 LINE",
"48 465 LINE",
"48 0 LINE"
);
},
{
closed = 1;
nodes = (
"191 639 LINE",
"187 614 OFFCURVE",
"176 606 OFFCURVE",
"157 606 CURVE SMOOTH",
"117 606 OFFCURVE",
"83 639 OFFCURVE",
"39 639 CURVE SMOOTH",
"-23 639 OFFCURVE",
"-48 580 OFFCURVE",
"-48 531 CURVE",
"11 531 LINE",
"15 555 OFFCURVE",
"27 564 OFFCURVE",
"46 564 CURVE SMOOTH",
"86 564 OFFCURVE",
"120 531 OFFCURVE",
"163 531 CURVE SMOOTH",
"225 531 OFFCURVE",
"250 591 OFFCURVE",
"250 639 CURVE"
);
}
);
width = 202;
}
);
unicode = 0129;
},
{
glyphname = j;
layers = (
{
layerId = "3E4994DA-6C35-486D-9CDD-3005170E1289";
name = Bold;
paths = (
{
closed = 1;
nodes = (
"154 465 LINE",
"48 465 LINE",
"48 -29 LINE SMOOTH",
"48 -57 OFFCURVE",
"34 -72 OFFCURVE",
"6 -72 CURVE SMOOTH",
"-33 -72 LINE",
"-33 -150 LINE",
"-14 -156 OFFCURVE",
"19 -161 OFFCURVE",
"46 -161 CURVE SMOOTH",
"131 -161 OFFCURVE",
"154 -98 OFFCURVE",
"154 -36 CURVE SMOOTH"
);
},
{
closed = 1;
nodes = (
"154 543 LINE",
"154 639 LINE",
"48 639 LINE",
"48 543 LINE"
);
}
);
width = 202;
}
);
unicode = 006A;
},
{
glyphname = jcircumflex;
layers = (
{
layerId = "3E4994DA-6C35-486D-9CDD-3005170E1289";
name = Bold;
paths = (
{
closed = 1;
nodes = (
"154 465 LINE",
"48 465 LINE",
"48 -29 LINE SMOOTH",
"48 -57 OFFCURVE",
"34 -72 OFFCURVE",
"6 -72 CURVE SMOOTH",
"-33 -72 LINE",
"-33 -150 LINE",
"-14 -156 OFFCURVE",
"19 -161 OFFCURVE",
"46 -161 CURVE SMOOTH",
"131 -161 OFFCURVE",
"154 -98 OFFCURVE",
"154 -36 CURVE SMOOTH"
);
},
{
closed = 1;
nodes = (
"221 520 LINE",
"147 639 LINE",
"59 639 LINE",
"-17 520 LINE",
"63 520 LINE",
"103 581 LINE",
"142 520 LINE"
);
}
);
width = 202;
}
);
unicode = 0135;
},
{
glyphname = k;
layers = (
{
anchors = (
{
name = bottom;
position = "{202, 0}";
}
);
layerId = "3E4994DA-6C35-486D-9CDD-3005170E1289";
name = Bold;
paths = (
{
closed = 1;
nodes = (
"154 280 LINE",
"154 639 LINE",
"48 639 LINE",
"48 0 LINE",
"154 0 LINE",
"154 145 LINE",
"193 193 LINE",
"286 0 LINE",
"404 0 LINE",
"259 276 LINE",
"397 465 LINE",
"284 465 LINE"
);
}
);
width = 403;
}
);
unicode = 006B;
},
{
glyphname = kcommaaccent;
layers = (
{
layerId = "3E4994DA-6C35-486D-9CDD-3005170E1289";
name = Bold;
paths = (
{
closed = 1;
nodes = (
"154 280 LINE",
"154 639 LINE",
"48 639 LINE",
"48 0 LINE",
"154 0 LINE",
"154 145 LINE",
"193 193 LINE",
"286 0 LINE",
"404 0 LINE",
"259 276 LINE",
"397 465 LINE",
"284 465 LINE"
);
},
{
closed = 1;
nodes = (
"256 -148 LINE",
"256 -49 LINE",
"148 -49 LINE",
"148 -157 LINE",
"190 -157 LINE",
"159 -232 LINE",
"217 -232 LINE"
);
}
);
width = 403;
}
);
unicode = 0137;
},
{
glyphname = kgreenlandic;
layers = (
{
layerId = "3E4994DA-6C35-486D-9CDD-3005170E1289";
name = Bold;
paths = (
{
closed = 1;
nodes = (
"259 276 LINE",
"397 465 LINE",
"284 465 LINE",
"154 280 LINE",
"154 465 LINE",
"48 465 LINE",
"48 0 LINE",
"154 0 LINE",
"154 145 LINE",
"193 193 LINE",
"286 0 LINE",
"404 0 LINE"
);
}
);
width = 404;
}
);
unicode = 0138;
},
{
glyphname = l;
layers = (
{
anchors = (
{
name = bottom;
position = "{101, 0}";
},
{
name = top;
position = "{101, 465}";
},
{
name = topright;
position = "{184, 465}";
}
);
layerId = "3E4994DA-6C35-486D-9CDD-3005170E1289";
name = Bold;
paths = (
{
closed = 1;
nodes = (
"154 0 LINE",
"154 639 LINE",
"48 639 LINE",
"48 0 LINE"
);
}
);
width = 202;
}
);
unicode = 006C;
},
{
glyphname = lacute;
layers = (
{
layerId = "3E4994DA-6C35-486D-9CDD-3005170E1289";
name = Bold;
paths = (
{
closed = 1;
nodes = (
"154 639 LINE",
"48 639 LINE",
"48 0 LINE",
"154 0 LINE"
);
},
{
closed = 1;
nodes = (
"222 781 LINE",
"116 781 LINE",
"40 664 LINE",
"128 664 LINE",
"223 778 LINE"
);
}
);
width = 202;
}
);
unicode = 013A;
},
{
glyphname = lcaron;
layers = (
{
layerId = "3E4994DA-6C35-486D-9CDD-3005170E1289";
name = Bold;
paths = (
{
closed = 1;
nodes = (
"154 0 LINE",
"154 639 LINE",
"48 639 LINE",
"48 0 LINE"
);
},
{
closed = 1;
nodes = (
"322 496 LINE",
"322 606 LINE",
"200 606 LINE",
"200 485 LINE",
"248 485 LINE",
"200 347 LINE",
"263 347 LINE"
);
}
);
width = 279;
}
);
unicode = 013E;
},
{
glyphname = lcommaaccent;
layers = (
{
layerId = "3E4994DA-6C35-486D-9CDD-3005170E1289";
name = Bold;
paths = (
{
closed = 1;
nodes = (
"154 0 LINE",
"154 639 LINE",
"48 639 LINE",
"48 0 LINE"
);
},
{
closed = 1;
nodes = (
"156 -148 LINE",
"156 -49 LINE",
"47 -49 LINE",
"47 -157 LINE",
"90 -157 LINE",
"58 -232 LINE",
"116 -232 LINE"
);
}
);
width = 202;
}
);
unicode = 013C;
},
{
glyphname = ldot;
layers = (
{
layerId = "3E4994DA-6C35-486D-9CDD-3005170E1289";
name = Bold;
paths = (
{
closed = 1;
nodes = (
"154 0 LINE",
"154 639 LINE",
"48 639 LINE",
"48 0 LINE"
);
},
{
closed = 1;
nodes = (
"295 246 LINE",
"295 362 LINE",
"188 362 LINE",
"188 246 LINE"
);
}
);
width = 295;
}
);
unicode = 0140;
},
{
glyphname = lslash;
layers = (
{
layerId = "3E4994DA-6C35-486D-9CDD-3005170E1289";
name = Bold;
paths = (
{
closed = 1;
nodes = (
"154 384 LINE",
"154 639 LINE",
"48 639 LINE",
"48 289 LINE",
"-12 236 LINE",
"-12 151 LINE",
"48 204 LINE",
"48 0 LINE",
"154 0 LINE",
"154 299 LINE",
"224 361 LINE",
"224 446 LINE"
);
}
);
width = 202;
}
);
unicode = 0142;
},
{
glyphname = m;
layers = (
{
layerId = "3E4994DA-6C35-486D-9CDD-3005170E1289";
name = Bold;
paths = (
{
closed = 1;
nodes = (
"428 476 OFFCURVE",
"387 444 OFFCURVE",
"363 408 CURVE",
"345 456 OFFCURVE",
"309 476 OFFCURVE",
"263 476 CURVE SMOOTH",
"212 476 OFFCURVE",
"175 444 OFFCURVE",
"153 408 CURVE",
"148 408 LINE",
"137 465 LINE",
"49 465 LINE",
"49 0 LINE",
"155 0 LINE",
"155 286 LINE SMOOTH",
"155 341 OFFCURVE",
"182 379 OFFCURVE",
"218 379 CURVE SMOOTH",
"254 379 OFFCURVE",
"271 357 OFFCURVE",
"271 297 CURVE SMOOTH",
"271 0 LINE",
"376 0 LINE",
"376 293 LINE SMOOTH",
"376 345 OFFCURVE",
"406 379 OFFCURVE",
"440 379 CURVE SMOOTH",
"476 379 OFFCURVE",
"492 357 OFFCURVE",
"492 297 CURVE SMOOTH",
"492 0 LINE",
"598 0 LINE",
"598 326 LINE SMOOTH",
"598 438 OFFCURVE",
"550 476 OFFCURVE",
"484 476 CURVE SMOOTH"
);
}
);
width = 644;
}
);
unicode = 006D;
},
{
glyphname = n;
layers = (
{
anchors = (
{
name = bottom;
position = "{222, 0}";
},
{
name = top;
position = "{222, 465}";
}
);
layerId = "3E4994DA-6C35-486D-9CDD-3005170E1289";
name = Bold;
paths = (
{
closed = 1;
nodes = (
"215 476 OFFCURVE",
"177 444 OFFCURVE",
"153 408 CURVE",
"148 408 LINE",
"137 465 LINE",
"49 465 LINE",
"49 0 LINE",
"155 0 LINE",
"155 286 LINE SMOOTH",
"155 339 OFFCURVE",
"186 379 OFFCURVE",
"227 379 CURVE SMOOTH",
"265 379 OFFCURVE",
"288 357 OFFCURVE",
"288 297 CURVE SMOOTH",
"288 0 LINE",
"394 0 LINE",
"394 326 LINE SMOOTH",
"394 436 OFFCURVE",
"342 476 OFFCURVE",
"271 476 CURVE SMOOTH"
);
}
);
width = 443;
}
);
unicode = 006E;
},
{
glyphname = nacute;
layers = (
{
layerId = "3E4994DA-6C35-486D-9CDD-3005170E1289";
name = Bold;
paths = (
{
closed = 1;
nodes = (
"215 476 OFFCURVE",
"177 444 OFFCURVE",
"153 408 CURVE",
"148 408 LINE",
"137 465 LINE",
"49 465 LINE",
"49 0 LINE",
"155 0 LINE",
"155 286 LINE SMOOTH",
"155 339 OFFCURVE",
"186 379 OFFCURVE",
"227 379 CURVE SMOOTH",
"265 379 OFFCURVE",
"288 357 OFFCURVE",
"288 297 CURVE SMOOTH",
"288 0 LINE",
"394 0 LINE",
"394 326 LINE SMOOTH",
"394 436 OFFCURVE",
"342 476 OFFCURVE",
"271 476 CURVE SMOOTH"
);
},
{
closed = 1;
nodes = (
"343 639 LINE",
"237 639 LINE",
"161 522 LINE",
"248 522 LINE",
"344 636 LINE"
);
}
);
width = 443;
}
);
unicode = 0144;
},
{
glyphname = napostrophe;
layers = (
{
layerId = "3E4994DA-6C35-486D-9CDD-3005170E1289";
name = Bold;
paths = (
{
closed = 1;
nodes = (
"370 476 OFFCURVE",
"331 444 OFFCURVE",
"308 408 CURVE",
"302 408 LINE",
"292 465 LINE",
"203 465 LINE",
"203 0 LINE",
"309 0 LINE",
"309 286 LINE SMOOTH",
"309 339 OFFCURVE",
"340 379 OFFCURVE",
"382 379 CURVE SMOOTH",
"420 379 OFFCURVE",
"443 357 OFFCURVE",
"443 297 CURVE SMOOTH",
"443 0 LINE",
"549 0 LINE",
"549 326 LINE SMOOTH",
"549 436 OFFCURVE",
"497 476 OFFCURVE",
"425 476 CURVE SMOOTH"
);
},
{
closed = 1;
nodes = (
"169 606 LINE",
"59 606 LINE",
"59 498 LINE",
"103 498 LINE",
"72 423 LINE",
"129 423 LINE",
"169 507 LINE"
);
}
);
width = 598;
}
);
unicode = 0149;
},
{
glyphname = ncaron;
layers = (
{
layerId = "3E4994DA-6C35-486D-9CDD-3005170E1289";
name = Bold;
paths = (
{
closed = 1;
nodes = (
"215 476 OFFCURVE",
"177 444 OFFCURVE",
"153 408 CURVE",
"148 408 LINE",
"137 465 LINE",
"49 465 LINE",
"49 0 LINE",
"155 0 LINE",
"155 286 LINE SMOOTH",
"155 339 OFFCURVE",
"186 379 OFFCURVE",
"227 379 CURVE SMOOTH",
"265 379 OFFCURVE",
"288 357 OFFCURVE",
"288 297 CURVE SMOOTH",
"288 0 LINE",
"394 0 LINE",
"394 326 LINE SMOOTH",
"394 436 OFFCURVE",
"342 476 OFFCURVE",
"271 476 CURVE SMOOTH"
);
},
{
closed = 1;
nodes = (
"265 520 LINE",
"340 639 LINE",
"261 639 LINE",
"222 578 LINE",
"182 639 LINE",
"103 639 LINE",
"179 520 LINE"
);
}
);
width = 443;
}
);
unicode = 0148;
},
{
glyphname = ncommaaccent;
layers = (
{
layerId = "3E4994DA-6C35-486D-9CDD-3005170E1289";
name = Bold;
paths = (
{
closed = 1;
nodes = (
"215 476 OFFCURVE",
"177 444 OFFCURVE",
"153 408 CURVE",
"148 408 LINE",
"137 465 LINE",
"49 465 LINE",
"49 0 LINE",
"155 0 LINE",
"155 286 LINE SMOOTH",
"155 339 OFFCURVE",
"186 379 OFFCURVE",
"227 379 CURVE SMOOTH",
"265 379 OFFCURVE",
"288 357 OFFCURVE",
"288 297 CURVE SMOOTH",
"288 0 LINE",
"394 0 LINE",
"394 326 LINE SMOOTH",
"394 436 OFFCURVE",
"342 476 OFFCURVE",
"271 476 CURVE SMOOTH"
);
},
{
closed = 1;
nodes = (
"276 -148 LINE",
"276 -49 LINE",
"167 -49 LINE",
"167 -157 LINE",
"210 -157 LINE",
"179 -232 LINE",
"236 -232 LINE"
);
}
);
width = 443;
}
);
unicode = 0146;
},
{
glyphname = eng;
layers = (
{
layerId = "3E4994DA-6C35-486D-9CDD-3005170E1289";
name = Bold;
paths = (
{
closed = 1;
nodes = (
"215 476 OFFCURVE",
"177 444 OFFCURVE",
"153 408 CURVE",
"148 408 LINE",
"137 465 LINE",
"49 465 LINE",
"49 0 LINE",
"155 0 LINE",
"155 286 LINE SMOOTH",
"155 339 OFFCURVE",
"186 379 OFFCURVE",
"227 379 CURVE SMOOTH",
"265 379 OFFCURVE",
"288 357 OFFCURVE",
"288 297 CURVE SMOOTH",
"288 -29 LINE SMOOTH",
"288 -57 OFFCURVE",
"274 -72 OFFCURVE",
"247 -72 CURVE SMOOTH",
"208 -72 LINE",
"208 -150 LINE",
"226 -156 OFFCURVE",
"260 -161 OFFCURVE",
"286 -161 CURVE SMOOTH",
"371 -161 OFFCURVE",
"394 -98 OFFCURVE",
"394 -36 CURVE SMOOTH",
"394 326 LINE SMOOTH",
"394 436 OFFCURVE",
"342 476 OFFCURVE",
"271 476 CURVE SMOOTH"
);
}
);
width = 443;
}
);
unicode = 014B;
},
{
glyphname = ntilde;
layers = (
{
layerId = "3E4994DA-6C35-486D-9CDD-3005170E1289";
name = Bold;
paths = (
{
closed = 1;
nodes = (
"215 476 OFFCURVE",
"177 444 OFFCURVE",
"153 408 CURVE",
"148 408 LINE",
"137 465 LINE",
"49 465 LINE",
"49 0 LINE",
"155 0 LINE",
"155 286 LINE SMOOTH",
"155 339 OFFCURVE",
"186 379 OFFCURVE",
"227 379 CURVE SMOOTH",
"265 379 OFFCURVE",
"288 357 OFFCURVE",
"288 297 CURVE SMOOTH",
"288 0 LINE",
"394 0 LINE",
"394 326 LINE SMOOTH",
"394 436 OFFCURVE",
"342 476 OFFCURVE",
"271 476 CURVE SMOOTH"
);
},
{
closed = 1;
nodes = (
"312 639 LINE",
"309 614 OFFCURVE",
"296 606 OFFCURVE",
"278 606 CURVE SMOOTH",
"238 606 OFFCURVE",
"203 639 OFFCURVE",
"160 639 CURVE SMOOTH",
"98 639 OFFCURVE",
"73 580 OFFCURVE",
"73 531 CURVE",
"132 531 LINE",
"135 555 OFFCURVE",
"148 564 OFFCURVE",
"166 564 CURVE SMOOTH",
"206 564 OFFCURVE",
"240 531 OFFCURVE",
"283 531 CURVE SMOOTH",
"346 531 OFFCURVE",
"370 591 OFFCURVE",
"370 639 CURVE"
);
}
);
width = 443;
}
);
unicode = 00F1;
},
{
glyphname = o;
layers = (
{
anchors = (
{
name = top;
position = "{222, 465}";
}
);
layerId = "3E4994DA-6C35-486D-9CDD-3005170E1289";
name = Bold;
paths = (
{
closed = 1;
nodes = (
"98 476 OFFCURVE",
"36 400 OFFCURVE",
"36 232 CURVE SMOOTH",
"36 65 OFFCURVE",
"98 -11 OFFCURVE",
"222 -11 CURVE SMOOTH",
"346 -11 OFFCURVE",
"408 65 OFFCURVE",
"408 232 CURVE SMOOTH",
"408 400 OFFCURVE",
"346 476 OFFCURVE",
"222 476 CURVE SMOOTH"
);
},
{
closed = 1;
nodes = (
"277 386 OFFCURVE",
"297 339 OFFCURVE",
"297 249 CURVE SMOOTH",
"297 216 LINE SMOOTH",
"297 126 OFFCURVE",
"277 79 OFFCURVE",
"222 79 CURVE SMOOTH",
"167 79 OFFCURVE",
"147 126 OFFCURVE",
"147 216 CURVE SMOOTH",
"147 249 LINE SMOOTH",
"147 339 OFFCURVE",
"167 386 OFFCURVE",
"222 386 CURVE SMOOTH"
);
}
);
width = 443;
}
);
unicode = 006F;
},
{
glyphname = oacute;
layers = (
{
layerId = "3E4994DA-6C35-486D-9CDD-3005170E1289";
name = Bold;
paths = (
{
closed = 1;
nodes = (
"98 476 OFFCURVE",
"36 400 OFFCURVE",
"36 232 CURVE SMOOTH",
"36 65 OFFCURVE",
"98 -11 OFFCURVE",
"222 -11 CURVE SMOOTH",
"346 -11 OFFCURVE",
"408 65 OFFCURVE",
"408 232 CURVE SMOOTH",
"408 400 OFFCURVE",
"346 476 OFFCURVE",
"222 476 CURVE SMOOTH"
);
},
{
closed = 1;
nodes = (
"277 386 OFFCURVE",
"297 339 OFFCURVE",
"297 249 CURVE SMOOTH",
"297 216 LINE SMOOTH",
"297 126 OFFCURVE",
"277 79 OFFCURVE",
"222 79 CURVE SMOOTH",
"167 79 OFFCURVE",
"147 126 OFFCURVE",
"147 216 CURVE SMOOTH",
"147 249 LINE SMOOTH",
"147 339 OFFCURVE",
"167 386 OFFCURVE",
"222 386 CURVE SMOOTH"
);
},
{
closed = 1;
nodes = (
"343 639 LINE",
"237 639 LINE",
"161 522 LINE",
"248 522 LINE",
"344 636 LINE"
);
}
);
width = 443;
}
);
unicode = 00F3;
},
{
glyphname = obreve;
layers = (
{
layerId = "3E4994DA-6C35-486D-9CDD-3005170E1289";
name = Bold;
paths = (
{
closed = 1;
nodes = (
"98 476 OFFCURVE",
"36 400 OFFCURVE",
"36 232 CURVE SMOOTH",
"36 65 OFFCURVE",
"98 -11 OFFCURVE",
"222 -11 CURVE SMOOTH",
"346 -11 OFFCURVE",
"408 65 OFFCURVE",
"408 232 CURVE SMOOTH",
"408 400 OFFCURVE",
"346 476 OFFCURVE",
"222 476 CURVE SMOOTH"
);
},
{
closed = 1;
nodes = (
"277 386 OFFCURVE",
"297 339 OFFCURVE",
"297 249 CURVE SMOOTH",
"297 216 LINE SMOOTH",
"297 126 OFFCURVE",
"277 79 OFFCURVE",
"222 79 CURVE SMOOTH",
"167 79 OFFCURVE",
"147 126 OFFCURVE",
"147 216 CURVE SMOOTH",
"147 249 LINE SMOOTH",
"147 339 OFFCURVE",
"167 386 OFFCURVE",
"222 386 CURVE SMOOTH"
);
},
{
closed = 1;
nodes = (
"274 639 LINE",
"272 627 OFFCURVE",
"251 610 OFFCURVE",
"221 610 CURVE SMOOTH",
"192 610 OFFCURVE",
"171 627 OFFCURVE",
"169 639 CURVE",
"103 639 LINE",
"103 595 OFFCURVE",
"149 545 OFFCURVE",
"221 545 CURVE SMOOTH",
"294 545 OFFCURVE",
"339 595 OFFCURVE",
"339 639 CURVE"
);
}
);
width = 443;
}
);
unicode = 014F;
},
{
glyphname = ocircumflex;
layers = (
{
layerId = "3E4994DA-6C35-486D-9CDD-3005170E1289";
name = Bold;
paths = (
{
closed = 1;
nodes = (
"98 476 OFFCURVE",
"36 400 OFFCURVE",
"36 232 CURVE SMOOTH",
"36 65 OFFCURVE",
"98 -11 OFFCURVE",
"222 -11 CURVE SMOOTH",
"346 -11 OFFCURVE",
"408 65 OFFCURVE",
"408 232 CURVE SMOOTH",
"408 400 OFFCURVE",
"346 476 OFFCURVE",
"222 476 CURVE SMOOTH"
);
},
{
closed = 1;
nodes = (
"277 386 OFFCURVE",
"297 339 OFFCURVE",
"297 249 CURVE SMOOTH",
"297 216 LINE SMOOTH",
"297 126 OFFCURVE",
"277 79 OFFCURVE",
"222 79 CURVE SMOOTH",
"167 79 OFFCURVE",
"147 126 OFFCURVE",
"147 216 CURVE SMOOTH",
"147 249 LINE SMOOTH",
"147 339 OFFCURVE",
"167 386 OFFCURVE",
"222 386 CURVE SMOOTH"
);
},
{
closed = 1;
nodes = (
"340 520 LINE",
"265 639 LINE",
"179 639 LINE",
"103 520 LINE",
"182 520 LINE",
"222 581 LINE",
"261 520 LINE"
);
}
);
width = 443;
}
);
unicode = 00F4;
},
{
glyphname = odieresis;
layers = (
{
layerId = "3E4994DA-6C35-486D-9CDD-3005170E1289";
name = Bold;
paths = (
{
closed = 1;
nodes = (
"98 476 OFFCURVE",
"36 400 OFFCURVE",
"36 232 CURVE SMOOTH",
"36 65 OFFCURVE",
"98 -11 OFFCURVE",
"222 -11 CURVE SMOOTH",
"346 -11 OFFCURVE",
"408 65 OFFCURVE",
"408 232 CURVE SMOOTH",
"408 400 OFFCURVE",
"346 476 OFFCURVE",
"222 476 CURVE SMOOTH"
);
},
{
closed = 1;
nodes = (
"277 386 OFFCURVE",
"297 339 OFFCURVE",
"297 249 CURVE SMOOTH",
"297 216 LINE SMOOTH",
"297 126 OFFCURVE",
"277 79 OFFCURVE",
"222 79 CURVE SMOOTH",
"167 79 OFFCURVE",
"147 126 OFFCURVE",
"147 216 CURVE SMOOTH",
"147 249 LINE SMOOTH",
"147 339 OFFCURVE",
"167 386 OFFCURVE",
"222 386 CURVE SMOOTH"
);
},
{
closed = 1;
nodes = (
"188 639 LINE",
"100 639 LINE",
"100 543 LINE",
"188 543 LINE"
);
},
{
closed = 1;
nodes = (
"343 639 LINE",
"255 639 LINE",
"255 543 LINE",
"343 543 LINE"
);
}
);
width = 443;
}
);
unicode = 00F6;
},
{
glyphname = ograve;
layers = (
{
layerId = "3E4994DA-6C35-486D-9CDD-3005170E1289";
name = Bold;
paths = (
{
closed = 1;
nodes = (
"98 476 OFFCURVE",
"36 400 OFFCURVE",
"36 232 CURVE SMOOTH",
"36 65 OFFCURVE",
"98 -11 OFFCURVE",
"222 -11 CURVE SMOOTH",
"346 -11 OFFCURVE",
"408 65 OFFCURVE",
"408 232 CURVE SMOOTH",
"408 400 OFFCURVE",
"346 476 OFFCURVE",
"222 476 CURVE SMOOTH"
);
},
{
closed = 1;
nodes = (
"277 386 OFFCURVE",
"297 339 OFFCURVE",
"297 249 CURVE SMOOTH",
"297 216 LINE SMOOTH",
"297 126 OFFCURVE",
"277 79 OFFCURVE",
"222 79 CURVE SMOOTH",
"167 79 OFFCURVE",
"147 126 OFFCURVE",
"147 216 CURVE SMOOTH",
"147 249 LINE SMOOTH",
"147 339 OFFCURVE",
"167 386 OFFCURVE",
"222 386 CURVE SMOOTH"
);
},
{
closed = 1;
nodes = (
"206 639 LINE",
"100 639 LINE",
"99 636 LINE",
"194 522 LINE",
"282 522 LINE"
);
}
);
width = 443;
}
);
unicode = 00F2;
},
{
glyphname = ohungarumlaut;
layers = (
{
layerId = "3E4994DA-6C35-486D-9CDD-3005170E1289";
name = Bold;
paths = (
{
closed = 1;
nodes = (
"98 476 OFFCURVE",
"36 400 OFFCURVE",
"36 232 CURVE SMOOTH",
"36 65 OFFCURVE",
"98 -11 OFFCURVE",
"222 -11 CURVE SMOOTH",
"346 -11 OFFCURVE",
"408 65 OFFCURVE",
"408 232 CURVE SMOOTH",
"408 400 OFFCURVE",
"346 476 OFFCURVE",
"222 476 CURVE SMOOTH"
);
},
{
closed = 1;
nodes = (
"277 386 OFFCURVE",
"297 339 OFFCURVE",
"297 249 CURVE SMOOTH",
"297 216 LINE SMOOTH",
"297 126 OFFCURVE",
"277 79 OFFCURVE",
"222 79 CURVE SMOOTH",
"167 79 OFFCURVE",
"147 126 OFFCURVE",
"147 216 CURVE SMOOTH",
"147 249 LINE SMOOTH",
"147 339 OFFCURVE",
"167 386 OFFCURVE",
"222 386 CURVE SMOOTH"
);
},
{
closed = 1;
nodes = (
"266 636 LINE",
"265 639 LINE",
"177 639 LINE",
"122 522 LINE",
"192 522 LINE"
);
},
{
closed = 1;
nodes = (
"390 636 LINE",
"389 639 LINE",
"301 639 LINE",
"246 522 LINE",
"316 522 LINE"
);
}
);
width = 443;
}
);
unicode = 0151;
},
{
glyphname = omacron;
layers = (
{
layerId = "3E4994DA-6C35-486D-9CDD-3005170E1289";
name = Bold;
paths = (
{
closed = 1;
nodes = (
"98 476 OFFCURVE",
"36 400 OFFCURVE",
"36 232 CURVE SMOOTH",
"36 65 OFFCURVE",
"98 -11 OFFCURVE",
"222 -11 CURVE SMOOTH",
"346 -11 OFFCURVE",
"408 65 OFFCURVE",
"408 232 CURVE SMOOTH",
"408 400 OFFCURVE",
"346 476 OFFCURVE",
"222 476 CURVE SMOOTH"
);
},
{
closed = 1;
nodes = (
"277 386 OFFCURVE",
"297 339 OFFCURVE",
"297 249 CURVE SMOOTH",
"297 216 LINE SMOOTH",
"297 126 OFFCURVE",
"277 79 OFFCURVE",
"222 79 CURVE SMOOTH",
"167 79 OFFCURVE",
"147 126 OFFCURVE",
"147 216 CURVE SMOOTH",
"147 249 LINE SMOOTH",
"147 339 OFFCURVE",
"167 386 OFFCURVE",
"222 386 CURVE SMOOTH"
);
},
{
closed = 1;
nodes = (
"334 530 LINE",
"334 606 LINE",
"109 606 LINE",
"109 530 LINE"
);
}
);
width = 443;
}
);
unicode = 014D;
},
{
glyphname = oslash;
layers = (
{
anchors = (
{
name = top;
position = "{222, 465}";
}
);
layerId = "3E4994DA-6C35-486D-9CDD-3005170E1289";
name = Bold;
paths = (
{
closed = 1;
nodes = (
"396 493 LINE",
"330 493 LINE",
"310 457 LINE",
"286 469 OFFCURVE",
"256 476 OFFCURVE",
"222 476 CURVE SMOOTH",
"98 476 OFFCURVE",
"36 400 OFFCURVE",
"36 232 CURVE SMOOTH",
"36 146 OFFCURVE",
"53 84 OFFCURVE",
"86 44 CURVE",
"46 -28 LINE",
"112 -28 LINE",
"132 8 LINE",
"157 -4 OFFCURVE",
"187 -11 OFFCURVE",
"222 -11 CURVE SMOOTH",
"346 -11 OFFCURVE",
"408 65 OFFCURVE",
"408 232 CURVE SMOOTH",
"408 319 OFFCURVE",
"391 382 OFFCURVE",
"357 422 CURVE"
);
},
{
closed = 1;
nodes = (
"293 305 LINE",
"295 288 OFFCURVE",
"297 270 OFFCURVE",
"297 249 CURVE SMOOTH",
"297 216 LINE SMOOTH",
"297 126 OFFCURVE",
"277 79 OFFCURVE",
"222 79 CURVE SMOOTH",
"204 79 OFFCURVE",
"190 84 OFFCURVE",
"179 94 CURVE"
);
},
{
closed = 1;
nodes = (
"239 386 OFFCURVE",
"253 381 OFFCURVE",
"263 372 CURVE",
"149 162 LINE",
"148 178 OFFCURVE",
"147 195 OFFCURVE",
"147 216 CURVE SMOOTH",
"147 249 LINE SMOOTH",
"147 339 OFFCURVE",
"167 386 OFFCURVE",
"222 386 CURVE SMOOTH"
);
}
);
width = 443;
}
);
unicode = 00F8;
},
{
glyphname = oslashacute;
layers = (
{
layerId = "3E4994DA-6C35-486D-9CDD-3005170E1289";
name = Bold;
paths = (
{
closed = 1;
nodes = (
"396 493 LINE",
"330 493 LINE",
"310 457 LINE",
"286 469 OFFCURVE",
"256 476 OFFCURVE",
"222 476 CURVE SMOOTH",
"98 476 OFFCURVE",
"36 400 OFFCURVE",
"36 232 CURVE SMOOTH",
"36 146 OFFCURVE",
"53 84 OFFCURVE",
"86 44 CURVE",
"46 -28 LINE",
"112 -28 LINE",
"132 8 LINE",
"157 -4 OFFCURVE",
"187 -11 OFFCURVE",
"222 -11 CURVE SMOOTH",
"346 -11 OFFCURVE",
"408 65 OFFCURVE",
"408 232 CURVE SMOOTH",
"408 319 OFFCURVE",
"391 382 OFFCURVE",
"357 422 CURVE"
);
},
{
closed = 1;
nodes = (
"293 305 LINE",
"295 288 OFFCURVE",
"297 270 OFFCURVE",
"297 249 CURVE SMOOTH",
"297 216 LINE SMOOTH",
"297 126 OFFCURVE",
"277 79 OFFCURVE",
"222 79 CURVE SMOOTH",
"204 79 OFFCURVE",
"190 84 OFFCURVE",
"179 94 CURVE"
);
},
{
closed = 1;
nodes = (
"239 386 OFFCURVE",
"253 381 OFFCURVE",
"263 372 CURVE",
"149 162 LINE",
"148 178 OFFCURVE",
"147 195 OFFCURVE",
"147 216 CURVE SMOOTH",
"147 249 LINE SMOOTH",
"147 339 OFFCURVE",
"167 386 OFFCURVE",
"222 386 CURVE SMOOTH"
);
},
{
closed = 1;
nodes = (
"343 639 LINE",
"237 639 LINE",
"161 522 LINE",
"248 522 LINE",
"344 636 LINE"
);
}
);
width = 443;
}
);
unicode = 01FF;
},
{
glyphname = otilde;
layers = (
{
layerId = "3E4994DA-6C35-486D-9CDD-3005170E1289";
name = Bold;
paths = (
{
closed = 1;
nodes = (
"98 476 OFFCURVE",
"36 400 OFFCURVE",
"36 232 CURVE SMOOTH",
"36 65 OFFCURVE",
"98 -11 OFFCURVE",
"222 -11 CURVE SMOOTH",
"346 -11 OFFCURVE",
"408 65 OFFCURVE",
"408 232 CURVE SMOOTH",
"408 400 OFFCURVE",
"346 476 OFFCURVE",
"222 476 CURVE SMOOTH"
);
},
{
closed = 1;
nodes = (
"277 386 OFFCURVE",
"297 339 OFFCURVE",
"297 249 CURVE SMOOTH",
"297 216 LINE SMOOTH",
"297 126 OFFCURVE",
"277 79 OFFCURVE",
"222 79 CURVE SMOOTH",
"167 79 OFFCURVE",
"147 126 OFFCURVE",
"147 216 CURVE SMOOTH",
"147 249 LINE SMOOTH",
"147 339 OFFCURVE",
"167 386 OFFCURVE",
"222 386 CURVE SMOOTH"
);
},
{
closed = 1;
nodes = (
"312 639 LINE",
"309 614 OFFCURVE",
"296 606 OFFCURVE",
"278 606 CURVE SMOOTH",
"238 606 OFFCURVE",
"203 639 OFFCURVE",
"160 639 CURVE SMOOTH",
"98 639 OFFCURVE",
"73 580 OFFCURVE",
"73 531 CURVE",
"132 531 LINE",
"135 555 OFFCURVE",
"148 564 OFFCURVE",
"166 564 CURVE SMOOTH",
"206 564 OFFCURVE",
"240 531 OFFCURVE",
"283 531 CURVE SMOOTH",
"346 531 OFFCURVE",
"370 591 OFFCURVE",
"370 639 CURVE"
);
}
);
width = 443;
}
);
unicode = 00F5;
},
{
glyphname = oe;
layers = (
{
anchors = (
{
name = top;
position = "{342, 465}";
}
);
layerId = "3E4994DA-6C35-486D-9CDD-3005170E1289";
name = Bold;
paths = (
{
closed = 1;
nodes = (
"423 476 OFFCURVE",
"382 457 OFFCURVE",
"352 417 CURVE",
"322 457 OFFCURVE",
"278 476 OFFCURVE",
"222 476 CURVE SMOOTH",
"98 476 OFFCURVE",
"36 400 OFFCURVE",
"36 232 CURVE SMOOTH",
"36 65 OFFCURVE",
"98 -11 OFFCURVE",
"222 -11 CURVE SMOOTH",
"278 -11 OFFCURVE",
"322 8 OFFCURVE",
"353 47 CURVE",
"383 8 OFFCURVE",
"425 -11 OFFCURVE",
"480 -11 CURVE SMOOTH",
"575 -11 OFFCURVE",
"644 45 OFFCURVE",
"644 164 CURVE",
"539 164 LINE",
"539 109 OFFCURVE",
"516 76 OFFCURVE",
"480 76 CURVE SMOOTH",
"428 76 OFFCURVE",
"409 123 OFFCURVE",
"408 206 CURVE",
"644 206 LINE",
"644 232 LINE SMOOTH",
"644 400 OFFCURVE",
"589 476 OFFCURVE",
"476 476 CURVE SMOOTH"
);
},
{
closed = 1;
nodes = (
"277 386 OFFCURVE",
"297 339 OFFCURVE",
"297 249 CURVE SMOOTH",
"297 216 LINE SMOOTH",
"297 126 OFFCURVE",
"277 79 OFFCURVE",
"222 79 CURVE SMOOTH",
"167 79 OFFCURVE",
"147 126 OFFCURVE",
"147 216 CURVE SMOOTH",
"147 249 LINE SMOOTH",
"147 339 OFFCURVE",
"167 386 OFFCURVE",
"222 386 CURVE SMOOTH"
);
},
{
closed = 1;
nodes = (
"515 389 OFFCURVE",
"533 350 OFFCURVE",
"533 283 CURVE",
"409 283 LINE",
"413 350 OFFCURVE",
"431 389 OFFCURVE",
"476 389 CURVE SMOOTH"
);
}
);
width = 684;
}
);
unicode = 0153;
},
{
glyphname = p;
layers = (
{
layerId = "3E4994DA-6C35-486D-9CDD-3005170E1289";
name = Bold;
paths = (
{
closed = 1;
nodes = (
"213 476 OFFCURVE",
"175 453 OFFCURVE",
"152 408 CURVE",
"148 408 LINE",
"137 465 LINE",
"49 465 LINE",
"49 -153 LINE",
"155 -153 LINE",
"155 48 LINE",
"159 48 LINE",
"176 11 OFFCURVE",
"216 -11 OFFCURVE",
"263 -11 CURVE SMOOTH",
"345 -11 OFFCURVE",
"407 63 OFFCURVE",
"407 232 CURVE SMOOTH",
"407 400 OFFCURVE",
"349 476 OFFCURVE",
"257 476 CURVE SMOOTH"
);
},
{
closed = 1;
nodes = (
"277 379 OFFCURVE",
"296 333 OFFCURVE",
"296 249 CURVE SMOOTH",
"296 216 LINE SMOOTH",
"296 132 OFFCURVE",
"277 86 OFFCURVE",
"225 86 CURVE SMOOTH",
"174 86 OFFCURVE",
"155 133 OFFCURVE",
"155 217 CURVE SMOOTH",
"155 249 LINE SMOOTH",
"155 333 OFFCURVE",
"174 379 OFFCURVE",
"225 379 CURVE SMOOTH"
);
}
);
width = 443;
}
);
unicode = 0070;
},
{
glyphname = thorn;
layers = (
{
layerId = "3E4994DA-6C35-486D-9CDD-3005170E1289";
name = Bold;
paths = (
{
closed = 1;
nodes = (
"155 639 LINE",
"49 639 LINE",
"49 -153 LINE",
"155 -153 LINE",
"155 48 LINE",
"159 48 LINE",
"176 11 OFFCURVE",
"216 -11 OFFCURVE",
"263 -11 CURVE SMOOTH",
"345 -11 OFFCURVE",
"407 63 OFFCURVE",
"407 232 CURVE SMOOTH",
"407 400 OFFCURVE",
"349 476 OFFCURVE",
"257 476 CURVE SMOOTH",
"213 476 OFFCURVE",
"175 453 OFFCURVE",
"152 407 CURVE",
"155 406 LINE"
);
},
{
closed = 1;
nodes = (
"277 379 OFFCURVE",
"296 333 OFFCURVE",
"296 249 CURVE SMOOTH",
"296 216 LINE SMOOTH",
"296 132 OFFCURVE",
"277 86 OFFCURVE",
"225 86 CURVE SMOOTH",
"174 86 OFFCURVE",
"155 133 OFFCURVE",
"155 217 CURVE SMOOTH",
"155 249 LINE SMOOTH",
"155 333 OFFCURVE",
"174 379 OFFCURVE",
"225 379 CURVE SMOOTH"
);
}
);
width = 443;
}
);
unicode = 00FE;
},
{
glyphname = q;
layers = (
{
layerId = "3E4994DA-6C35-486D-9CDD-3005170E1289";
name = Bold;
paths = (
{
closed = 1;
nodes = (
"94 476 OFFCURVE",
"36 400 OFFCURVE",
"36 232 CURVE SMOOTH",
"36 63 OFFCURVE",
"98 -11 OFFCURVE",
"180 -11 CURVE SMOOTH",
"227 -11 OFFCURVE",
"267 11 OFFCURVE",
"284 48 CURVE",
"288 48 LINE",
"288 -153 LINE",
"394 -153 LINE",
"394 465 LINE",
"306 465 LINE",
"295 408 LINE",
"291 408 LINE",
"268 453 OFFCURVE",
"230 476 OFFCURVE",
"186 476 CURVE SMOOTH"
);
},
{
closed = 1;
nodes = (
"269 379 OFFCURVE",
"288 333 OFFCURVE",
"288 249 CURVE SMOOTH",
"288 217 LINE SMOOTH",
"288 133 OFFCURVE",
"269 86 OFFCURVE",
"217 86 CURVE SMOOTH",
"166 86 OFFCURVE",
"147 132 OFFCURVE",
"147 216 CURVE SMOOTH",
"147 249 LINE SMOOTH",
"147 333 OFFCURVE",
"166 379 OFFCURVE",
"217 379 CURVE SMOOTH"
);
}
);
width = 443;
}
);
unicode = 0071;
},
{
glyphname = r;
layers = (
{
anchors = (
{
name = bottom;
position = "{141, 0}";
},
{
name = top;
position = "{141, 465}";
}
);
layerId = "3E4994DA-6C35-486D-9CDD-3005170E1289";
name = Bold;
paths = (
{
closed = 1;
nodes = (
"188 476 OFFCURVE",
"167 436 OFFCURVE",
"155 397 CURVE",
"149 397 LINE",
"137 465 LINE",
"49 465 LINE",
"49 0 LINE",
"155 0 LINE",
"155 259 LINE SMOOTH",
"155 341 OFFCURVE",
"195 366 OFFCURVE",
"241 366 CURVE SMOOTH",
"279 366 LINE",
"279 469 LINE",
"279 469 OFFCURVE",
"263 476 OFFCURVE",
"235 476 CURVE SMOOTH"
);
}
);
width = 282;
}
);
unicode = 0072;
},
{
glyphname = racute;
layers = (
{
layerId = "3E4994DA-6C35-486D-9CDD-3005170E1289";
name = Bold;
paths = (
{
closed = 1;
nodes = (
"188 476 OFFCURVE",
"167 436 OFFCURVE",
"155 397 CURVE",
"149 397 LINE",
"137 465 LINE",
"49 465 LINE",
"49 0 LINE",
"155 0 LINE",
"155 259 LINE SMOOTH",
"155 341 OFFCURVE",
"195 366 OFFCURVE",
"241 366 CURVE SMOOTH",
"279 366 LINE",
"279 469 LINE",
"279 469 OFFCURVE",
"263 476 OFFCURVE",
"235 476 CURVE SMOOTH"
);
},
{
closed = 1;
nodes = (
"220 639 LINE",
"113 639 LINE",
"37 522 LINE",
"126 522 LINE",
"221 636 LINE"
);
}
);
width = 282;
}
);
unicode = 0155;
},
{
glyphname = rcaron;
layers = (
{
layerId = "3E4994DA-6C35-486D-9CDD-3005170E1289";
name = Bold;
paths = (
{
closed = 1;
nodes = (
"188 476 OFFCURVE",
"167 436 OFFCURVE",
"155 397 CURVE",
"149 397 LINE",
"137 465 LINE",
"49 465 LINE",
"49 0 LINE",
"155 0 LINE",
"155 259 LINE SMOOTH",
"155 341 OFFCURVE",
"195 366 OFFCURVE",
"241 366 CURVE SMOOTH",
"279 366 LINE",
"279 469 LINE",
"279 469 OFFCURVE",
"263 476 OFFCURVE",
"235 476 CURVE SMOOTH"
);
},
{
closed = 1;
nodes = (
"142 520 LINE",
"217 639 LINE",
"138 639 LINE",
"99 578 LINE",
"59 639 LINE",
"-20 639 LINE",
"56 520 LINE"
);
}
);
width = 282;
}
);
unicode = 0159;
},
{
glyphname = rcommaaccent;
layers = (
{
layerId = "3E4994DA-6C35-486D-9CDD-3005170E1289";
name = Bold;
paths = (
{
closed = 1;
nodes = (
"188 476 OFFCURVE",
"167 436 OFFCURVE",
"155 397 CURVE",
"149 397 LINE",
"137 465 LINE",
"49 465 LINE",
"49 0 LINE",
"155 0 LINE",
"155 259 LINE SMOOTH",
"155 341 OFFCURVE",
"195 366 OFFCURVE",
"241 366 CURVE SMOOTH",
"279 366 LINE",
"279 469 LINE",
"279 469 OFFCURVE",
"263 476 OFFCURVE",
"235 476 CURVE SMOOTH"
);
},
{
closed = 1;
nodes = (
"162 -148 LINE",
"162 -49 LINE",
"52 -49 LINE",
"52 -157 LINE",
"95 -157 LINE",
"64 -232 LINE",
"121 -232 LINE"
);
}
);
width = 282;
}
);
unicode = 0157;
},
{
glyphname = s;
layers = (
{
anchors = (
{
name = bottom;
position = "{202, 0}";
},
{
name = top;
position = "{202, 465}";
}
);
layerId = "3E4994DA-6C35-486D-9CDD-3005170E1289";
name = Bold;
paths = (
{
closed = 1;
nodes = (
"110 476 OFFCURVE",
"36 429 OFFCURVE",
"36 334 CURVE SMOOTH",
"36 155 OFFCURVE",
"263 225 OFFCURVE",
"263 126 CURVE SMOOTH",
"263 88 OFFCURVE",
"230 76 OFFCURVE",
"202 76 CURVE SMOOTH",
"171 76 OFFCURVE",
"139 92 OFFCURVE",
"138 141 CURVE SMOOTH",
"138 148 LINE",
"30 148 LINE",
"30 148 OFFCURVE",
"29 141 OFFCURVE",
"29 137 CURVE SMOOTH",
"29 49 OFFCURVE",
"91 -11 OFFCURVE",
"198 -11 CURVE SMOOTH",
"297 -11 OFFCURVE",
"371 27 OFFCURVE",
"371 140 CURVE SMOOTH",
"371 324 OFFCURVE",
"144 253 OFFCURVE",
"144 343 CURVE SMOOTH",
"144 371 OFFCURVE",
"166 389 OFFCURVE",
"199 389 CURVE SMOOTH",
"231 389 OFFCURVE",
"250 370 OFFCURVE",
"251 331 CURVE SMOOTH",
"251 329 LINE",
"359 329 LINE",
"359 330 OFFCURVE",
"360 339 OFFCURVE",
"360 349 CURVE SMOOTH",
"360 429 OFFCURVE",
"291 476 OFFCURVE",
"202 476 CURVE SMOOTH"
);
}
);
width = 403;
}
);
unicode = 0073;
},
{
glyphname = sacute;
layers = (
{
layerId = "3E4994DA-6C35-486D-9CDD-3005170E1289";
name = Bold;
paths = (
{
closed = 1;
nodes = (
"110 476 OFFCURVE",
"36 429 OFFCURVE",
"36 334 CURVE SMOOTH",
"36 155 OFFCURVE",
"263 225 OFFCURVE",
"263 126 CURVE SMOOTH",
"263 88 OFFCURVE",
"230 76 OFFCURVE",
"202 76 CURVE SMOOTH",
"171 76 OFFCURVE",
"139 92 OFFCURVE",
"138 141 CURVE SMOOTH",
"138 148 LINE",
"30 148 LINE",
"30 148 OFFCURVE",
"29 141 OFFCURVE",
"29 137 CURVE SMOOTH",
"29 49 OFFCURVE",
"91 -11 OFFCURVE",
"198 -11 CURVE SMOOTH",
"297 -11 OFFCURVE",
"371 27 OFFCURVE",
"371 140 CURVE SMOOTH",
"371 324 OFFCURVE",
"144 253 OFFCURVE",
"144 343 CURVE SMOOTH",
"144 371 OFFCURVE",
"166 389 OFFCURVE",
"199 389 CURVE SMOOTH",
"231 389 OFFCURVE",
"250 370 OFFCURVE",
"251 331 CURVE SMOOTH",
"251 329 LINE",
"359 329 LINE",
"359 330 OFFCURVE",
"360 339 OFFCURVE",
"360 349 CURVE SMOOTH",
"360 429 OFFCURVE",
"291 476 OFFCURVE",
"202 476 CURVE SMOOTH"
);
},
{
closed = 1;
nodes = (
"323 639 LINE",
"217 639 LINE",
"141 522 LINE",
"228 522 LINE",
"324 636 LINE"
);
}
);
width = 403;
}
);
unicode = 015B;
},
{
glyphname = scaron;
layers = (
{
layerId = "3E4994DA-6C35-486D-9CDD-3005170E1289";
name = Bold;
paths = (
{
closed = 1;
nodes = (
"110 476 OFFCURVE",
"36 429 OFFCURVE",
"36 334 CURVE SMOOTH",
"36 155 OFFCURVE",
"263 225 OFFCURVE",
"263 126 CURVE SMOOTH",
"263 88 OFFCURVE",
"230 76 OFFCURVE",
"202 76 CURVE SMOOTH",
"171 76 OFFCURVE",
"139 92 OFFCURVE",
"138 141 CURVE SMOOTH",
"138 148 LINE",
"30 148 LINE",
"30 148 OFFCURVE",
"29 141 OFFCURVE",
"29 137 CURVE SMOOTH",
"29 49 OFFCURVE",
"91 -11 OFFCURVE",
"198 -11 CURVE SMOOTH",
"297 -11 OFFCURVE",
"371 27 OFFCURVE",
"371 140 CURVE SMOOTH",
"371 324 OFFCURVE",
"144 253 OFFCURVE",
"144 343 CURVE SMOOTH",
"144 371 OFFCURVE",
"166 389 OFFCURVE",
"199 389 CURVE SMOOTH",
"231 389 OFFCURVE",
"250 370 OFFCURVE",
"251 331 CURVE SMOOTH",
"251 329 LINE",
"359 329 LINE",
"359 330 OFFCURVE",
"360 339 OFFCURVE",
"360 349 CURVE SMOOTH",
"360 429 OFFCURVE",
"291 476 OFFCURVE",
"202 476 CURVE SMOOTH"
);
},
{
closed = 1;
nodes = (
"321 639 LINE",
"241 639 LINE",
"202 578 LINE",
"163 639 LINE",
"83 639 LINE",
"159 520 LINE",
"246 520 LINE"
);
}
);
width = 403;
}
);
unicode = 0161;
},
{
glyphname = scedilla;
layers = (
{
layerId = "3E4994DA-6C35-486D-9CDD-3005170E1289";
name = Bold;
paths = (
{
closed = 1;
nodes = (
"110 476 OFFCURVE",
"36 429 OFFCURVE",
"36 334 CURVE SMOOTH",
"36 155 OFFCURVE",
"263 225 OFFCURVE",
"263 126 CURVE SMOOTH",
"263 88 OFFCURVE",
"230 76 OFFCURVE",
"202 76 CURVE SMOOTH",
"171 76 OFFCURVE",
"139 92 OFFCURVE",
"138 141 CURVE SMOOTH",
"138 148 LINE",
"30 148 LINE",
"30 148 OFFCURVE",
"29 141 OFFCURVE",
"29 137 CURVE SMOOTH",
"29 59 OFFCURVE",
"76 4 OFFCURVE",
"159 -8 CURVE",
"152 -68 LINE",
"181 -68 LINE SMOOTH",
"203 -68 OFFCURVE",
"211 -75 OFFCURVE",
"211 -89 CURVE SMOOTH",
"211 -106 OFFCURVE",
"199 -111 OFFCURVE",
"179 -111 CURVE SMOOTH",
"117 -111 LINE",
"117 -154 LINE",
"138 -158 OFFCURVE",
"165 -161 OFFCURVE",
"191 -161 CURVE SMOOTH",
"229 -161 OFFCURVE",
"287 -149 OFFCURVE",
"287 -89 CURVE SMOOTH",
"287 -49 OFFCURVE",
"255 -32 OFFCURVE",
"217 -29 CURVE",
"219 -10 LINE",
"307 -4 OFFCURVE",
"371 34 OFFCURVE",
"371 140 CURVE SMOOTH",
"371 324 OFFCURVE",
"144 253 OFFCURVE",
"144 343 CURVE SMOOTH",
"144 371 OFFCURVE",
"166 389 OFFCURVE",
"199 389 CURVE SMOOTH",
"231 389 OFFCURVE",
"250 370 OFFCURVE",
"251 331 CURVE SMOOTH",
"251 329 LINE",
"359 329 LINE",
"359 330 OFFCURVE",
"360 339 OFFCURVE",
"360 349 CURVE SMOOTH",
"360 429 OFFCURVE",
"291 476 OFFCURVE",
"202 476 CURVE SMOOTH"
);
}
);
width = 403;
}
);
unicode = 015F;
},
{
glyphname = scircumflex;
layers = (
{
layerId = "3E4994DA-6C35-486D-9CDD-3005170E1289";
name = Bold;
paths = (
{
closed = 1;
nodes = (
"110 476 OFFCURVE",
"36 429 OFFCURVE",
"36 334 CURVE SMOOTH",
"36 155 OFFCURVE",
"263 225 OFFCURVE",
"263 126 CURVE SMOOTH",
"263 88 OFFCURVE",
"230 76 OFFCURVE",
"202 76 CURVE SMOOTH",
"171 76 OFFCURVE",
"139 92 OFFCURVE",
"138 141 CURVE SMOOTH",
"138 148 LINE",
"30 148 LINE",
"30 148 OFFCURVE",
"29 141 OFFCURVE",
"29 137 CURVE SMOOTH",
"29 49 OFFCURVE",
"91 -11 OFFCURVE",
"198 -11 CURVE SMOOTH",
"297 -11 OFFCURVE",
"371 27 OFFCURVE",
"371 140 CURVE SMOOTH",
"371 324 OFFCURVE",
"144 253 OFFCURVE",
"144 343 CURVE SMOOTH",
"144 371 OFFCURVE",
"166 389 OFFCURVE",
"199 389 CURVE SMOOTH",
"231 389 OFFCURVE",
"250 370 OFFCURVE",
"251 331 CURVE SMOOTH",
"251 329 LINE",
"359 329 LINE",
"359 330 OFFCURVE",
"360 339 OFFCURVE",
"360 349 CURVE SMOOTH",
"360 429 OFFCURVE",
"291 476 OFFCURVE",
"202 476 CURVE SMOOTH"
);
},
{
closed = 1;
nodes = (
"246 639 LINE",
"159 639 LINE",
"83 520 LINE",
"163 520 LINE",
"202 581 LINE",
"241 520 LINE",
"321 520 LINE"
);
}
);
width = 403;
}
);
unicode = 015D;
},
{
glyphname = germandbls;
layers = (
{
layerId = "3E4994DA-6C35-486D-9CDD-3005170E1289";
name = Bold;
paths = (
{
closed = 1;
nodes = (
"118 650 OFFCURVE",
"35 595 OFFCURVE",
"35 460 CURVE SMOOTH",
"35 0 LINE",
"141 0 LINE",
"141 467 LINE SMOOTH",
"141 527 OFFCURVE",
"173 560 OFFCURVE",
"220 560 CURVE SMOOTH",
"268 560 OFFCURVE",
"293 528 OFFCURVE",
"293 482 CURVE SMOOTH",
"293 430 OFFCURVE",
"263 386 OFFCURVE",
"227 386 CURVE SMOOTH",
"184 386 LINE",
"184 286 LINE",
"230 286 LINE SMOOTH",
"275 286 OFFCURVE",
"311 243 OFFCURVE",
"311 190 CURVE SMOOTH",
"311 136 OFFCURVE",
"275 90 OFFCURVE",
"230 90 CURVE SMOOTH",
"184 90 LINE",
"184 0 LINE",
"241 0 LINE SMOOTH",
"340 0 OFFCURVE",
"418 75 OFFCURVE",
"418 189 CURVE SMOOTH",
"418 257 OFFCURVE",
"376 324 OFFCURVE",
"316 346 CURVE",
"316 349 LINE",
"365 369 OFFCURVE",
"400 426 OFFCURVE",
"400 484 CURVE SMOOTH",
"400 588 OFFCURVE",
"325 650 OFFCURVE",
"225 650 CURVE SMOOTH"
);
}
);
width = 443;
}
);
unicode = 00DF;
},
{
glyphname = longs;
layers = (
{
layerId = "3E4994DA-6C35-486D-9CDD-3005170E1289";
name = Bold;
paths = (
{
closed = 1;
nodes = (
"80 646 OFFCURVE",
"55 583 OFFCURVE",
"55 522 CURVE SMOOTH",
"55 465 LINE",
"8 465 LINE",
"8 376 LINE",
"55 376 LINE",
"55 0 LINE",
"161 0 LINE",
"161 519 LINE SMOOTH",
"161 544 OFFCURVE",
"174 557 OFFCURVE",
"198 557 CURVE SMOOTH",
"241 557 LINE",
"241 636 LINE",
"224 641 OFFCURVE",
"189 646 OFFCURVE",
"164 646 CURVE SMOOTH"
);
}
);
width = 202;
}
);
unicode = 017F;
},
{
glyphname = t;
layers = (
{
anchors = (
{
name = bottom;
position = "{146, 0}";
},
{
name = center;
position = "{121, 232}";
}
);
layerId = "3E4994DA-6C35-486D-9CDD-3005170E1289";
name = Bold;
paths = (
{
closed = 1;
nodes = (
"161 465 LINE",
"161 596 LINE",
"71 596 LINE",
"55 465 LINE",
"8 465 LINE",
"8 376 LINE",
"55 376 LINE",
"55 114 LINE SMOOTH",
"55 52 OFFCURVE",
"80 -11 OFFCURVE",
"164 -11 CURVE SMOOTH",
"185 -11 OFFCURVE",
"213 -5 OFFCURVE",
"228 0 CURVE",
"228 79 LINE",
"198 79 LINE SMOOTH",
"174 79 OFFCURVE",
"161 92 OFFCURVE",
"161 117 CURVE SMOOTH",
"161 376 LINE",
"228 376 LINE",
"228 465 LINE"
);
}
);
width = 241;
}
);
unicode = 0074;
},
{
glyphname = tbar;
layers = (
{
layerId = "3E4994DA-6C35-486D-9CDD-3005170E1289";
name = Bold;
paths = (
{
closed = 1;
nodes = (
"161 596 LINE",
"71 596 LINE",
"55 465 LINE",
"8 465 LINE",
"8 376 LINE",
"55 376 LINE",
"55 309 LINE",
"10 309 LINE",
"10 232 LINE",
"55 232 LINE",
"55 114 LINE SMOOTH",
"55 52 OFFCURVE",
"80 -11 OFFCURVE",
"164 -11 CURVE SMOOTH",
"185 -11 OFFCURVE",
"213 -5 OFFCURVE",
"228 0 CURVE",
"228 79 LINE",
"198 79 LINE SMOOTH",
"174 79 OFFCURVE",
"161 92 OFFCURVE",
"161 117 CURVE SMOOTH",
"161 232 LINE",
"225 232 LINE",
"225 309 LINE",
"161 309 LINE",
"161 376 LINE",
"228 376 LINE",
"228 465 LINE",
"161 465 LINE"
);
}
);
width = 241;
}
);
unicode = 0167;
},
{
glyphname = tcaron;
layers = (
{
layerId = "3E4994DA-6C35-486D-9CDD-3005170E1289";
name = Bold;
paths = (
{
closed = 1;
nodes = (
"161 465 LINE",
"161 596 LINE",
"71 596 LINE",
"55 465 LINE",
"8 465 LINE",
"8 376 LINE",
"55 376 LINE",
"55 114 LINE SMOOTH",
"55 52 OFFCURVE",
"80 -11 OFFCURVE",
"164 -11 CURVE SMOOTH",
"185 -11 OFFCURVE",
"213 -5 OFFCURVE",
"228 0 CURVE",
"228 79 LINE",
"198 79 LINE SMOOTH",
"174 79 OFFCURVE",
"161 92 OFFCURVE",
"161 117 CURVE SMOOTH",
"161 376 LINE",
"228 376 LINE",
"228 465 LINE"
);
},
{
closed = 1;
nodes = (
"387 496 LINE",
"387 606 LINE",
"265 606 LINE",
"265 485 LINE",
"314 485 LINE",
"276 376 LINE",
"339 376 LINE"
);
}
);
width = 347;
}
);
unicode = 0165;
},
{
glyphname = tcommaaccent;
layers = (
{
layerId = "3E4994DA-6C35-486D-9CDD-3005170E1289";
name = Bold;
paths = (
{
closed = 1;
nodes = (
"161 465 LINE",
"161 596 LINE",
"71 596 LINE",
"55 465 LINE",
"8 465 LINE",
"8 376 LINE",
"55 376 LINE",
"55 114 LINE SMOOTH",
"55 52 OFFCURVE",
"80 -11 OFFCURVE",
"164 -11 CURVE SMOOTH",
"185 -11 OFFCURVE",
"213 -5 OFFCURVE",
"228 0 CURVE",
"228 79 LINE",
"198 79 LINE SMOOTH",
"174 79 OFFCURVE",
"161 92 OFFCURVE",
"161 117 CURVE SMOOTH",
"161 376 LINE",
"228 376 LINE",
"228 465 LINE"
);
},
{
closed = 1;
nodes = (
"176 -148 LINE",
"176 -49 LINE",
"66 -49 LINE",
"66 -157 LINE",
"110 -157 LINE",
"78 -232 LINE",
"135 -232 LINE"
);
}
);
width = 241;
}
);
unicode = 021B;
},
{
glyphname = u;
layers = (
{
anchors = (
{
name = ogonek;
position = "{399, 9}";
},
{
name = top;
position = "{222, 465}";
}
);
layerId = "3E4994DA-6C35-486D-9CDD-3005170E1289";
name = Bold;
paths = (
{
closed = 1;
nodes = (
"394 0 LINE",
"394 465 LINE",
"288 465 LINE",
"288 177 LINE SMOOTH",
"288 125 OFFCURVE",
"257 86 OFFCURVE",
"216 86 CURVE SMOOTH",
"176 86 OFFCURVE",
"155 108 OFFCURVE",
"155 168 CURVE SMOOTH",
"155 465 LINE",
"49 465 LINE",
"49 139 LINE SMOOTH",
"49 29 OFFCURVE",
"101 -11 OFFCURVE",
"172 -11 CURVE SMOOTH",
"228 -11 OFFCURVE",
"266 21 OFFCURVE",
"290 57 CURVE",
"295 57 LINE",
"306 0 LINE"
);
}
);
width = 443;
}
);
unicode = 0075;
},
{
glyphname = uacute;
layers = (
{
layerId = "3E4994DA-6C35-486D-9CDD-3005170E1289";
name = Bold;
paths = (
{
closed = 1;
nodes = (
"394 465 LINE",
"288 465 LINE",
"288 177 LINE SMOOTH",
"288 125 OFFCURVE",
"257 86 OFFCURVE",
"216 86 CURVE SMOOTH",
"176 86 OFFCURVE",
"155 108 OFFCURVE",
"155 168 CURVE SMOOTH",
"155 465 LINE",
"49 465 LINE",
"49 139 LINE SMOOTH",
"49 29 OFFCURVE",
"101 -11 OFFCURVE",
"172 -11 CURVE SMOOTH",
"228 -11 OFFCURVE",
"266 21 OFFCURVE",
"290 57 CURVE",
"295 57 LINE",
"306 0 LINE",
"394 0 LINE"
);
},
{
closed = 1;
nodes = (
"343 639 LINE",
"237 639 LINE",
"161 522 LINE",
"248 522 LINE",
"344 636 LINE"
);
}
);
width = 443;
}
);
unicode = 00FA;
},
{
glyphname = ubreve;
layers = (
{
layerId = "3E4994DA-6C35-486D-9CDD-3005170E1289";
name = Bold;
paths = (
{
closed = 1;
nodes = (
"394 0 LINE",
"394 465 LINE",
"288 465 LINE",
"288 177 LINE SMOOTH",
"288 125 OFFCURVE",
"257 86 OFFCURVE",
"216 86 CURVE SMOOTH",
"176 86 OFFCURVE",
"155 108 OFFCURVE",
"155 168 CURVE SMOOTH",
"155 465 LINE",
"49 465 LINE",
"49 139 LINE SMOOTH",
"49 29 OFFCURVE",
"101 -11 OFFCURVE",
"172 -11 CURVE SMOOTH",
"228 -11 OFFCURVE",
"266 21 OFFCURVE",
"290 57 CURVE",
"295 57 LINE",
"306 0 LINE"
);
},
{
closed = 1;
nodes = (
"274 639 LINE",
"272 627 OFFCURVE",
"251 610 OFFCURVE",
"221 610 CURVE SMOOTH",
"192 610 OFFCURVE",
"171 627 OFFCURVE",
"169 639 CURVE",
"103 639 LINE",
"103 595 OFFCURVE",
"149 545 OFFCURVE",
"221 545 CURVE SMOOTH",
"294 545 OFFCURVE",
"339 595 OFFCURVE",
"339 639 CURVE"
);
}
);
width = 443;
}
);
unicode = 016D;
},
{
glyphname = ucircumflex;
layers = (
{
layerId = "3E4994DA-6C35-486D-9CDD-3005170E1289";
name = Bold;
paths = (
{
closed = 1;
nodes = (
"394 0 LINE",
"394 465 LINE",
"288 465 LINE",
"288 177 LINE SMOOTH",
"288 125 OFFCURVE",
"257 86 OFFCURVE",
"216 86 CURVE SMOOTH",
"176 86 OFFCURVE",
"155 108 OFFCURVE",
"155 168 CURVE SMOOTH",
"155 465 LINE",
"49 465 LINE",
"49 139 LINE SMOOTH",
"49 29 OFFCURVE",
"101 -11 OFFCURVE",
"172 -11 CURVE SMOOTH",
"228 -11 OFFCURVE",
"266 21 OFFCURVE",
"290 57 CURVE",
"295 57 LINE",
"306 0 LINE"
);
},
{
closed = 1;
nodes = (
"340 520 LINE",
"265 639 LINE",
"179 639 LINE",
"103 520 LINE",
"182 520 LINE",
"222 581 LINE",
"261 520 LINE"
);
}
);
width = 443;
}
);
unicode = 00FB;
},
{
glyphname = udieresis;
layers = (
{
layerId = "3E4994DA-6C35-486D-9CDD-3005170E1289";
name = Bold;
paths = (
{
closed = 1;
nodes = (
"394 465 LINE",
"288 465 LINE",
"288 177 LINE SMOOTH",
"288 125 OFFCURVE",
"257 86 OFFCURVE",
"216 86 CURVE SMOOTH",
"176 86 OFFCURVE",
"155 108 OFFCURVE",
"155 168 CURVE SMOOTH",
"155 465 LINE",
"49 465 LINE",
"49 139 LINE SMOOTH",
"49 29 OFFCURVE",
"101 -11 OFFCURVE",
"172 -11 CURVE SMOOTH",
"228 -11 OFFCURVE",
"266 21 OFFCURVE",
"290 57 CURVE",
"295 57 LINE",
"306 0 LINE",
"394 0 LINE"
);
},
{
closed = 1;
nodes = (
"188 639 LINE",
"100 639 LINE",
"100 543 LINE",
"188 543 LINE"
);
},
{
closed = 1;
nodes = (
"343 639 LINE",
"255 639 LINE",
"255 543 LINE",
"343 543 LINE"
);
}
);
width = 443;
}
);
unicode = 00FC;
},
{
glyphname = ugrave;
layers = (
{
layerId = "3E4994DA-6C35-486D-9CDD-3005170E1289";
name = Bold;
paths = (
{
closed = 1;
nodes = (
"394 465 LINE",
"288 465 LINE",
"288 177 LINE SMOOTH",
"288 125 OFFCURVE",
"257 86 OFFCURVE",
"216 86 CURVE SMOOTH",
"176 86 OFFCURVE",
"155 108 OFFCURVE",
"155 168 CURVE SMOOTH",
"155 465 LINE",
"49 465 LINE",
"49 139 LINE SMOOTH",
"49 29 OFFCURVE",
"101 -11 OFFCURVE",
"172 -11 CURVE SMOOTH",
"228 -11 OFFCURVE",
"266 21 OFFCURVE",
"290 57 CURVE",
"295 57 LINE",
"306 0 LINE",
"394 0 LINE"
);
},
{
closed = 1;
nodes = (
"206 639 LINE",
"100 639 LINE",
"99 636 LINE",
"194 522 LINE",
"282 522 LINE"
);
}
);
width = 443;
}
);
unicode = 00F9;
},
{
glyphname = uhungarumlaut;
layers = (
{
layerId = "3E4994DA-6C35-486D-9CDD-3005170E1289";
name = Bold;
paths = (
{
closed = 1;
nodes = (
"394 465 LINE",
"288 465 LINE",
"288 177 LINE SMOOTH",
"288 125 OFFCURVE",
"257 86 OFFCURVE",
"216 86 CURVE SMOOTH",
"176 86 OFFCURVE",
"155 108 OFFCURVE",
"155 168 CURVE SMOOTH",
"155 465 LINE",
"49 465 LINE",
"49 139 LINE SMOOTH",
"49 29 OFFCURVE",
"101 -11 OFFCURVE",
"172 -11 CURVE SMOOTH",
"228 -11 OFFCURVE",
"266 21 OFFCURVE",
"290 57 CURVE",
"295 57 LINE",
"306 0 LINE",
"394 0 LINE"
);
},
{
closed = 1;
nodes = (
"265 639 LINE",
"177 639 LINE",
"122 522 LINE",
"192 522 LINE",
"266 636 LINE"
);
},
{
closed = 1;
nodes = (
"389 639 LINE",
"301 639 LINE",
"246 522 LINE",
"316 522 LINE",
"390 636 LINE"
);
}
);
width = 443;
}
);
unicode = 0171;
},
{
glyphname = umacron;
layers = (
{
layerId = "3E4994DA-6C35-486D-9CDD-3005170E1289";
name = Bold;
paths = (
{
closed = 1;
nodes = (
"394 0 LINE",
"394 465 LINE",
"288 465 LINE",
"288 177 LINE SMOOTH",
"288 125 OFFCURVE",
"257 86 OFFCURVE",
"216 86 CURVE SMOOTH",
"176 86 OFFCURVE",
"155 108 OFFCURVE",
"155 168 CURVE SMOOTH",
"155 465 LINE",
"49 465 LINE",
"49 139 LINE SMOOTH",
"49 29 OFFCURVE",
"101 -11 OFFCURVE",
"172 -11 CURVE SMOOTH",
"228 -11 OFFCURVE",
"266 21 OFFCURVE",
"290 57 CURVE",
"295 57 LINE",
"306 0 LINE"
);
},
{
closed = 1;
nodes = (
"334 530 LINE",
"334 606 LINE",
"109 606 LINE",
"109 530 LINE"
);
}
);
width = 443;
}
);
unicode = 016B;
},
{
glyphname = uogonek;
layers = (
{
layerId = "3E4994DA-6C35-486D-9CDD-3005170E1289";
name = Bold;
paths = (
{
closed = 1;
nodes = (
"394 465 LINE",
"288 465 LINE",
"288 177 LINE SMOOTH",
"288 125 OFFCURVE",
"257 86 OFFCURVE",
"216 86 CURVE SMOOTH",
"176 86 OFFCURVE",
"155 108 OFFCURVE",
"155 168 CURVE SMOOTH",
"155 465 LINE",
"49 465 LINE",
"49 139 LINE SMOOTH",
"49 29 OFFCURVE",
"101 -11 OFFCURVE",
"172 -11 CURVE SMOOTH",
"228 -11 OFFCURVE",
"266 21 OFFCURVE",
"290 57 CURVE",
"295 57 LINE",
"306 0 LINE",
"325 0 LINE",
"324 4 LINE",
"301 -19 OFFCURVE",
"281 -44 OFFCURVE",
"281 -88 CURVE SMOOTH",
"281 -149 OFFCURVE",
"328 -168 OFFCURVE",
"369 -168 CURVE SMOOTH",
"388 -168 OFFCURVE",
"407 -164 OFFCURVE",
"427 -156 CURVE",
"427 -107 LINE",
"408 -107 LINE SMOOTH",
"378 -107 OFFCURVE",
"368 -85 OFFCURVE",
"368 -62 CURVE SMOOTH",
"368 -37 OFFCURVE",
"384 -12 OFFCURVE",
"394 0 CURVE"
);
}
);
width = 443;
}
);
unicode = 0173;
},
{
glyphname = uring;
layers = (
{
layerId = "3E4994DA-6C35-486D-9CDD-3005170E1289";
name = Bold;
paths = (
{
closed = 1;
nodes = (
"394 0 LINE",
"394 465 LINE",
"288 465 LINE",
"288 177 LINE SMOOTH",
"288 125 OFFCURVE",
"257 86 OFFCURVE",
"216 86 CURVE SMOOTH",
"176 86 OFFCURVE",
"155 108 OFFCURVE",
"155 168 CURVE SMOOTH",
"155 465 LINE",
"49 465 LINE",
"49 139 LINE SMOOTH",
"49 29 OFFCURVE",
"101 -11 OFFCURVE",
"172 -11 CURVE SMOOTH",
"228 -11 OFFCURVE",
"266 21 OFFCURVE",
"290 57 CURVE",
"295 57 LINE",
"306 0 LINE"
);
},
{
closed = 1;
nodes = (
"175 666 OFFCURVE",
"137 628 OFFCURVE",
"137 581 CURVE SMOOTH",
"137 533 OFFCURVE",
"176 496 OFFCURVE",
"222 496 CURVE SMOOTH",
"269 496 OFFCURVE",
"307 534 OFFCURVE",
"307 581 CURVE SMOOTH",
"307 627 OFFCURVE",
"270 666 OFFCURVE",
"222 666 CURVE SMOOTH"
);
},
{
closed = 1;
nodes = (
"244 621 OFFCURVE",
"263 604 OFFCURVE",
"263 581 CURVE SMOOTH",
"263 558 OFFCURVE",
"244 540 OFFCURVE",
"222 540 CURVE SMOOTH",
"199 540 OFFCURVE",
"181 558 OFFCURVE",
"181 581 CURVE SMOOTH",
"181 604 OFFCURVE",
"199 621 OFFCURVE",
"222 621 CURVE SMOOTH"
);
}
);
width = 443;
}
);
unicode = 016F;
},
{
glyphname = utilde;
layers = (
{
layerId = "3E4994DA-6C35-486D-9CDD-3005170E1289";
name = Bold;
paths = (
{
closed = 1;
nodes = (
"394 0 LINE",
"394 465 LINE",
"288 465 LINE",
"288 177 LINE SMOOTH",
"288 125 OFFCURVE",
"257 86 OFFCURVE",
"216 86 CURVE SMOOTH",
"176 86 OFFCURVE",
"155 108 OFFCURVE",
"155 168 CURVE SMOOTH",
"155 465 LINE",
"49 465 LINE",
"49 139 LINE SMOOTH",
"49 29 OFFCURVE",
"101 -11 OFFCURVE",
"172 -11 CURVE SMOOTH",
"228 -11 OFFCURVE",
"266 21 OFFCURVE",
"290 57 CURVE",
"295 57 LINE",
"306 0 LINE"
);
},
{
closed = 1;
nodes = (
"312 639 LINE",
"309 614 OFFCURVE",
"296 606 OFFCURVE",
"278 606 CURVE SMOOTH",
"238 606 OFFCURVE",
"203 639 OFFCURVE",
"160 639 CURVE SMOOTH",
"98 639 OFFCURVE",
"73 580 OFFCURVE",
"73 531 CURVE",
"132 531 LINE",
"135 555 OFFCURVE",
"148 564 OFFCURVE",
"166 564 CURVE SMOOTH",
"206 564 OFFCURVE",
"240 531 OFFCURVE",
"283 531 CURVE SMOOTH",
"346 531 OFFCURVE",
"370 591 OFFCURVE",
"370 639 CURVE"
);
}
);
width = 443;
}
);
unicode = 0169;
},
{
glyphname = v;
layers = (
{
layerId = "3E4994DA-6C35-486D-9CDD-3005170E1289";
name = Bold;
paths = (
{
closed = 1;
nodes = (
"400 465 LINE",
"293 465 LINE",
"234 265 LINE SMOOTH",
"221 219 OFFCURVE",
"217 172 OFFCURVE",
"208 126 CURVE",
"204 126 LINE",
"194 172 OFFCURVE",
"189 219 OFFCURVE",
"175 265 CURVE SMOOTH",
"115 465 LINE",
"4 465 LINE",
"148 0 LINE",
"255 0 LINE"
);
}
);
width = 403;
}
);
unicode = 0076;
},
{
glyphname = w;
layers = (
{
anchors = (
{
name = top;
position = "{282, 465}";
}
);
layerId = "3E4994DA-6C35-486D-9CDD-3005170E1289";
name = Bold;
paths = (
{
closed = 1;
nodes = (
"451 0 LINE",
"563 465 LINE",
"465 465 LINE",
"424 272 LINE SMOOTH",
"414 220 OFFCURVE",
"401 128 OFFCURVE",
"401 128 CURVE SMOOTH",
"398 128 LINE SMOOTH",
"398 128 OFFCURVE",
"388 227 OFFCURVE",
"378 272 CURVE SMOOTH",
"339 465 LINE",
"232 465 LINE",
"193 273 LINE SMOOTH",
"179 207 OFFCURVE",
"173 128 OFFCURVE",
"173 128 CURVE SMOOTH",
"170 128 LINE SMOOTH",
"170 128 OFFCURVE",
"165 211 OFFCURVE",
"151 274 CURVE SMOOTH",
"107 465 LINE",
"1 465 LINE",
"114 0 LINE",
"221 0 LINE",
"266 223 LINE SMOOTH",
"276 271 OFFCURVE",
"279 337 OFFCURVE",
"279 337 CURVE",
"285 337 LINE",
"285 337 OFFCURVE",
"288 269 OFFCURVE",
"298 222 CURVE SMOOTH",
"344 0 LINE"
);
}
);
width = 564;
}
);
unicode = 0077;
},
{
glyphname = wacute;
layers = (
{
layerId = "3E4994DA-6C35-486D-9CDD-3005170E1289";
name = Bold;
paths = (
{
closed = 1;
nodes = (
"563 465 LINE",
"465 465 LINE",
"424 272 LINE SMOOTH",
"414 220 OFFCURVE",
"401 128 OFFCURVE",
"401 128 CURVE SMOOTH",
"398 128 LINE SMOOTH",
"398 128 OFFCURVE",
"388 227 OFFCURVE",
"378 272 CURVE SMOOTH",
"339 465 LINE",
"232 465 LINE",
"193 273 LINE SMOOTH",
"179 207 OFFCURVE",
"173 128 OFFCURVE",
"173 128 CURVE SMOOTH",
"170 128 LINE SMOOTH",
"170 128 OFFCURVE",
"165 211 OFFCURVE",
"151 274 CURVE SMOOTH",
"107 465 LINE",
"1 465 LINE",
"114 0 LINE",
"221 0 LINE",
"266 223 LINE SMOOTH",
"276 271 OFFCURVE",
"279 337 OFFCURVE",
"279 337 CURVE",
"285 337 LINE",
"285 337 OFFCURVE",
"288 269 OFFCURVE",
"298 222 CURVE SMOOTH",
"344 0 LINE",
"451 0 LINE"
);
},
{
closed = 1;
nodes = (
"404 639 LINE",
"297 639 LINE",
"221 522 LINE",
"309 522 LINE",
"405 636 LINE"
);
}
);
width = 564;
}
);
unicode = 1E83;
},
{
glyphname = wcircumflex;
layers = (
{
layerId = "3E4994DA-6C35-486D-9CDD-3005170E1289";
name = Bold;
paths = (
{
closed = 1;
nodes = (
"451 0 LINE",
"563 465 LINE",
"465 465 LINE",
"424 272 LINE SMOOTH",
"414 220 OFFCURVE",
"401 128 OFFCURVE",
"401 128 CURVE SMOOTH",
"398 128 LINE SMOOTH",
"398 128 OFFCURVE",
"388 227 OFFCURVE",
"378 272 CURVE SMOOTH",
"339 465 LINE",
"232 465 LINE",
"193 273 LINE SMOOTH",
"179 207 OFFCURVE",
"173 128 OFFCURVE",
"173 128 CURVE SMOOTH",
"170 128 LINE SMOOTH",
"170 128 OFFCURVE",
"165 211 OFFCURVE",
"151 274 CURVE SMOOTH",
"107 465 LINE",
"1 465 LINE",
"114 0 LINE",
"221 0 LINE",
"266 223 LINE SMOOTH",
"276 271 OFFCURVE",
"279 337 OFFCURVE",
"279 337 CURVE",
"285 337 LINE",
"285 337 OFFCURVE",
"288 269 OFFCURVE",
"298 222 CURVE SMOOTH",
"344 0 LINE"
);
},
{
closed = 1;
nodes = (
"401 520 LINE",
"326 639 LINE",
"240 639 LINE",
"164 520 LINE",
"243 520 LINE",
"283 581 LINE",
"322 520 LINE"
);
}
);
width = 564;
}
);
unicode = 0175;
},
{
glyphname = wdieresis;
layers = (
{
layerId = "3E4994DA-6C35-486D-9CDD-3005170E1289";
name = Bold;
paths = (
{
closed = 1;
nodes = (
"563 465 LINE",
"465 465 LINE",
"424 272 LINE SMOOTH",
"414 220 OFFCURVE",
"401 128 OFFCURVE",
"401 128 CURVE SMOOTH",
"398 128 LINE SMOOTH",
"398 128 OFFCURVE",
"388 227 OFFCURVE",
"378 272 CURVE SMOOTH",
"339 465 LINE",
"232 465 LINE",
"193 273 LINE SMOOTH",
"179 207 OFFCURVE",
"173 128 OFFCURVE",
"173 128 CURVE SMOOTH",
"170 128 LINE SMOOTH",
"170 128 OFFCURVE",
"165 211 OFFCURVE",
"151 274 CURVE SMOOTH",
"107 465 LINE",
"1 465 LINE",
"114 0 LINE",
"221 0 LINE",
"266 223 LINE SMOOTH",
"276 271 OFFCURVE",
"279 337 OFFCURVE",
"279 337 CURVE",
"285 337 LINE",
"285 337 OFFCURVE",
"288 269 OFFCURVE",
"298 222 CURVE SMOOTH",
"344 0 LINE",
"451 0 LINE"
);
},
{
closed = 1;
nodes = (
"249 639 LINE",
"161 639 LINE",
"161 543 LINE",
"249 543 LINE"
);
},
{
closed = 1;
nodes = (
"404 639 LINE",
"316 639 LINE",
"316 543 LINE",
"404 543 LINE"
);
}
);
width = 564;
}
);
unicode = 1E85;
},
{
glyphname = wgrave;
layers = (
{
layerId = "3E4994DA-6C35-486D-9CDD-3005170E1289";
name = Bold;
paths = (
{
closed = 1;
nodes = (
"563 465 LINE",
"465 465 LINE",
"424 272 LINE SMOOTH",
"414 220 OFFCURVE",
"401 128 OFFCURVE",
"401 128 CURVE SMOOTH",
"398 128 LINE SMOOTH",
"398 128 OFFCURVE",
"388 227 OFFCURVE",
"378 272 CURVE SMOOTH",
"339 465 LINE",
"232 465 LINE",
"193 273 LINE SMOOTH",
"179 207 OFFCURVE",
"173 128 OFFCURVE",
"173 128 CURVE SMOOTH",
"170 128 LINE SMOOTH",
"170 128 OFFCURVE",
"165 211 OFFCURVE",
"151 274 CURVE SMOOTH",
"107 465 LINE",
"1 465 LINE",
"114 0 LINE",
"221 0 LINE",
"266 223 LINE SMOOTH",
"276 271 OFFCURVE",
"279 337 OFFCURVE",
"279 337 CURVE",
"285 337 LINE",
"285 337 OFFCURVE",
"288 269 OFFCURVE",
"298 222 CURVE SMOOTH",
"344 0 LINE",
"451 0 LINE"
);
},
{
closed = 1;
nodes = (
"267 639 LINE",
"161 639 LINE",
"160 636 LINE",
"255 522 LINE",
"343 522 LINE"
);
}
);
width = 564;
}
);
unicode = 1E81;
},
{
glyphname = x;
layers = (
{
layerId = "3E4994DA-6C35-486D-9CDD-3005170E1289";
name = Bold;
paths = (
{
closed = 1;
nodes = (
"392 465 LINE",
"278 465 LINE",
"209 330 LINE",
"204 330 LINE",
"135 465 LINE",
"15 465 LINE",
"139 240 LINE",
"4 0 LINE",
"118 0 LINE",
"196 154 LINE",
"201 154 LINE",
"279 0 LINE",
"399 0 LINE",
"266 243 LINE"
);
}
);
width = 403;
}
);
unicode = 0078;
},
{
glyphname = y;
layers = (
{
anchors = (
{
name = top;
position = "{202, 465}";
}
);
layerId = "3E4994DA-6C35-486D-9CDD-3005170E1289";
name = Bold;
paths = (
{
closed = 1;
nodes = (
"400 465 LINE",
"293 465 LINE",
"236 246 LINE",
"225 207 OFFCURVE",
"221 165 OFFCURVE",
"214 126 CURVE",
"210 126 LINE",
"202 166 OFFCURVE",
"198 207 OFFCURVE",
"186 247 CURVE",
"116 465 LINE",
"4 465 LINE",
"158 0 LINE",
"146 -51 OFFCURVE",
"117 -72 OFFCURVE",
"87 -72 CURVE SMOOTH",
"39 -72 LINE",
"39 -153 LINE",
"39 -154 OFFCURVE",
"65 -161 OFFCURVE",
"108 -161 CURVE SMOOTH",
"197 -161 OFFCURVE",
"243 -77 OFFCURVE",
"272 24 CURVE SMOOTH"
);
}
);
width = 403;
}
);
unicode = 0079;
},
{
glyphname = yacute;
layers = (
{
layerId = "3E4994DA-6C35-486D-9CDD-3005170E1289";
name = Bold;
paths = (
{
closed = 1;
nodes = (
"400 465 LINE",
"293 465 LINE",
"236 246 LINE",
"225 207 OFFCURVE",
"221 165 OFFCURVE",
"214 126 CURVE",
"210 126 LINE",
"202 166 OFFCURVE",
"198 207 OFFCURVE",
"186 247 CURVE",
"116 465 LINE",
"4 465 LINE",
"158 0 LINE",
"146 -51 OFFCURVE",
"117 -72 OFFCURVE",
"87 -72 CURVE SMOOTH",
"39 -72 LINE",
"39 -153 LINE",
"39 -154 OFFCURVE",
"65 -161 OFFCURVE",
"108 -161 CURVE SMOOTH",
"197 -161 OFFCURVE",
"243 -77 OFFCURVE",
"272 24 CURVE SMOOTH"
);
},
{
closed = 1;
nodes = (
"323 639 LINE",
"217 639 LINE",
"141 522 LINE",
"228 522 LINE",
"324 636 LINE"
);
}
);
width = 403;
}
);
unicode = 00FD;
},
